<?xml version="1.0" standalone="no"?><!DOCTYPE svg PUBLIC "-//W3C//DTD SVG 1.1//EN" "http://www.w3.org/Graphics/SVG/1.1/DTD/svg11.dtd"><svg t="1705908641187" class="icon" viewBox="0 0 1092 1024" version="1.1" xmlns="http://www.w3.org/2000/svg" p-id="1234" xmlns:xlink="http://www.w3.org/1999/xlink" width="213.28125" height="200"><path d="M541.94000029 68.3a438.00000029 438.00000029 0 1 1 0 875.99999971 438.00000029 438.00000029 0 0 1 0-875.99999971z m0 96.00000029a342 342 0 1 0 0 684 342 342 0 0 0 0-684z m160.07999942 222.59999971a47.99999971 47.99999971 0 0 1 65.64000058 69.77999971l-190.32000029 207.60000029-5.04 4.79999971a47.99999971 47.99999971 0 0 1-65.76000029-4.79999971l-190.31999942-207.60000029-4.38000029-5.58a47.99999971 47.99999971 0 0 1 75.17999971-59.27999942l154.92000058 169.02 154.91999971-169.02z" fill="#2c2c2c" p-id="1235"></path></svg>