<?xml version="1.0" standalone="no"?><!DOCTYPE svg PUBLIC "-//W3C//DTD SVG 1.1//EN" "http://www.w3.org/Graphics/SVG/1.1/DTD/svg11.dtd"><svg t="1715147434411" class="icon" viewBox="0 0 1024 1024" version="1.1" xmlns="http://www.w3.org/2000/svg" p-id="3276" xmlns:xlink="http://www.w3.org/1999/xlink" width="200" height="200"><path d="M779.15428531 471.2c-12.75428531 0-22.28571469-4.59428531-22.28571375-19.95428531l0-150.65142938-56.64 0c-5.07428531 0-10.01142844-1.23428531-14.19428625-3.56571375-4.25142844-2.33142844-7.54285688-5.62285688-9.53142844-9.53142844a17.96571469 17.96571469 0 0 1-1.50857156-12.27428625 20.43428531 20.43428531 0 0 1 6.85714313-10.90285687l100.73142843-120.20571468a26.74285688 26.74285688 0 0 1 8.43428625-4.66285688 30.37714312 30.37714312 0 0 1 28.25142844 4.66285688L919.99999999 264.25142844a20.50285687 20.50285687 0 0 1 6.99428532 10.97142843 17.96571469 17.96571469 0 0 1-1.57714219 12.34285782 22.83428531 22.83428531 0 0 1-9.46285781 9.46285687 29.69142844 29.69142844 0 0 1-14.4 3.56571375l-57.73714218 0L843.81714313 451.24571469c0 11.58857155-9.25714312 19.95428531-21.6 19.95428531l-43.06285782 0z m-656.91428531-187.54285688a45.12 45.12 0 1 1 0-90.17142843l419.65714312 0a45.12 45.12 0 1 1 0 90.17142843l-419.65714312 0z m0 268.80000001a45.12 45.12 0 1 1 0-90.17142844l419.65714312 0a45.12 45.12 0 0 1 0 90.17142843l-419.65714312 0zM801.02857156 886.26285688c-3.42857156 0-6.85714313-0.61714313-9.94285687-1.71428532l-4.52571469-1.98857156-3.90857156-2.74285688-100.66285689-120.06857156c-3.63428531-3.01714313-6.03428531-6.85714313-6.99428624-10.97142843a17.96571469 17.96571469 0 0 1 1.50857157-12.34285782 22.76571469 22.76571469 0 0 1 9.53142843-9.46285687 28.8 28.8 0 0 1 9.25714313-3.15428531l5.00571469-0.41142845L758.17142844 723.40571468l0-146.05714311c0-9.94285687 6.85714313-17.55428531 16.45714312-19.47428626l5.14285688-0.54857062 43.06285687 0c11.17714313 0 19.88571469 3.56571469 21.87428625 14.74285688l0.41142844 5.27999999 0 146.05714313 56.64-1e-8a29.62285688 29.62285688 0 0 1 14.26285687 3.56571376 22.76571469 22.76571469 0 0 1 9.46285782 9.46285687 17.96571469 17.96571469 0 0 1 1.57714218 12.34285781 19.47428531 19.47428531 0 0 1-3.77142844 7.68l-3.15428531 3.22285688-100.73142843 120.20571469a26.53714313 26.53714313 0 0 1-8.36571469 4.66285688 30.37714312 30.37714312 0 0 1-9.94285688 1.7142853z m-678.78857156-64.93714219a45.12 45.12 0 0 1-6.65142844-89.62285782l6.65142844-0.54857157 419.65714312 1e-8a45.12 45.12 0 0 1 6.65142844 89.69142938l-6.65142844 0.48-419.65714312 0z" fill="#2c2c2c" p-id="3277"></path></svg>