<?xml version="1.0" standalone="no"?><!DOCTYPE svg PUBLIC "-//W3C//DTD SVG 1.1//EN" "http://www.w3.org/Graphics/SVG/1.1/DTD/svg11.dtd"><svg t="1705977391946" class="icon" viewBox="0 0 1024 1024" version="1.1" xmlns="http://www.w3.org/2000/svg" p-id="2677" xmlns:xlink="http://www.w3.org/1999/xlink" width="200" height="200"><path d="M401.2578125 691.296875l-68.5546875-63.28125L606.921875 353.796875 670.203125 417.078125z" fill="#2c2c2c" p-id="2678"></path><path d="M559.4609375 633.2890625L359.0703125 828.40625001 195.59374999 664.9296875l195.11718751-195.1171875-73.828125-79.1015625L121.765625 591.1015625c-42.1875 42.1875-42.1875 110.7421875 0 147.65625l163.4765625 163.4765625c21.09375001 21.09375001 47.4609375 31.640625 73.828125 31.640625s52.734375-10.546875 73.828125-31.640625l195.1171875-195.1171875-68.5546875-73.828125zM902.234375 285.2421875L738.7578125 121.765625c-42.1875-42.1875-110.7421875-42.1875-147.65625 0L390.7109375 316.8828125l73.828125 73.828125L664.9296875 195.59374999 828.40625001 359.0703125l-195.11718751 195.1171875 73.828125 73.828125 195.1171875-195.1171875c42.1875-42.1875 42.1875-105.46875001 0-147.65625z" fill="#2c2c2c" p-id="2679"></path></svg>