<?xml version="1.0" standalone="no"?><!DOCTYPE svg PUBLIC "-//W3C//DTD SVG 1.1//EN" "http://www.w3.org/Graphics/SVG/1.1/DTD/svg11.dtd"><svg t="1705978301121" class="icon" viewBox="0 0 1024 1024" version="1.1" xmlns="http://www.w3.org/2000/svg" p-id="2228" xmlns:xlink="http://www.w3.org/1999/xlink" width="200" height="200"><path d="M-150.80359506-150.80359506h1325.60719012v1325.60719012H-150.80359506z" fill="#2c2c2c" fill-opacity="0" p-id="2229"></path><path d="M70.13093706 70.13093706h883.73812588v883.73812588H70.13093706z" fill="#2c2c2c" fill-opacity="0" p-id="2230"></path><path d="M567.23363335 180.59820247a165.70089876 165.70089876 0 0 1 152.44482686 100.74614645l29.43952592-29.32905909a119.9674507 119.9674507 0 0 1 204.30920818 74.23400265l0.44186863 10.54962346v350.40216812a119.9674507 119.9674507 0 0 1-196.96313457 91.90876474l-7.78794224-7.12513863-29.38429315-29.32905909a165.8113656 165.8113656 0 0 1-141.17716574 100.35951058L567.23363335 843.40179753H235.83183582a165.70089876 165.70089876 0 0 1-165.42473102-155.9797798L70.13093706 677.70089876V346.29910124a165.70089876 165.70089876 0 0 1 155.9797785-165.42473104L235.83183582 180.59820247h331.40179753z m0 110.46726541H235.83183582a55.23363335 55.23363335 0 0 0-54.84699748 48.77129831L180.59820247 346.29910124v331.40179752a55.23363335 55.23363335 0 0 0 48.77129831 54.84699751L235.83183582 732.93453212h331.40179753a55.23363335 55.23363335 0 0 0 54.84699749-48.77129831L622.46726541 677.70089876V346.29910124a55.23363335 55.23363335 0 0 0-55.23363206-55.23363336z m262.47022365 37.28270222l-2.48551348 1.76747712-78.10035739 78.10035609a55.23363335 55.23363335 0 0 0-15.68635131 31.81457257l-0.4971027 7.23560677v129.4676347a55.23363335 55.23363335 0 0 0 11.37812795 33.58204968l4.80532606 5.46812966 78.10035739 78.10035609a9.50018529 9.50018529 0 0 0 15.68635132-3.70065253l0.49710269-2.98261619V336.79891594c0-1.65700898-0.44186863-3.31401797-1.27037312-4.69485793l-1.49130809-1.98841079-2.48551348-1.76747712a9.50018529 9.50018529 0 0 0-8.45074584 0zM456.76636665 401.53273459a55.23363335 55.23363335 0 0 1 55.23363335 55.23363206v110.4672667a55.23363335 55.23363335 0 0 1-55.23363335 55.23363206H346.29910124a55.23363335 55.23363335 0 0 1-55.23363336-55.23363206v-110.4672667a55.23363335 55.23363335 0 0 1 55.23363336-55.23363206h110.46726541z" fill="#2c2c2c" p-id="2231"></path></svg>