<?xml version="1.0" standalone="no"?><!DOCTYPE svg PUBLIC "-//W3C//DTD SVG 1.1//EN" "http://www.w3.org/Graphics/SVG/1.1/DTD/svg11.dtd"><svg t="1705976150292" class="icon" viewBox="0 0 1024 1024" version="1.1" xmlns="http://www.w3.org/2000/svg" p-id="2524" xmlns:xlink="http://www.w3.org/1999/xlink" width="200" height="200"><path d="M455.9609375 148.38541667L136.6596875 467.68666667a31.1465625 31.1465625 0 0 1-44.18625 0c-12.2559375-12.2559375-12.09375-31.9303125 0-44.18625L411.7746875 104.19916667a31.1465625 31.1465625 0 0 1 44.18625 0 31.1465625 31.1465625 0 0 1 0 44.18625zM898.4675 590.73072917L579.16625 910.03197917a31.1465625 31.1465625 0 0 1-44.18625 0c-12.2559375-12.2559375-12.0946875-31.93125 0-44.18625L854.28125 546.54447917a31.1465625 31.1465625 0 0 1 44.18625 0c12.2559375 12.2559375 12.09375 32.090625 0 44.18625zM454.9934375 592.66572917L358.3971875 689.26197917a31.1465625 31.1465625 0 0 1-44.18625 0c-12.2559375-12.2559375-12.0946875-31.929375 0-44.1853125L410.80625 548.47947917a31.1465625 31.1465625 0 0 1 44.18625 0c12.2559375 12.2559375 12.2559375 32.090625 0 44.18625zM311.79125 502.84197917l-69.988125 69.988125a31.1465625 31.1465625 0 0 1-44.18625 0c-12.2559375-12.2559375-12.09375-31.9303125 0-44.18625l69.9890625-69.988125a31.1465625 31.1465625 0 0 1 44.1853125 0c12.095625 12.2559375 12.095625 32.0915625 0 44.18625zM543.2046875 734.41666667l-69.988125 69.9871875a31.1465625 31.1465625 0 0 1-44.18625 0c-12.2559375-12.2559375-12.0946875-31.929375 0-44.1853125l69.988125-69.9890625a31.1465625 31.1465625 0 0 1 44.18625 0 31.1465625 31.1465625 0 0 1 0 44.18625z" fill="#2c2c2c" p-id="2525"></path><path d="M534.81875 910.03197917L92.4734375 467.84791667a31.1465625 31.1465625 0 0 1 0-44.18625c12.2559375-12.2559375 31.93125-12.09375 44.18625 0l442.3453125 442.3453125a31.1465625 31.1465625 0 0 1 0 44.18625c-12.2559375 12.09375-31.9303125 12.09375-44.18625-0.16125zM718.4975 726.51354167L276.153125 284.17010417a31.1465625 31.1465625 0 0 1 0-44.18625c12.2559375-12.2559375 31.93125-12.0946875 44.18625 0L762.5225 682.32916667a31.1465625 31.1465625 0 0 1 0 44.18625c-12.0946875 12.2559375-31.9303125 12.09375-44.025 0zM887.3403125 216.43854167L786.389375 115.32635417a31.1465625 31.1465625 0 0 1 0-44.18625c12.2559375-12.2559375 31.9303125-12.09375 44.18625 0l100.95 101.1121875a31.1465625 31.1465625 0 0 1 0 44.18625c-12.255 12.2559375-32.090625 12.2559375-44.1853125 0zM582.5525 318.84072917L412.0971875 148.38541667a31.1465625 31.1465625 0 0 1 0-44.18625c12.2559375-12.2559375 31.93125-12.09375 44.18625 0L626.9 274.81666667a31.1465625 31.1465625 0 0 1 0 44.18625c-12.2559375 12.0946875-32.090625 12.0946875-44.3475-0.16125zM854.28125 590.56947917l-170.4553125-170.45625a31.1465625 31.1465625 0 0 1 0-44.1853125c12.2559375-12.2559375 31.9303125-12.0946875 44.18625 0l170.615625 170.615625a31.1465625 31.1465625 0 0 1 0 44.1871875c-12.255 12.09375-32.090625 12.09375-44.3465625-0.16125z" fill="#2c2c2c" p-id="2526"></path><path d="M931.3653125 216.43854167L727.85 419.95291667a31.1465625 31.1465625 0 0 1-44.18625 0c-12.2559375-12.2559375-12.0946875-31.9303125 0-44.18625l203.514375-203.514375a31.1465625 31.1465625 0 0 1 44.18625 0c12.2559375 12.0946875 12.2559375 31.9303125 0 44.18625zM830.414375 115.32635417L626.73875 318.84166667a31.1465625 31.1465625 0 0 1-44.18625 0c-12.2559375-12.2559375-12.09375-31.9303125 0-44.18625L786.228125 71.14010417a31.1465625 31.1465625 0 0 1 44.18625 0c12.2559375 12.2559375 12.09375 31.93125 0 44.18625z" fill="#2c2c2c" p-id="2527"></path></svg>