<?xml version="1.0" standalone="no"?><!DOCTYPE svg PUBLIC "-//W3C//DTD SVG 1.1//EN" "http://www.w3.org/Graphics/SVG/1.1/DTD/svg11.dtd"><svg t="1705908647320" class="icon" viewBox="0 0 1024 1024" version="1.1" xmlns="http://www.w3.org/2000/svg" p-id="1373" xmlns:xlink="http://www.w3.org/1999/xlink" width="200" height="200"><path d="M514.7 963.8a438 438 0 1 0 0-876 438 438 0 0 0 0 876z m0-96a342 342 0 1 1 0-684 342 342 0 0 1 0 684z m160.08-222.6a48 48 0 0 0 65.64-69.78l-190.32-207.6-5.04-4.8a48 48 0 0 0-65.76 4.8l-190.32 207.6-4.38 5.58a48 48 0 0 0 75.18 59.28l154.92-169.02 154.92 169.02z" fill="#2c2c2c" p-id="1374"></path></svg>