<?xml version="1.0" standalone="no"?><!DOCTYPE svg PUBLIC "-//W3C//DTD SVG 1.1//EN" "http://www.w3.org/Graphics/SVG/1.1/DTD/svg11.dtd"><svg t="1706063334565" class="icon" viewBox="0 0 1024 1024" version="1.1" xmlns="http://www.w3.org/2000/svg" p-id="3659" xmlns:xlink="http://www.w3.org/1999/xlink" width="200" height="200"><path d="M233.45 165.78125a28.575 28.575 0 0 1-18-5.90625c-5.11875-3.9375-7.65-8.6625-7.65-14.0625V105.875c0-5.34375 2.53125-10.0125 7.59375-14.00625a28.575 28.575 0 0 1 18.05625-5.90625h564.91875a28.6875 28.6875 0 0 1 18.05625 5.90625c5.0625 3.9375 7.65 8.6625 7.65 14.0625v39.9375c0 5.34375-2.53125 10.0125-7.65 14.00625a28.575 28.575 0 0 1-18 5.90625M213.14375 510.48125c-5.0625 4.89375-6.8625 9-5.23125 12.375 1.575 3.375 5.85 5.0625 12.825 5.0625h590.625c6.91875 0 11.25-1.6875 12.825-5.0625 1.63125-3.375-0.1125-7.48125-5.23125-12.375L534.10625 235.8125A25.7625 25.7625 0 0 0 526.45625 230.75h-20.8125a35.2125 35.2125 0 0 0-7.65 5.0625M213.14375 904.23125c-5.0625 4.89375-6.8625 9-5.23125 12.375 1.575 3.375 5.85 5.0625 12.825 5.0625h590.625c6.91875 0 11.25-1.6875 12.825-5.0625 1.63125-3.375-0.1125-7.48125-5.23125-12.375L534.10625 629.5625a25.7625 25.7625 0 0 0-7.65-5.0625h-20.8125a35.2125 35.2125 0 0 0-7.65 5.0625" fill="#2c2c2c" p-id="3660"></path></svg>