<?xml version="1.0" standalone="no"?><!DOCTYPE svg PUBLIC "-//W3C//DTD SVG 1.1//EN" "http://www.w3.org/Graphics/SVG/1.1/DTD/svg11.dtd"><svg t="1749520321178" class="icon" viewBox="0 0 1024 1024" version="1.1" xmlns="http://www.w3.org/2000/svg" p-id="1477" xmlns:xlink="http://www.w3.org/1999/xlink" width="200" height="200"><path d="M512.2724205 459.29908672c-216.71310761 0-386.52302286-87.20169961-386.52302284-198.63712881s169.78508526-198.63712881 386.52302285-198.63712793 386.52302286 87.20169961 386.52302197 198.63712793-169.78508526 198.63712881-386.52302198 198.63712881z m0-334.20696855C321.50628828 125.06728818 188.64287862 196.57665459 188.64287862 260.8854251s132.93789873 135.69398877 323.62954189 135.69398877S836.00128057 324.94589932 836.00128057 260.8854251s-132.98755781-135.81813691-323.72886006-135.81813692z m0 836.75890371c-216.71310761 0-386.52302286-87.20169961-386.52302284-198.63712793h62.81899189c0 64.15979238 132.93789873 135.71881787 323.6295419 135.71881787s323.80334912-71.38521826 323.80334912-135.56984063h62.81899189c0 111.33611016-169.71059707 198.63712881-386.44853379 198.63712881z m0-209.41319268c-216.71310761 0-386.52302286-87.20169961-386.52302284-198.63712881h62.81899189c0 64.15979238 132.93789873 135.71881787 323.6295419 135.71881875s323.80334912-71.43487734 323.80334912-135.64432969h62.81899189c0 111.33611016-169.78508526 198.63712881-386.52302285 198.63712881zM155.81809268 816.15068809A31.35983643 31.35983643 0 0 1 124.45825625 784.79085166V282.13959746a31.40949638 31.40949638 0 1 1 62.8189919 1e-8V784.79085166a31.35983643 31.35983643 0 0 1-31.45915547 31.40949639z m712.01478779-1e-8a31.35983643 31.35983643 0 0 1-31.35983643-31.35983642V282.13959746a31.40949638 31.40949638 0 1 1 62.8189919 1e-8V784.79085166a31.35983643 31.35983643 0 0 1-31.45915547 31.40949639z" p-id="1478"></path></svg>