<?xml version="1.0" standalone="no"?><!DOCTYPE svg PUBLIC "-//W3C//DTD SVG 1.1//EN" "http://www.w3.org/Graphics/SVG/1.1/DTD/svg11.dtd"><svg t="1705976159607" class="icon" viewBox="0 0 1024 1024" version="1.1" xmlns="http://www.w3.org/2000/svg" p-id="2966" xmlns:xlink="http://www.w3.org/1999/xlink" width="200" height="200"><path d="M341.333333 213.333333c-47.018667 0-75.52 29.354667-85.333333 85.333334L170.666667 768c0 47.018667 38.314667 85.333333 85.333333 85.333333h512c47.018667 0 79.146667-32 85.333333-85.333333l85.333334-469.333333c0-47.018667-38.314667-85.333333-85.333334-85.333334zM85.333333 298.666667v85.333333h112l14.677334-85.333333z m240 85.333333h512L768 768H256z m66.688 42.666667l-6.698666 34.688-42.666667 213.333333L331.989333 725.333333h385.365334l6.656-34.688 42.666666-213.333333 10.666667-50.645333zM85.333333 469.333333v85.333334h81.322667l14.677333-85.333334z m376.021334 42.666667h211.968l-25.344 128H436.053333zM85.333333 640v85.333333h49.322667l16-85.333333z" fill="#2c2c2c" p-id="2967"></path></svg>