<?xml version="1.0" standalone="no"?><!DOCTYPE svg PUBLIC "-//W3C//DTD SVG 1.1//EN" "http://www.w3.org/Graphics/SVG/1.1/DTD/svg11.dtd"><svg t="1705978298429" class="icon" viewBox="0 0 1024 1024" version="1.1" xmlns="http://www.w3.org/2000/svg" p-id="2081" xmlns:xlink="http://www.w3.org/1999/xlink" width="200" height="200"><path d="M62 62h900v900H62z" fill="#2c2c2c" fill-opacity="0" p-id="2082"></path><path d="M212.00000029 212.00000029h599.99999942v599.99999942H212.00000029z" fill="#2c2c2c" fill-opacity="0" p-id="2083"></path><path d="M568.25 174.5a168.78750029 168.78750029 0 0 1 155.28750029 102.6l29.925-29.88749971a122.13749971 122.13749971 0 0 1 208.04999942 75.63749942l0.48750029 10.76250058v356.77499942a122.13749971 122.13749971 0 0 1-200.62500029 93.63750029l-7.875-7.23750029-29.96249942-29.88749971a168.8625 168.8625 0 0 1-143.775 102.22499971L568.25 849.5h-337.5a168.75 168.75 0 0 1-168.45000029-158.85L62 680.75v-337.5a168.75 168.75 0 0 1 158.85-168.45000029L230.75 174.5h337.5z m0 112.5h-337.5a56.25 56.25 0 0 0-55.87499971 49.68749971L174.5 343.25v337.5a56.25 56.25 0 0 0 49.68749971 55.87499971L230.75 737h337.5a56.25 56.25 0 0 0 55.87499971-49.68749971L624.5 680.75v-337.5A56.25 56.25 0 0 0 568.25 287z m267.26249971 37.95000029l-2.475 1.83749942-79.57499942 79.5375a56.25 56.25 0 0 0-15.975 32.36250058l-0.48750029 7.425v131.77499942c0 12.44999971 4.12499971 24.45000029 11.62500029 34.2l4.87499942 5.58750058 79.50000058 79.5375a9.63749971 9.63749971 0 0 0 16.01249942-3.75000029l0.48750029-3.07500029V333.61250029a9.63749971 9.63749971 0 0 0-1.27500029-4.8375l-1.53749971-1.98750058-2.51250029-1.83749942a9.675 9.675 0 0 0-8.62499971 0zM352.62500029 380.52500029a28.125 28.125 0 0 1 16.72499971 5.5125l139.87500029 103.34999971a28.125 28.125 0 0 1 0 45.225l-139.87500029 103.34999971A28.125 28.125 0 0 1 324.50000029 615.34999971V408.65000029a28.125 28.125 0 0 1 28.125-28.125z" fill="#2c2c2c" p-id="2084"></path></svg>