<?xml version="1.0" standalone="no"?><!DOCTYPE svg PUBLIC "-//W3C//DTD SVG 1.1//EN" "http://www.w3.org/Graphics/SVG/1.1/DTD/svg11.dtd"><svg t="1749520361577" class="icon" viewBox="0 0 1024 1024" version="1.1" xmlns="http://www.w3.org/2000/svg" p-id="1323" xmlns:xlink="http://www.w3.org/1999/xlink" width="200" height="200"><path d="M793.792 826.667A420.821 420.821 0 0 1 512 934.4C278.72 934.4 89.6 745.28 89.6 512c0-32.256 3.627-63.68 10.453-93.867l101.099-0.277-80.49-165.035A467.136 467.136 0 0 0 42.666 512C42.667 771.2 252.8 981.333 512 981.333a467.456 467.456 0 0 0 303.083-110.976l-21.291-43.69z m106.027-50.262A467.157 467.157 0 0 0 981.333 512C981.333 252.8 771.2 42.667 512 42.667a467.52 467.52 0 0 0-307.37 114.645l21.375 43.84A420.907 420.907 0 0 1 512 89.6c233.28 0 422.4 189.12 422.4 422.4 0 33.877-3.99 66.816-11.52 98.368H818.837l80.982 166.037z" p-id="1324"></path><path d="M305.79489738 526.72942905c0 9.21987417 13.57918866 25.27491043 45.07064445 41.03444676C391.63486715 588.14922886 449.46033829 600.37381268 512 600.37381268c62.53828086 0 120.36513285-12.22458381 161.13445817-32.60993687 31.49145581-15.75953632 45.07064446-31.81457257 45.07064445-41.03444676v-63.9536427C669.59950565 492.82288265 595.27851005 512 512 512s-157.59950565-19.20749585-206.20510262-49.22421365v63.9536427z m412.41020524 83.33650536c-48.60559698 30.04709632-122.92797343 49.22421365-206.20510262 49.22421365s-157.59950565-19.20749585-206.20510262-49.22421365v63.95226188c0 9.22125502 13.57918866 25.27491043 45.07064445 41.03582758 40.7693253 20.38397222 98.59479645 32.60993687 161.13445817 32.60993688 62.53828086 0 120.36513285-12.22596466 161.13445817-32.60993688 31.49145581-15.76091715 45.07064446-31.81457257 45.07064445-41.03582758V610.06731525zM246.87856197 674.01819629V379.43928098c0-73.20251455 118.71502809-132.56071902 265.12143803-132.56071901s265.12143803 59.35820446 265.12143803 132.56071901v294.57891531c0 73.20389539-118.71502809 132.56071902-265.12143803 132.56071902s-265.12143803-59.35682361-265.12143803-132.56071902z m265.12143803-220.93453169c62.53828086 0 120.36513285-12.22458381 161.13445817-32.60993689 31.49145581-15.75953632 45.07064446-31.81457257 45.07064445-41.03444673s-13.57918866-25.27491043-45.07064445-41.03444673C632.36513285 318.01948118 574.53966171 305.79489738 512 305.79489738c-62.53828086 0-120.36513285 12.22458381-161.13445817 32.60993687-31.49145581 15.75953632-45.07064446 31.81457257-45.07064445 41.03444673s13.57918866 25.27491043 45.07064445 41.03444673c40.7693253 20.38535307 98.59479645 32.60993687 161.13445817 32.60993689z" p-id="1325"></path></svg>