<?xml version="1.0" standalone="no"?><!DOCTYPE svg PUBLIC "-//W3C//DTD SVG 1.1//EN" "http://www.w3.org/Graphics/SVG/1.1/DTD/svg11.dtd"><svg t="1705978004407" class="icon" viewBox="0 0 1024 1024" version="1.1" xmlns="http://www.w3.org/2000/svg" p-id="6546" xmlns:xlink="http://www.w3.org/1999/xlink" width="200" height="200"><path d="M923.42858281 134.85714312l0 754.28571469q0 13.92-10.14857156 24.13714313t-24.13714313 10.14857156l-274.28571468 0q-13.92 0-24.13714313-10.14857156t-10.14857156-24.13714313l0-754.28571468q0-13.92 10.14857156-24.13714313t24.13714313-10.14857156l274.28571468 0q13.92 0 24.13714313 10.14857156t10.14857156 24.13714313zM443.42858281 134.85714312l0 754.28571469q0 13.92-10.14857156 24.13714313t-24.13714312 10.14857156l-274.28571469 0q-13.92 0-24.13714313-10.14857156t-10.14857156-24.13714313l0-754.28571468q0-13.92 10.14857156-24.13714313t24.13714313-10.14857156l274.28571469 0q13.92 0 24.13714312 10.14857156t10.14857156 24.13714313z" fill="#2c2c2c" p-id="6547"></path></svg>