<?xml version="1.0" standalone="no"?><!DOCTYPE svg PUBLIC "-//W3C//DTD SVG 1.1//EN" "http://www.w3.org/Graphics/SVG/1.1/DTD/svg11.dtd"><svg t="1706593034349" class="icon" viewBox="0 0 1024 1024" version="1.1" xmlns="http://www.w3.org/2000/svg" p-id="4208" xmlns:xlink="http://www.w3.org/1999/xlink" width="200" height="200"><path d="M141.49866667 39.44213333l0 0 0 0zM889.9424 786.29226667q0 63.79093333-38.80213333 100.7328t-103.1296 36.9408l-464.58026667 0q-64.31253333 0-103.1296-36.9408t-38.80213333-100.7328q0-28.17493333 1.86026666-55.0112t7.44213334-57.9424 14.08-57.6736 22.8608-51.82506667 32.95146666-43.05813333 45.45493334-28.44266667 59.2672-10.6272q4.7776 0 22.3264 11.43146667t39.6064 25.5104 57.40693333 25.5104 70.9664 11.43146666 70.9664-11.43146666 57.40693333-25.5104 39.6064-25.5104 22.3264-11.43146667q32.432 0 59.2672 10.6272t45.45493334 28.44266667 32.95253333 43.05813333 22.8608 51.82506667 14.08 57.6736 7.44213333 57.9424 1.86026667 55.0112zM719.83573333 311.6064q0 84.5248-59.80266666 144.31146667t-144.31253334 59.80266666-144.31253333-59.80266666-59.80266667-144.31146667 59.80266667-144.31253333 144.31253333-59.80266667 144.31253334 59.80266667 59.80266666 144.31253333z" fill="#2c2c2c" p-id="4209"></path></svg>