<?xml version="1.0" standalone="no"?><!DOCTYPE svg PUBLIC "-//W3C//DTD SVG 1.1//EN" "http://www.w3.org/Graphics/SVG/1.1/DTD/svg11.dtd"><svg t="1705915865576" class="icon" viewBox="0 0 1024 1024" version="1.1" xmlns="http://www.w3.org/2000/svg" p-id="1799" xmlns:xlink="http://www.w3.org/1999/xlink" width="200" height="200"><path d="M886.74986667 480.59733333l-338.50026667-1.19466666L548.2496 139.53706667c0-18.8416-15.29173333-34.13333333-34.13333333-34.13333334s-34.13333333 15.29173333-34.13333334 34.13333334l0 339.62666666L136.12373333 477.93493333c-0.03413333 0-0.06826667 0-0.1024 0-18.80746667 0-34.06506667 15.18933333-34.13333333 34.03093334C101.7856 530.80746667 117.0432 546.13333333 135.8848 546.2016l344.09813333 1.2288 0 340.44586667c0 18.87573333 15.29173333 34.13333333 34.13333334 34.13333333s34.13333333-15.2576 34.13333333-34.13333333l0-340.20693334 338.2272 1.19466667c0.06826667 0 0.1024 0 0.13653333 0 18.80746667 0 34.06506667-15.18933333 34.13333334-34.03093333C920.81493333 495.99146667 905.55733333 480.6656 886.74986667 480.59733333z" fill="#2c2c2c" p-id="1800"></path></svg>