<?xml version="1.0" standalone="no"?><!DOCTYPE svg PUBLIC "-//W3C//DTD SVG 1.1//EN" "http://www.w3.org/Graphics/SVG/1.1/DTD/svg11.dtd"><svg t="1705907698436" class="icon" viewBox="0 0 1024 1024" version="1.1" xmlns="http://www.w3.org/2000/svg" p-id="1133" xmlns:xlink="http://www.w3.org/1999/xlink" width="200" height="200"><path d="M512 97.74775349c-228.82258489 0-414.25224651 185.48144355-414.25224651 414.25224651s185.42966162 414.25224651 414.25224651 414.25224651 414.25224651-185.48144355 414.25224651-414.25224651-185.42966162-414.25224651-414.25224651-414.25224651zM703.95413451 630.73505068c20.24657898 20.24657898 20.24657898 52.97250608 0 73.21908504-10.09739852 10.09739852-23.35347083 15.17198814-36.60954192 15.17198814s-26.51214339-5.07458962-36.60954191-15.17198814l-118.73505068-118.73505067-118.73505068 118.73505067c-10.09739852 10.09739852-23.35347083 15.17198814-36.60954191 15.17198814s-26.51214339-5.07458962-36.60954192-15.17198814c-20.24657898-20.24657898-20.24657898-52.97250608 0-73.21908504l118.73505068-118.73505068-118.73505068-118.73505068c-20.24657898-20.24657898-20.24657898-52.97250608 0-73.21908504s52.97250608-20.24657898 73.21908505 0l118.73505068 118.73505067 118.73505067-118.73505067c20.24657898-20.24657898 52.97250608-20.24657898 73.21908505 0s20.24657898 52.97250608 0 73.21908504l-118.73505068 118.73505068 118.73505068 118.73505068z" fill="#2c2c2c" p-id="1134"></path></svg>