<?xml version="1.0" standalone="no"?><!DOCTYPE svg PUBLIC "-//W3C//DTD SVG 1.1//EN" "http://www.w3.org/Graphics/SVG/1.1/DTD/svg11.dtd"><svg t="1705977394031" class="icon" viewBox="0 0 1024 1024" version="1.1" xmlns="http://www.w3.org/2000/svg" p-id="2823" xmlns:xlink="http://www.w3.org/1999/xlink" width="200" height="200"><path d="M369.6171875 928.6015625c-21.09375 0-36.9140625-5.2734375-52.734375-15.8203125L142.859375 802.0390625c-26.3671875-15.8203125-42.1875-42.1875-47.4609375-68.5546875-5.2734375-26.3671875 0-58.0078125 15.8203125-79.1015625l137.109375-210.9375 89.6484375 58.0078125-131.8359375 205.6640625v5.2734375l168.75 110.7421875 5.2734375-5.2734375L512 612.1953125 601.6484375 670.203125l-131.8359375 205.6640625c-15.8203125 26.3671875-36.9140625 42.1875-68.5546875 47.4609375-10.546875 5.2734375-21.09375 5.2734375-31.640625 5.2734375zM380.1640625 227.234375H306.3359375V90.125h68.5546875zM237.78125 185.046875l-47.4609375 52.734375L90.125 142.859375l52.734375-52.734375zM232.5078125 316.8828125v73.828125H95.3984375V322.15625z" fill="#2c2c2c" p-id="2824"></path><path d="M406.53125 670.203125l-79.1015625-47.4609375 94.921875-147.65625 73.828125 47.4609375zM659.65625 591.1015625l-52.734375-89.6484375 210.9375-126.5625c5.2734375 0 5.2734375-5.2734375 5.2734375-5.2734375l-105.46875-174.0234375-5.2734375 5.2734375-210.9375 126.5625-52.734375-89.6484375 210.9375-126.5625c52.734375-31.640625 121.2890625-15.8203125 152.9296875 31.640625l105.46875 179.296875c15.8203125 21.09375 15.8203125 52.734375 10.546875 79.1015625-5.2734375 26.3671875-26.3671875 52.734375-52.734375 68.5546875l-216.2109375 121.2890625z" fill="#2c2c2c" p-id="2825"></path><path d="M617.46875 316.8828125l47.4609375 79.1015625-137.109375 84.375-47.4609375-79.1015625z" fill="#2c2c2c" p-id="2826"></path></svg>