<?xml version="1.0" standalone="no"?><!DOCTYPE svg PUBLIC "-//W3C//DTD SVG 1.1//EN" "http://www.w3.org/Graphics/SVG/1.1/DTD/svg11.dtd"><svg t="1705978598713" class="icon" viewBox="0 0 1024 1024" version="1.1" xmlns="http://www.w3.org/2000/svg" p-id="2474" xmlns:xlink="http://www.w3.org/1999/xlink" width="200" height="200"><path d="M915.00598145 278.4855957C900.09204102 259.86376953 877.43273926 249.15209961 852.79589844 249.15209961h-681.42700196c-24.63684083 0-47.29614258 10.71166992-62.21008301 29.33349609-16.23229981 20.43457031-21.91772461 48.28491211-15.49072264 76.46484375l81.8206787 356.94580078c8.32214356 36.41967773 44.90661622 63.85803223 85.03417969 63.85803224h502.95410156c40.12756348 0 76.71203614-27.4383545 85.03417969-63.85803224l81.82067871-356.94580078c6.59179688-28.17993164 0.90637207-56.03027344-15.32592774-76.46484375z m-56.52465821 59.98535157l-81.82067871 356.78100585c-0.90637207 1.97753906-6.42700195 6.67419434-13.10119629 6.67419435H260.60534667c-6.67419434 0-12.19482422-4.69665528-13.10119628-6.67419434l-81.82067871-356.78100586c-1.64794922-7.08618164-0.32958984-11.94763184 1.23596191-13.92517091 0.41198731-0.49438477 1.23596192-1.4831543 4.44946289-1.48315429h681.42700196c3.21350098 0 4.03747559 0.98876953 4.44946289 1.4831543 1.56555176 1.97753906 2.80151367 6.83898926 1.23596192 13.9251709z" fill="#2c2c2c" p-id="2475"></path><path d="M222.70251464 445.75244141a41.03393555 41.03393555 0 1 0 82.06787111 0 41.03393555 41.03393555 0 1 0-82.0678711 0zM348.85302734 445.75244141a41.03393555 41.03393555 0 1 0 82.0678711 0 41.03393555 41.03393555 0 1 0-82.0678711 0zM475.0859375 445.75244141a41.03393555 41.03393555 0 1 0 82.06787109 0 41.03393555 41.03393555 0 1 0-82.06787109 0zM601.2364502 445.75244141a41.03393555 41.03393555 0 1 0 82.06787108 0 41.03393555 41.03393555 0 1 0-82.06787109 0zM727.38696289 445.75244141a41.03393555 41.03393555 0 1 0 82.06787109 0 41.03393555 41.03393555 0 1 0-82.06787109 0zM285.81896972 581.13146973a41.03393555 41.03393555 0 1 0 82.0678711-1e-8 41.03393555 41.03393555 0 1 0-82.06787109 0zM411.96948242 581.13146973a41.03393555 41.03393555 0 1 0 82.0678711-1e-8 41.03393555 41.03393555 0 1 0-82.0678711 0zM538.11999512 581.13146973a41.03393555 41.03393555 0 1 0 82.06787109-1e-8 41.03393555 41.03393555 0 1 0-82.0678711 0zM664.27050781 581.13146973a41.03393555 41.03393555 0 1 0 82.0678711-1e-8 41.03393555 41.03393555 0 1 0-82.0678711 0z" fill="#2c2c2c" p-id="2476"></path></svg>