<?xml version="1.0" standalone="no"?><!DOCTYPE svg PUBLIC "-//W3C//DTD SVG 1.1//EN" "http://www.w3.org/Graphics/SVG/1.1/DTD/svg11.dtd"><svg t="1705979122234" class="icon" viewBox="0 0 1024 1024" version="1.1" xmlns="http://www.w3.org/2000/svg" p-id="2172" xmlns:xlink="http://www.w3.org/1999/xlink" width="200" height="200"><path d="M250.20754825 911.02692237c-75.67832286 0-137.17294717-61.49813994-137.17294718-137.13603575V449.70210987a37.47136465 37.47136465 0 0 1 37.43884776-37.43884688h62.34710449V150.42686503a37.39490508 37.39490508 0 0 1 37.38699493-37.39226747H773.89880029a37.39402617 37.39402617 0 0 1 37.39051055 37.39226748v261.83815576h62.34710537a37.43269541 37.43269541 0 0 1 37.39050967 37.43708907v324.18877675c0 75.6378958-61.49462432 137.13603575-137.12812559 137.13603575zM187.86044375 773.89088662a62.3848957 62.3848957 0 0 0 62.34798339 62.35062012H773.89880029a62.41389786 62.41389786 0 0 0 62.34710537-62.35062012V487.09525713H187.86044375zM287.59805878 412.2650208h448.86541026V187.8200123H287.59805878z m12.47961622 349.14712852a37.41511816 37.41511816 0 0 1 0-74.83023633h423.95539307a37.41511816 37.41511816 0 0 1 0 74.83023633z" fill="#2c2c2c" p-id="2173"></path></svg>