<?xml version="1.0" standalone="no"?><!DOCTYPE svg PUBLIC "-//W3C//DTD SVG 1.1//EN" "http://www.w3.org/Graphics/SVG/1.1/DTD/svg11.dtd"><svg t="1705979139993" class="icon" viewBox="0 0 1024 1024" version="1.1" xmlns="http://www.w3.org/2000/svg" p-id="2321" xmlns:xlink="http://www.w3.org/1999/xlink" width="200" height="200"><path d="M586.18311147 512l182.04444373-172.48711147a51.88266667 51.88266667 0 0 0-5.91644373-80.55466666l-212.5368896-147.00088854a53.248 53.248 0 0 0-55.06844374-3.64088853 52.33777813 52.33777813 0 0 0-28.2168896 45.5111104v282.1688896l-145.18044373-182.0444448a45.51111147 45.51111147 0 0 0-70.99733333 59.1644448L408.23466667 512l-159.28888854 201.61422187a45.51111147 45.51111147 0 0 0 7.28177707 63.71555626A45.51111147 45.51111147 0 0 0 284.4444448 785.06666667a45.51111147 45.51111147 0 0 0 35.49866667-17.29422187L466.48888853 582.99733333v286.26488854A52.79288853 52.79288853 0 0 0 519.28177813 921.6a52.79288853 52.79288853 0 0 0 30.49244374-9.55733333l211.17155626-144.72533334a53.248 53.248 0 0 0 22.30044374-38.6844448 52.33777813 52.33777813 0 0 0-15.47377707-41.4151104zM557.51111147 228.01066667l113.77777706 78.73422186L557.51111147 414.15111147z m0 568.43377813v-185.23022293l112.41244373 108.3164448z" fill="#2c2c2c" p-id="2322"></path></svg>