<?xml version="1.0" standalone="no"?><!DOCTYPE svg PUBLIC "-//W3C//DTD SVG 1.1//EN" "http://www.w3.org/Graphics/SVG/1.1/DTD/svg11.dtd"><svg t="1705976324739" class="icon" viewBox="0 0 1024 1024" version="1.1" xmlns="http://www.w3.org/2000/svg" p-id="1863" xmlns:xlink="http://www.w3.org/1999/xlink" width="200" height="200"><path d="M255.76666667 529.50000029H321.91666667a18.74999971 18.74999971 0 0 1 18.74999971 18.74999971 18.74999971 18.74999971 0 0 0 37.50000029 0c0-31.01249971-25.23750029-56.25-56.25-56.25H255.76666667C219.87916667 492 190.66666696 521.21249971 190.66666696 557.09999971c0 24.78750029 13.76250029 47.09999971 35.96249971 58.23750058l98.73749971 49.34999971A27.63749971 27.63749971 0 0 1 313.06666696 717H246.91666696a18.74999971 18.74999971 0 0 1-18.75000058-18.74999971 18.74999971 18.74999971 0 0 0-37.49999942 0c0 31.01249971 25.23750029 56.25 56.25 56.25h66.15C348.95416696 754.50000029 378.16666667 725.28749971 378.16666667 689.39999971c0-24.78750029-13.76250029-47.09999971-35.96249971-58.23749971l-98.73750058-49.34999971A27.63749971 27.63749971 0 0 1 255.76666667 529.50000029zM590.34166667 492.93750029a18.74999971 18.74999971 0 0 0-23.69999971 11.84999942L509.41666638 676.46249971l-57.22499971-171.63749971a18.71250029 18.71250029 0 1 0-35.55 11.88749971l74.99999971 225a18.74999971 18.74999971 0 0 0 35.55-0.03749942l75.00000058-225a18.74999971 18.74999971 0 0 0-11.85000029-23.7375zM659.41666667 492a18.74999971 18.74999971 0 0 0-18.74999971 18.74999971v225a18.74999971 18.74999971 0 0 0 18.74999971 18.75000058h150.00000029a18.74999971 18.74999971 0 0 0 18.74999971-18.75000058v-112.5a18.74999971 18.74999971 0 0 0-18.74999971-18.74999971h-75.00000058a18.74999971 18.74999971 0 0 0 0 37.50000029H790.66666638v74.99999971h-112.5v-187.49999971h131.25000058a18.74999971 18.74999971 0 0 0 0-37.50000029h-150.00000029z" fill="#2c2c2c" p-id="1864"></path><path d="M884.41666667 417.00000029H828.16666667V98.25a18.74999971 18.74999971 0 0 0-18.74999971-18.74999971h-412.50000058c-0.82500029 0-1.575 0.37500029-2.39999942 0.48749942a18.97499971 18.97499971 0 0 0-10.87500058 4.98750029l-187.49999971 187.49999971a18.97499971 18.97499971 0 0 0-4.98750029 10.87500058C191.04166638 284.17499971 190.66666696 284.92500029 190.66666696 285.74999971V417.00000029H134.41666696a18.74999971 18.74999971 0 0 0-18.75000058 18.74999971v375.00000029a18.74999971 18.74999971 0 0 0 18.75000058 18.74999971H190.66666696v93.75000029a18.74999971 18.74999971 0 0 0 18.74999971 18.74999971h600.00000029a18.74999971 18.74999971 0 0 0 18.74999971-18.74999971V829.5h56.25a18.74999971 18.74999971 0 0 0 18.74999971-18.74999971v-375.00000029a18.74999971 18.74999971 0 0 0-18.74999971-18.74999971zM378.16666667 143.51250029V267H254.67916696L378.16666667 143.51250029zM228.16666638 304.50000029h168.75a18.74999971 18.74999971 0 0 0 18.75000058-18.75000058V116.99999971h374.99999942v300.00000058H228.16666638V304.50000029z m562.5 599.99999942H228.16666638v-74.99999971h562.5v74.99999971z m75.00000058-112.5H153.16666667v-337.5h712.50000029v337.5z" fill="#2c2c2c" p-id="1865"></path></svg>