<?xml version="1.0" standalone="no"?><!DOCTYPE svg PUBLIC "-//W3C//DTD SVG 1.1//EN" "http://www.w3.org/Graphics/SVG/1.1/DTD/svg11.dtd"><svg t="1705977387941" class="icon" viewBox="0 0 1024 1024" version="1.1" xmlns="http://www.w3.org/2000/svg" p-id="2531" xmlns:xlink="http://www.w3.org/1999/xlink" width="200" height="200"><path d="M284.41666638 529.50000029h75.00000058a18.74999971 18.74999971 0 0 0 0-37.50000029h-75.00000058A93.86250029 93.86250029 0 0 0 190.66666696 585.75000029v74.99999971C190.66666696 712.46249971 232.74166696 754.50000029 284.41666638 754.50000029h75.00000058a18.74999971 18.74999971 0 0 0 0-37.50000029h-75.00000058c-31.01249971 0-56.25-25.23750029-56.25-56.25v-74.99999971c0-31.01249971 25.23750029-56.25 56.25-56.25zM480.76666667 529.50000029H546.91666667a18.74999971 18.74999971 0 0 1 18.74999971 18.74999971 18.74999971 18.74999971 0 0 0 37.50000029 0c0-31.01249971-25.23750029-56.25-56.25-56.25h-66.15c-35.8875 0-65.09999971 29.21249971-65.09999971 65.09999971 0 24.78750029 13.76250029 47.09999971 35.96249971 58.23750058l98.73749971 49.34999971A27.63749971 27.63749971 0 0 1 538.06666696 717H471.91666696a18.74999971 18.74999971 0 0 1-18.75000058-18.74999971 18.74999971 18.74999971 0 0 0-37.49999942 0c0 31.01249971 25.23750029 56.25 56.25 56.25h66.15c35.8875 0 65.09999971-29.21249971 65.09999971-65.10000058 0-24.78750029-13.76250029-47.09999971-35.96249971-58.23749971l-98.73750058-49.34999971A27.63749971 27.63749971 0 0 1 480.76666667 529.50000029zM791.64166696 504.825L734.41666638 676.46249971l-57.22499971-171.63749971a18.74999971 18.74999971 0 1 0-35.55 11.88749971l74.99999971 225a18.74999971 18.74999971 0 0 0 35.55-0.03749942l75.00000058-225a18.74999971 18.74999971 0 0 0-35.55-11.85000029z" fill="#2c2c2c" p-id="2532"></path><path d="M884.41666667 417.00000029H828.16666667V98.25a18.74999971 18.74999971 0 0 0-18.74999971-18.74999971h-412.50000058c-0.86249971 0-1.61250029 0.37500029-2.43749971 0.48749942a18.93750029 18.93750029 0 0 0-10.83750029 4.98750029l-187.49999971 187.49999971a18.97499971 18.97499971 0 0 0-4.98750029 10.87500058C191.04166638 284.17499971 190.66666696 284.92500029 190.66666696 285.74999971V417.00000029H134.41666696a18.74999971 18.74999971 0 0 0-18.75000058 18.74999971v375.00000029a18.74999971 18.74999971 0 0 0 18.75000058 18.74999971H190.66666696v93.75000029a18.74999971 18.74999971 0 0 0 18.74999971 18.74999971h600.00000029a18.74999971 18.74999971 0 0 0 18.74999971-18.74999971V829.5h56.25a18.74999971 18.74999971 0 0 0 18.74999971-18.74999971v-375.00000029a18.74999971 18.74999971 0 0 0-18.74999971-18.74999971zM378.16666667 143.51250029V267H254.67916696L378.16666667 143.51250029zM228.16666638 304.50000029h168.75a18.74999971 18.74999971 0 0 0 18.75000058-18.75000058V116.99999971h374.99999942v300.00000058H228.16666638V304.50000029z m562.5 599.99999942H228.16666638v-74.99999971h562.5v74.99999971z m75.00000058-112.5H153.16666667v-337.5h712.50000029v337.5z" fill="#2c2c2c" p-id="2533"></path></svg>