<?xml version="1.0" standalone="no"?><!DOCTYPE svg PUBLIC "-//W3C//DTD SVG 1.1//EN" "http://www.w3.org/Graphics/SVG/1.1/DTD/svg11.dtd"><svg t="1705988937629" class="icon" viewBox="0 0 1024 1024" version="1.1" xmlns="http://www.w3.org/2000/svg" p-id="2411" xmlns:xlink="http://www.w3.org/1999/xlink" width="200" height="200"><path d="M512 812.34000031a45 45 0 1 0 0-90 45 45 0 0 0 0 90zM512 932C280.4 932 92 743.6 92 512S280.4 92 512 92s420 188.4 420 420-188.4 420-420 420z m0-779.71999969C313.64 152.28000031 152.28000031 313.64 152.28000031 512c0 198.31999969 161.35999969 359.71999969 359.71999969 359.71999969 198.31999969 0 359.71999969-161.4 359.71999969-359.71999969 0-198.36-161.4-359.71999969-359.71999969-359.71999969z m0 511.32a30 30 0 0 1-30-30v-50.74000031c0-49.08 37.5-86.58 70.62-119.65999969 24.25999969-24.3 49.38-49.39999969 49.38-69.40000031 0-49.99999969-40.38-90.67999969-90-90.67999969-50.46 0-90 38.94-90 88.63999969a30 30 0 0 1-60 0c0-81.96 67.27999969-148.63999969 150-148.63999969s150 67.57999969 150 150.67999969c0 44.89999969-34.06000031 78.94000031-66.96 111.84-26.1 26.04-53.04 52.98-53.04 77.20000031v50.71999969c0 16.56-13.44 30.04000031-30 30.04000031z" fill="#2c2c2c" p-id="2412"></path></svg>