<?xml version="1.0" standalone="no"?><!DOCTYPE svg PUBLIC "-//W3C//DTD SVG 1.1//EN" "http://www.w3.org/Graphics/SVG/1.1/DTD/svg11.dtd"><svg t="1705988934842" class="icon" viewBox="0 0 1024 1024" version="1.1" xmlns="http://www.w3.org/2000/svg" p-id="2262" xmlns:xlink="http://www.w3.org/1999/xlink" width="200" height="200"><path d="M512 92c231.6 0 420 188.4 420 420s-188.4 420-420 420S92 743.6 92 512 280.4 92 512 92z m0 60.25999969C313.64 152.25999969 152.28000031 313.64 152.28000031 512c0 198.31999969 161.35999969 359.71999969 359.71999969 359.71999969 198.31999969 0 359.71999969-161.4 359.71999969-359.71999969 0-198.36-161.4-359.71999969-359.71999969-359.71999969z m0 550.06000031a45 45 0 1 1 0 90 45 45 0 0 1 0-90zM512 252.00000031a30 30 0 0 1 30 30v319.99999969a30 30 0 0 1-60 0v-319.99999969A30 30 0 0 1 512 252.00000031z" fill="#2c2c2c" p-id="2263"></path></svg>