<?xml version="1.0" standalone="no"?><!DOCTYPE svg PUBLIC "-//W3C//DTD SVG 1.1//EN" "http://www.w3.org/Graphics/SVG/1.1/DTD/svg11.dtd"><svg t="1705995486106" class="icon" viewBox="0 0 1024 1024" version="1.1" xmlns="http://www.w3.org/2000/svg" p-id="3051" xmlns:xlink="http://www.w3.org/1999/xlink" width="200" height="200"><path d="M915.91015625 390.67578125c-62.28193359 0-112.75136719-50.77617188-112.75136719-113.36484375 0-19.94238281 5.29189453-39.65449219 15.11015625-56.91269531a17.64140625 17.64140625 0 0 0-6.51972656-24.00732422l-178.17714844-103.62304688a17.48759766 17.48759766 0 0 0-24.00820312 6.51884766 112.75136719 112.75136719 0 0 1-97.71679688 56.75976563c-42.8765625 0-81.534375-28.61015625-97.64121094-56.75976563a17.25820313 17.25820313 0 0 0-23.77792968-6.51972656l-178.33007813 103.62392578a17.71875 17.71875 0 0 0-6.51972656 24.00732422 113.97832031 113.97832031 0 0 1-41.03613281 155.09091797 111.29414063 111.29414063 0 0 1-56.37480469 15.11015625 17.64140625 17.64140625 0 0 0-17.48759766 17.64052734v207.32431641c0 9.74091797 7.82314453 17.64140625 17.48759766 17.64140625 62.28105469 0 112.75136719 50.77617188 112.75136719 113.51777343 0 19.94238281-5.29277344 39.57802734-15.03369141 56.75976563a17.64140625 17.64140625 0 0 0 6.44238281 24.08378906l178.25449219 103.62304688c8.4375 4.98603516 19.02216797 1.91777344 23.93085938-6.51884766a112.36816406 112.36816406 0 0 1 195.35800781 0 17.64140625 17.64140625 0 0 0 24.00820312 6.51972656l178.25361329-103.62392578a17.64140625 17.64140625 0 0 0 6.44238281-24.00732422 113.97832031 113.97832031 0 0 1 41.1890625-155.16738281c17.10439453-10.04765625 36.58710937-15.34042969 56.52949219-15.1875a17.64140625 17.64140625 0 0 0 17.48759765-17.64052734V408.47011719a18.17841797 18.17841797 0 0 0-17.87167969-17.64140625zM512.07558594 658.36425781a145.88613281 145.88613281 0 0 1-145.3491211-146.34667968c0-80.76708984 65.19638672-146.34667969 145.3491211-146.34667969s145.27265625 65.57958984 145.27265625 146.34667968-65.19638672 146.19287109-145.27265625 146.34667969z" fill="#2c2c2c" p-id="3052"></path></svg>