<?xml version="1.0" standalone="no"?><!DOCTYPE svg PUBLIC "-//W3C//DTD SVG 1.1//EN" "http://www.w3.org/Graphics/SVG/1.1/DTD/svg11.dtd"><svg t="1741576197583" class="icon" viewBox="0 0 1024 1024" version="1.1" xmlns="http://www.w3.org/2000/svg" p-id="3376" xmlns:xlink="http://www.w3.org/1999/xlink" width="200" height="200"><path d="M101.888 83.854c9.387 5.575 14.962 15.93 14.507 26.852v772.95h832.398a29.753 29.753 0 0 1 0 59.448H56.889V110.706a29.753 29.753 0 0 1 44.942-26.852z m408.064 127.204l1.48 5.234 84.991 424.846 58.311-310.727c5.063-27.08 40.733-31.175 52.85-8.647l2.048 4.892 50.404 151.21h150.186a28.444 28.444 0 0 1 27.99 23.325l0.455 5.12a28.444 28.444 0 0 1-23.325 27.99l-5.12 0.455h-166.57a34.133 34.133 0 0 1-30.265-18.319l-2.105-5.006-20.935-62.635-65.081 347.193c-5.405 28.843-44.374 30.891-54.272 5.69l-1.536-5.348-89.031-444.758-83.058 332.288c-6.997 28.047-45.34 28.331-54.272 3.186l-1.365-5.404-24.52-146.887H170.667a28.444 28.444 0 0 1-27.99-23.325l-0.455-5.12a28.444 28.444 0 0 1 23.325-27.99l5.12-0.454h165.83a34.133 34.133 0 0 1 32.37 23.21l1.309 5.291 5.177 30.89 80.611-322.275c6.884-27.591 44.374-28.444 53.988-3.982z" fill="#2c2c2c" p-id="3377"></path></svg>