<?xml version="1.0" standalone="no"?><!DOCTYPE svg PUBLIC "-//W3C//DTD SVG 1.1//EN" "http://www.w3.org/Graphics/SVG/1.1/DTD/svg11.dtd"><svg t="1705995488552" class="icon" viewBox="0 0 1024 1024" version="1.1" xmlns="http://www.w3.org/2000/svg" p-id="3196" xmlns:xlink="http://www.w3.org/1999/xlink" width="200" height="200"><path d="M512.00239813 93.20937969c-231.27999188 0-418.79253844 187.54228594-418.79253844 418.79253844 0 231.2943825 187.51254656 418.78774219 418.79253843 418.78774218 231.26943937 0 418.78678219-187.49335969 418.78678219-418.78774218C930.78918125 280.75166656 743.2718375 93.20937969 512.00239813 93.20937969L512.00239813 93.20937969zM522.25304844 241.19480562c37.62281156 0 68.06009531 30.50155969 68.06009531 68.04090844 0 37.62664875-30.43824281 68.08791656-68.06009531 68.08791656-37.53838875 0-68.06201437-30.46126687-68.06201438-68.08791656C454.18623781 271.69636625 484.71465969 241.19480562 522.25304844 241.19480562L522.25304844 241.19480562zM643.24813344 755.07423594L415.33833688 755.07423594l0-29.86263282 28.53969-10.54421062c15.97604813-5.87026031 26.61043781-21.14694281 26.61043781-38.12071406L470.48846469 515.55630875c0-17.00351156-10.6305525-32.25045375-26.61043782-38.09481188l-28.53969-10.56819468 0-30.50539688 172.73472563 0 0 240.16165032c0 16.96993406 10.63247156 32.25045375 26.64017812 38.11687687l28.53585282 10.54804875L643.24909344 755.07423594 643.24813344 755.07423594zM643.24813344 755.07423594" fill="#2c2c2c" p-id="3197"></path></svg>