<?xml version="1.0" standalone="no"?><!DOCTYPE svg PUBLIC "-//W3C//DTD SVG 1.1//EN" "http://www.w3.org/Graphics/SVG/1.1/DTD/svg11.dtd"><svg t="1705972758338" class="icon" viewBox="0 0 1024 1024" version="1.1" xmlns="http://www.w3.org/2000/svg" p-id="1384" xmlns:xlink="http://www.w3.org/1999/xlink" width="200" height="200"><path d="M853.333333 213.333333h-170.666666v170.666667h42.666666v42.666667c0 22.186667-12.672 31.018667-91.818666 43.178666-24.021333 3.669333-52.352 8.149333-78.848 17.152V256h85.333333l-128-170.666667-128 170.666667h85.333333v316.330667c-26.496-8.96-54.826667-13.482667-78.848-17.152C311.338667 543.018667 298.666667 534.186667 298.666667 512v-11.818667c25.344-14.848 42.666667-42.026667 42.666666-73.514666a85.290667 85.290667 0 1 0-170.666666 0c0 31.488 17.322667 58.666667 42.666666 73.514666V512c0 102.186667 98.816 117.504 164.181334 127.488C456.661333 651.648 469.333333 660.48 469.333333 682.666667v7.850666A127.573333 127.573333 0 0 0 384 810.666667a128 128 0 0 0 256 0 127.573333 127.573333 0 0 0-85.333333-120.149334V597.333333c0-22.186667 12.672-31.018667 91.818666-43.178666C711.850667 544.170667 810.666667 528.853333 810.666667 426.666667V384h42.666666z" fill="#2c2c2c" p-id="1385"></path></svg>