<?xml version="1.0" standalone="no"?><!DOCTYPE svg PUBLIC "-//W3C//DTD SVG 1.1//EN" "http://www.w3.org/Graphics/SVG/1.1/DTD/svg11.dtd"><svg t="1705975102144" class="icon" viewBox="0 0 1024 1024" version="1.1" xmlns="http://www.w3.org/2000/svg" p-id="3016" xmlns:xlink="http://www.w3.org/1999/xlink" width="200" height="200"><path d="M792.00000031 111.99999969H231.99999969a120 120 0 0 0-120 120v560.00000062a120 120 0 0 0 120 120h560.00000062a120 120 0 0 0 120-120V231.99999969a120 120 0 0 0-120-120z m39.99999938 680.00000062a40.00000031 40.00000031 0 0 1-39.99999938 39.99999938H231.99999969a40.00000031 40.00000031 0 0 1-39.99999938-39.99999938V231.99999969a40.00000031 40.00000031 0 0 1 39.99999938-39.99999938h560.00000062a40.00000031 40.00000031 0 0 1 39.99999938 39.99999938z" fill="#2c2c2c" p-id="3017"></path><path d="M272 312.00000031m40.00000031 0l399.99999938 0q40.00000031 0 40.00000031 39.99999938l0 0q0 40.00000031-40.00000031 40.00000031l-399.99999938 0q-40.00000031 0-40.00000031-40.00000031l0 0q0-40.00000031 40.00000031-39.99999938Z" fill="#2c2c2c" p-id="3018"></path><path d="M272 471.99999969m40.00000031 0l319.99999969 0q40.00000031 0 40.00000031 40.00000031l0 0q0 40.00000031-40.00000031 40.00000031l-319.99999969 0q-40.00000031 0-40.00000031-40.00000031l0 0q0-40.00000031 40.00000031-40.00000031Z" fill="#2c2c2c" p-id="3019"></path><path d="M272 632m40.00000031 0l240 0q40.00000031 0 39.99999938 40.00000031l0 0q0 40.00000031-39.99999938 39.99999938l-240 0q-40.00000031 0-40.00000031-39.99999938l0 0q0-40.00000031 40.00000031-40.00000031Z" fill="#2c2c2c" p-id="3020"></path></svg>