<?xml version="1.0" standalone="no"?><!DOCTYPE svg PUBLIC "-//W3C//DTD SVG 1.1//EN" "http://www.w3.org/Graphics/SVG/1.1/DTD/svg11.dtd"><svg t="1705906303163" class="icon" viewBox="0 0 1024 1024" version="1.1" xmlns="http://www.w3.org/2000/svg" p-id="1390" xmlns:xlink="http://www.w3.org/1999/xlink" width="200" height="200"><path d="M312.790625 132.3125c0-23.2875 17.8453125-42.1875 39.825-42.1875 22.021875 0 39.8671875 18.9 39.8671875 42.1875v42.1875h239.034375V132.3125c0-23.2875 17.8453125-42.1875 39.8671875-42.1875 21.9796875 0 39.825 18.9 39.825 42.1875v42.1875h39.8671875C817.1 174.5 870.59375 231.1578125 870.59375 301.0625v506.25c0 69.9046875-53.49375 126.5625-119.5171875 126.5625H272.9234375C206.984375 933.875 153.40625 877.2171875 153.40625 807.3125V301.0625c0-69.9046875 53.5359375-126.5625 119.5171875-126.5625h39.8671875V132.3125z m358.59375 126.5625H272.9234375c-21.9796875 0-39.825 18.9-39.825 42.1875H790.859375c0-23.2875-17.8453125-42.1875-39.825-42.1875h-79.734375zM233.05625 385.4375v421.875c0 23.2875 17.8875 42.1875 39.8671875 42.1875h478.153125c21.9796875 0 39.825-18.9 39.825-42.1875V385.4375H233.140625zM476.140625 436.0625c17.5921875 13.9640625 21.178125 40.415625 7.9734375 59.0625l-11.9390625 16.875h159.3421875c22.021875 0 39.8671875 18.9 39.8671875 42.1875s-17.8453125 42.1875-39.8671875 42.1875H392.4828125a39.65625 39.65625 0 0 1-35.6484375-23.3296875 44.2546875 44.2546875 0 0 1 3.796875-44.1703125l59.7375-84.375a38.390625 38.390625 0 0 1 55.771875-8.4375z m63.7453125 303.75a43.875 43.875 0 0 0 7.9734375 59.0625 38.390625 38.390625 0 0 0 55.771875-8.4375l59.7796875-84.375a44.296875 44.296875 0 0 0 3.796875-44.1703125 39.65625 39.65625 0 0 0-35.690625-23.3296875H392.4828125c-22.021875 0-39.8671875 18.9-39.8671875 42.1875s17.8453125 42.1875 39.8671875 42.1875h159.3421875l-11.9390625 16.875z" fill="#2c2c2c" p-id="1391"></path></svg>