<?xml version="1.0" standalone="no"?><!DOCTYPE svg PUBLIC "-//W3C//DTD SVG 1.1//EN" "http://www.w3.org/Graphics/SVG/1.1/DTD/svg11.dtd"><svg t="1705973215638" class="icon" viewBox="0 0 1024 1024" version="1.1" xmlns="http://www.w3.org/2000/svg" p-id="1914" xmlns:xlink="http://www.w3.org/1999/xlink" width="200" height="200"><path d="M339.30263143 758.71052607c-40.87993392 0-74.01315751-33.13322359-74.0131575-74.0131575s33.13322359-74.01315751 74.0131575-74.0131583c2.17105284 0 4.34210492 0.12335518 6.46381587 0.29605305l79.56414519-132.6069084c-7.59868458-11.59539453-12.01480277-25.4851971-12.01480276-40.38651243 0-40.87993392 33.13322359-74.01315751 74.0131575-74.01315828s74.01315751 33.13322359 74.01315829 74.01315828c0 14.90131611-4.41611819 28.79111867-12.01480276 40.38651243l79.56414442 132.6069084a79.88332618 79.88332618 0 0 1 6.46381585-0.29605305c1.65296078 0 3.28125022 0.07401326 4.88486833 0.17269787l131.34868449-229.83552633A73.75102776 73.75102776 0 0 1 758.71052607 339.30263143c0-40.87993392 33.13322359-74.01315751 74.01315828-74.0131575s74.01315751 33.13322359 74.01315751 74.0131575-33.13322359 74.01315751-74.01315751 74.0131583a79.36369225 79.36369225 0 0 1-4.88486833-0.17269787l-131.34868448 229.83552633A73.75102776 73.75102776 0 0 1 709.36842132 684.69736857c0 40.87993392-33.13322359 74.01315751-74.01315829 74.0131575s-74.01315751-33.13322359-74.01315751-74.0131575a73.60916945 73.60916945 0 0 1 12.01480199-40.41118456l-79.56414442-132.58223628a79.88332618 79.88332618 0 0 1-6.46381585 0.29605227c-2.17105284 0-4.34210492-0.12335518-6.46381585-0.29605227l-79.56414442 132.60690761c7.59868458 11.59539453 12.01480277 25.4851971 12.01480276 40.38651323 0 40.87993392-33.13322359 74.01315751-74.01315829 74.0131575z m-123.35526301 49.34210551h690.78947344v98.68421028H117.26315814V117.26315814h98.68421027v690.78947345z" fill="#2c2c2c" p-id="1915"></path></svg>