<?xml version="1.0" standalone="no"?><!DOCTYPE svg PUBLIC "-//W3C//DTD SVG 1.1//EN" "http://www.w3.org/Graphics/SVG/1.1/DTD/svg11.dtd"><svg t="1707127903641" class="icon" viewBox="0 0 1024 1024" version="1.1" xmlns="http://www.w3.org/2000/svg" p-id="2907" xmlns:xlink="http://www.w3.org/1999/xlink" width="200" height="200"><path d="M467.4888889 930.11111111H194.8588889c-30.33 0-55-24.48-55-54.56V217.11111111c0-30.08 24.67-54.56 55-54.56H293.4888889v70h-83.63V860.11111111H467.4888889zM781.8888889 382.27111111h-70V232.55111111h-55.68v-70h70.68c30.33 0 55 24.48 55 54.56z" fill="#2c2c2c" p-id="2908"></path><path d="M269.1388889 359.09111111h232.04v70H269.1388889zM269.1388889 511.01111111h171.78v70H269.1388889zM610.6888889 272.72111111H323.9088889A44.82 44.82 0 0 1 279.1388889 227.91111111v-92a44.82 44.82 0 0 1 44.77-44.77H610.6888889a44.82 44.82 0 0 1 44.8 44.83v92a44.82 44.82 0 0 1-44.8 44.75z m-261.55-70H585.4888889v-41.52H349.1388889zM861.5488889 947.56111111H563.2288889a50.77 50.77 0 0 1-40.07-19.34 49.91 49.91 0 0 1-9.51-42.72l66.63-281.34-55-99.17a49.75 49.75 0 0 1 0.64-49.82 51.21 51.21 0 0 1 44-25h286.16a50.78 50.78 0 0 1 43.11 23.61 50 50 0 0 1 3 48.26L854.4888889 603.48111111l57 283.7A50 50 0 0 1 901.0888889 928.91111111a50.91 50.91 0 0 1-39.54 18.65z m-274.06-70h250.7l-53.6-266.73a49.82 49.82 0 0 1 3.8-31.23l37.37-79.47H602.6388889L645.2088889 576.91111111a50 50 0 0 1 4.95 35.89z" fill="#2c2c2c" p-id="2909"></path></svg>