<?xml version="1.0" standalone="no"?><!DOCTYPE svg PUBLIC "-//W3C//DTD SVG 1.1//EN" "http://www.w3.org/Graphics/SVG/1.1/DTD/svg11.dtd"><svg t="1705918254296" class="icon" viewBox="0 0 1024 1024" version="1.1" xmlns="http://www.w3.org/2000/svg" p-id="1354" xmlns:xlink="http://www.w3.org/1999/xlink" width="200" height="200"><path d="M831.99999969 672.00000031a120 120 0 0 0-69.19999969 22.39999969l-97.99999969-58.00000031A149.59999969 149.59999969 0 0 0 672.00000031 591.99999969a160.00000031 160.00000031 0 0 0-120-154.39999969V344.79999969a120 120 0 1 0-80.00000062 0v92.80000031A160.00000031 160.00000031 0 0 0 351.99999969 591.99999969c0.16000031 15.07999969 2.56000031 30.04000031 7.2 44.4l-97.99999969 58.00000031A120 120 0 0 0 192.00000031 672.00000031a120 120 0 1 0 120 120 120 120 0 0 0-4.8-32.00000062l91.99999969-54.79999969a160.00000031 160.00000031 0 0 0 225.6 0l91.99999969 54.79999969A120 120 0 1 0 831.99999969 672.00000031zM192.00000031 831.99999969a40.00000031 40.00000031 0 1 1 0-79.99999969 40.00000031 40.00000031 0 0 1 0 79.99999969z m319.99999969-639.99999938a40.00000031 40.00000031 0 1 1 0 79.99999969 40.00000031 40.00000031 0 0 1 0-79.99999969z m0 480a79.99999969 79.99999969 0 1 1 0-160.00000031 79.99999969 79.99999969 0 0 1 0 160.00000031z m319.99999969 159.99999938a40.00000031 40.00000031 0 1 1 0-79.99999969 40.00000031 40.00000031 0 0 1 0 79.99999969z" fill="#2c2c2c" p-id="1355"></path></svg>