<?xml version="1.0" standalone="no"?><!DOCTYPE svg PUBLIC "-//W3C//DTD SVG 1.1//EN" "http://www.w3.org/Graphics/SVG/1.1/DTD/svg11.dtd"><svg t="1705975089083" class="icon" viewBox="0 0 1024 1024" version="1.1" xmlns="http://www.w3.org/2000/svg" p-id="2727" xmlns:xlink="http://www.w3.org/1999/xlink" width="200" height="200"><path d="M632.09374973 101.9375c7.59375 0 14.90625027 2.53125 20.81250027 7.03124973l3.375 3.09375027 165.65624973 165.65624973c8.4375 8.4375 13.5 19.40625 14.62500054 31.21875l0.28124973 5.0625v163.6875c0 17.99999973-14.06250027 32.90625-32.0625 34.03125054-17.99999973 1.12499973-33.75-12.09374973-36.00000027-30.09375027l-0.28124973-3.93750027V321.03125027l-150.75000027-150.75000027H222.31250027v682.87499973h273.09374946c17.43750027 0 31.78125027 12.93749973 34.03125054 30.09375027l0.28124973 3.93750027c0 17.43750027-12.93749973 31.78125027-30.09375027 34.03124973l-3.93749946 0.28124973H205.15624973c-26.43749973 0-48.37499973-19.96875027-50.90624973-46.40625l-0.28124973-4.78124946v-717.1875c0-26.43749973 19.96875027-48.37499973 46.40625-50.90625054l4.78124946-0.28124973h426.9375z m0 0" fill="#2c2c2c" p-id="2728"></path><path d="M495.68750027 927.125H205.15624973c-29.53125 0-53.71875027-22.21874973-56.53125-51.46875l-0.28124973-5.0625v-717.1875C148.34375 123.875 170.28125 99.40625 199.8125 96.59375027l5.0625-0.28125054h426.9375c8.71874973 0 17.43750027 2.81249973 24.18750027 8.15625027l0.28124973 0.28124973 3.65624973 3.375 165.65625054 165.65625054c9.28125 9.28125 15.1875 21.65625027 16.31249973 34.59375v0.28124973l0.28124973 5.0625v163.96874973c0 21.09375-16.59375027 38.53125027-37.40624973 39.65625-21.09375 1.12499973-39.37500027-14.06250027-41.90625027-35.15624946v-0.28125054l-0.28124973-4.21875V323.28124973l-147.37500027-147.37499946H227.93749973v671.34374946h267.46875c20.25 0 37.125 15.1875 39.65625 35.15625027v0.28124973l0.28125054 4.21875c0 20.25-15.1875 37.125-35.15625027 39.65625h-0.28124973l-4.21875 0.56250027zM205.15624973 107.84375l-4.49999973 0.28124973c-23.34375027 1.96874973-41.06250027 21.65625027-41.06250027 45.00000054v716.90624946l0.28125054 4.78125027c2.25000027 23.06249973 21.65625027 40.78124973 45.28124946 40.78124973H495.125l3.65624973-0.28124973c14.06250027-1.6875 24.74999973-13.78124973 25.03125027-28.12499973l-0.28124973-3.65625054c-1.6875-14.34375-13.78124973-25.03125027-28.12500054-25.03124946H216.6875V164.65624973h403.59374973l154.12500027 154.12500027v158.90624973l0.28124973 3.65625054c1.96874973 14.90625027 14.90625027 25.87500027 29.81250054 24.74999973 14.90625027-0.84375 26.71875027-13.21875027 26.71874946-28.40625027V313.99999973l-0.28124973-4.49999973c-1.12499973-10.40624973-5.62500027-20.25-13.21875027-27.56250027L652.34374973 116.28125l-3.09374946-2.81249973c-4.78125027-3.65624973-10.96875-5.62500027-17.15625054-5.62500027H205.15624973z" fill="#2c2c2c" p-id="2729"></path><path d="M711.125 544.90625c-65.24999973 0-125.43750027 34.87499973-158.06249973 91.125a182.43843723 182.43843723 0 0 0 0 182.53124973c32.62500027 56.53125 92.8125 91.125 158.06249973 91.125 100.68749973 0 182.53124973-81.84375 182.53124973-182.53124973 0-100.40625-81.84375-182.25-182.53124973-182.25z m0 66.37500027c64.125 0 116.15625027 52.03125027 116.15625027 116.15624946 0 64.125-52.03125027 116.15625027-116.15625027 116.15625027-64.125 0-116.15625027-52.03125027-116.15625027-116.15625027 0-64.125 52.03125027-116.15625027 116.15625027-116.15624946z m0 0" fill="#2c2c2c" p-id="2730"></path><path d="M711.125 915.59374973c-66.93749973 0-129.37499973-36.00000027-162.84375-93.93749973-33.46875027-57.93750027-33.46875027-129.9375 0-188.15625 33.46875027-57.93750027 95.90625027-93.93749973 162.84375-93.93749973 103.78125 0 188.15625 84.375 188.15625 188.15625s-84.65624973 187.87500027-188.15625 187.87499946z m0-365.06249946c-63.00000027 0-121.78124973 34.03124973-153.28125027 88.59375-31.49999973 54.56250027-31.49999973 122.34375 0 176.90624946s90.28125 88.59375 153.28125027 88.59375c97.59375027 0 176.90625027-79.3125 176.90625027-176.90624946s-79.3125-177.1875-176.90625027-177.1875z m0 298.6875c-67.21875027 0-121.78124973-54.56250027-121.78124973-121.78125054s54.56250027-121.78124973 121.78124973-121.78124973 121.78124973 54.56250027 121.78124973 121.78124973c-0.28124973 67.21875027-54.84375 121.78124973-121.78124973 121.78125054z m0-232.31250054c-61.03124973 0-110.53125 49.50000027-110.53125 110.53125 0 61.03124973 49.50000027 110.53125 110.53125 110.53125 61.03124973 0 110.53125-49.50000027 110.53125-110.53125 0-61.03124973-49.50000027-110.53125-110.53125-110.53125z" fill="#2c2c2c" p-id="2731"></path><path d="M694.53124973 644.46875c16.875 0 30.93750027 12.65625 32.90625 29.25000027l0.28125054 3.93749946V728.56250027l24.18749946 25.87499946c11.53125027 12.09374973 12.09374973 30.93750027 1.40625027 43.875l-2.81249973 3.09375027c-12.09374973 11.53125027-30.93750027 12.09374973-43.875 1.40625027l-3.09375027-2.81250054-33.18749973-35.4375c-4.78125027-5.0625-7.87499973-11.53125027-8.71875054-18.5625l-0.28124973-4.21875v-64.125c0-18.28125027 14.90625027-33.18749973 33.18749973-33.18749973z m0 0" fill="#2c2c2c" p-id="2732"></path><path d="M727.71875027 816.03124973c-8.71874973 0-17.43750027-2.81249973-24.75000054-8.99999946l-0.28124973-0.28125054-3.375-3.09374946-33.18749973-35.4375c-5.62500027-5.90625-9.00000027-13.5-10.125-21.65625027v-0.28124973l-0.28125054-4.50000054v-64.125c0-21.37499973 17.43750027-38.8125 38.8125-38.8125 19.68749973 0 36.28125 14.62499973 38.53125027 34.31250027v0.28124973l0.28124973 4.21875v48.65625027l22.78125 24.18750027c13.21875027 14.06250027 14.06250027 36.28125 1.6875 51.18749946l-0.28124973 0.28125054-3.09375027 3.375c-7.59375 7.03124973-17.15624973 10.68750027-26.71874946 10.68749946z m-17.43750027-17.43749946c10.68750027 8.71874973 26.15625 8.15625027 36.28125-1.12500054l2.53125-2.81249973c8.71874973-10.68750027 8.15625027-26.43749973-1.12499973-36.28125l-25.59375054-27.56250027V677.93750027l-0.28124973-3.65625054c-1.6875-13.78124973-13.5-24.18750027-27.56250027-24.18749946-15.1875 0-27.56250027 12.37500027-27.56249946 27.56249946v63.84375027l0.28124973 3.65624973c0.84375 5.62500027 3.375 10.96875 7.31250027 15.1875l33.18749973 35.4375 2.53125 2.81250054z" fill="#2c2c2c" p-id="2733"></path><path d="M329.46875027 511.71875027h165.93749946v66.37499946h-165.93749946v-66.37499946z m0-132.75000054h331.87499973v66.37500027h-331.87499973v-66.37500027z m0 265.50000027h132.74999973v66.37500027H329.46875027v-66.37500027z m0 0" fill="#2c2c2c" p-id="2734"></path><path d="M467.84375027 716.46874973H323.84375v-77.34374946h143.71874973v77.34374946z m-132.75000054-11.24999973h121.78125054V649.81249973H335.09374973v55.40625027z m165.93750027-121.5h-177.1875V506.37499973H500.75000027v77.34375027z m-165.93750027-11.24999973h154.68750054v-55.40625027h-154.68750054v55.40625027z m331.87500054-121.5h-343.12500027v-77.34375027H666.68749973v77.34375027z m-331.87500054-11.25000054h320.625v-55.40624946h-320.625v55.40624946z" fill="#2c2c2c" p-id="2735"></path></svg>