<?xml version="1.0" standalone="no"?><!DOCTYPE svg PUBLIC "-//W3C//DTD SVG 1.1//EN" "http://www.w3.org/Graphics/SVG/1.1/DTD/svg11.dtd"><svg t="1705975112988" class="icon" viewBox="0 0 1024 1024" version="1.1" xmlns="http://www.w3.org/2000/svg" p-id="3301" xmlns:xlink="http://www.w3.org/1999/xlink" width="200" height="200"><path d="M246.058667 189.653333a42.666667 42.666667 0 1 0-76.416-37.973333l76.373333 37.973333z m-76.416 682.666667a42.666667 42.666667 0 1 0 76.373333-37.973333l-76.373333 37.973333z m602.837333-37.973333a42.666667 42.666667 0 0 0 76.373333 37.973333l-76.373333-37.973333z m76.373333-682.666667a42.666667 42.666667 0 0 0-76.373333 37.973333l76.373333-37.973333zM384 341.333333a42.666667 42.666667 0 0 0 0 85.333334V341.333333z m94.165333 73.6l-41.002666 11.733334 41.002666-11.733334z m67.669334 236.8l-41.045334 11.690667 41.045334-11.690667zM640 725.333333a42.666667 42.666667 0 1 0 0-85.333333v85.333333z m42.666667-298.666666a42.666667 42.666667 0 1 0 0-85.333334v85.333334z m-68.224-12.885334l32.426666 27.776-32.426666-27.733333zM409.6 652.885333l32.384 27.733334-32.426667-27.733334zM341.333333 640a42.666667 42.666667 0 1 0 0 85.333333v-85.333333z m-170.666666-128c0-115.882667 27.136-225.28 75.392-322.346667l-76.416-37.973333A807.509333 807.509333 0 0 0 85.333333 512h85.333334z m75.392 322.346667A722.176 722.176 0 0 1 170.666667 512H85.333333c0 129.322667 30.293333 251.733333 84.309334 360.32l76.373333-37.973333zM847.786667 512c0 115.882667-27.136 225.28-75.349334 322.346667l76.373334 37.973333A807.509333 807.509333 0 0 0 933.205333 512h-85.333333z m-75.349334-322.346667A722.133333 722.133333 0 0 1 847.786667 512h85.333333c0-129.365333-30.293333-251.733333-84.266667-360.32l-76.416 37.973333zM384 426.666667h53.162667V341.333333H384v85.333334z m53.162667 0l67.626666 236.8 82.048-23.466667-67.626666-236.8-82.048 23.466667z m149.674666 298.666666H640v-85.333333h-53.162667v85.333333z m-82.048-61.866666A85.333333 85.333333 0 0 0 586.837333 725.333333v-85.333333l-82.048 23.466667zM437.162667 426.666667l82.048-23.466667A85.333333 85.333333 0 0 0 437.162667 341.333333v85.333334zM682.666667 341.333333h-3.413334v85.333334H682.666667V341.333333z m-100.608 44.714667L377.173333 625.066667l64.810667 55.509333 204.928-239.061333-64.810667-55.509334zM344.746667 640H341.333333v85.333333h3.413334v-85.333333z m32.426666-14.933333a42.666667 42.666667 0 0 1-32.426666 14.933333v85.333333a128 128 0 0 0 97.194666-44.714666l-64.810666-55.509334zM679.253333 341.333333a128 128 0 0 0-97.194666 44.714667l64.810666 55.509333A42.666667 42.666667 0 0 1 679.253333 426.666667V341.333333z" fill="#2c2c2c" p-id="3302"></path></svg>