<?xml version="1.0" standalone="no"?><!DOCTYPE svg PUBLIC "-//W3C//DTD SVG 1.1//EN" "http://www.w3.org/Graphics/SVG/1.1/DTD/svg11.dtd"><svg t="1705973221599" class="icon" viewBox="0 0 1024 1024" version="1.1" xmlns="http://www.w3.org/2000/svg" p-id="2053" xmlns:xlink="http://www.w3.org/1999/xlink" width="200" height="200"><path d="M635.67500029 677.15H388.32499971c-23.5125 0-41.47499971-18-41.47499971-41.47499971V388.32499971c0-23.5125 18-41.47499971 41.47499971-41.47499971h247.35000058c23.5125 0 41.47499971 18 41.47499971 41.47499971v247.35000058c0 23.5125-18 41.47499971-41.47499971 41.47499971z m-205.875-82.9125h164.43749971V429.7625H429.7625v164.475z" fill="#2c2c2c" p-id="2054"></path><path d="M760.0625 429.7625h-124.38749971c-23.47499971 0-41.43750029-17.96249971-41.43750029-41.43750029V263.9375A166.31250029 166.31250029 0 0 1 760.0625 98.1125a166.31250029 166.31250029 0 0 1 165.825 165.825C924.49999971 355.13749971 849.87500029 429.7625 760.0625 429.7625z m-82.9125-82.87499971h82.87499971a83.17500029 83.17500029 0 0 0 82.95000029-82.95000029 83.17500029 83.17500029 0 0 0-82.9125-82.87499971 83.17500029 83.17500029 0 0 0-82.9125 82.87499971v82.9125zM388.32499971 429.7625H263.9375A166.31250029 166.31250029 0 0 1 98.1125 263.9375C99.50000029 174.12499971 174.12499971 99.50000029 265.36249971 99.50000029a166.31250029 166.31250029 0 0 1 165.78750058 165.825V389.75000029a42.56250029 42.56250029 0 0 1-42.82500058 40.05z m-122.99999942-247.34999971a83.17500029 83.17500029 0 0 0-82.9125 82.9125c0 45.60000029 37.31249971 82.9125 82.9125 82.9125h82.9125v-82.87500058C346.85 219.68749971 309.53750029 182.375 265.36249971 182.375zM760.0625 924.49999971a166.31250029 166.31250029 0 0 1-165.825-165.825V634.24999971c0-23.47499971 17.96249971-41.43750029 41.43750029-41.43749942h124.38749971a166.31250029 166.31250029 0 0 1 165.825 165.825C924.49999971 849.87500029 849.87500029 924.49999971 760.0625 924.49999971z m-82.9125-247.34999971v82.87499971c0 45.63749971 37.31249971 82.95000029 82.87499971 82.95000029a83.17500029 83.17500029 0 0 0 82.95000029-82.9125 83.17500029 83.17500029 0 0 0-82.9125-82.9125h-82.9125zM265.32500029 924.49999971A166.31250029 166.31250029 0 0 1 99.50000029 758.67499971a166.31250029 166.31250029 0 0 1 165.825-165.825H389.75000029c23.47499971 0 41.43750029 17.96249971 41.43749942 41.43750029v124.38749971C429.7625 849.87500029 355.13749971 924.49999971 265.32500029 924.49999971z m0-247.34999971a83.1375 83.1375 0 0 0-82.87500058 82.87499971c0 45.63749971 37.27500029 82.95000029 82.87500058 82.95000029a83.17500029 83.17500029 0 0 0 82.9125-82.9125v-82.9125h-82.87500058z" fill="#2c2c2c" p-id="2055"></path></svg>