<?xml version="1.0" standalone="no"?><!DOCTYPE svg PUBLIC "-//W3C//DTD SVG 1.1//EN" "http://www.w3.org/Graphics/SVG/1.1/DTD/svg11.dtd"><svg t="1705975104631" class="icon" viewBox="0 0 1060 1024" version="1.1" xmlns="http://www.w3.org/2000/svg" p-id="3162" xmlns:xlink="http://www.w3.org/1999/xlink" width="207.03125" height="200"><path d="M923.7903385 186.1982073H472.46812732a135.47061722 135.47061722 0 0 0-259.24302795 0H130.46364517a40.33864517 40.33864517 0 1 0 0 80.67729035h82.69422364a135.53784861 135.53784861 0 0 0 259.24302795 0H923.7903385a40.33864517 40.33864517 0 0 0 0-80.67729035zM342.77938278 282.13695185a55.60009937 55.60009937 0 1 1 55.60009937-55.53286799 55.66733076 55.66733076 0 0 1-55.53286881 55.53286798zM923.7903385 484.23356601h-109.99003958a135.47061722 135.47061722 0 0 0-259.24302795 0H130.46364517a40.33864517 40.33864517 0 1 0 0 80.67729034h424.0263944a135.53784861 135.53784861 0 0 0 259.24302796 1e-8H923.7903385a40.33864517 40.33864517 0 0 0 0-80.67729035zM684.11155356 580.10507998a55.53286881 55.53286881 0 1 1 55.60010019-55.60010019 55.60009937 55.60009937 0 0 1-55.53286881 55.60010019z m239.67878494 195.37350541H476.90537808a135.87400387 135.87400387 0 0 0-268.3192228 0H130.46364517a40.33864517 40.33864517 0 1 0 0 80.67729117h89.68625546a135.53784861 135.53784861 0 0 0 244.92280821 0H923.7903385a40.33864517 40.33864517 0 0 0 0-80.67729117z m-581.01095572 77.5846615a55.60009937 55.60009937 0 1 1 55.60009937-55.60009936 55.73456213 55.73456213 0 0 1-55.53286881 55.60009936z" fill="#2c2c2c" p-id="3163"></path></svg>