<?xml version="1.0" standalone="no"?><!DOCTYPE svg PUBLIC "-//W3C//DTD SVG 1.1//EN" "http://www.w3.org/Graphics/SVG/1.1/DTD/svg11.dtd"><svg t="1706248586561" class="icon" viewBox="0 0 1024 1024" version="1.1" xmlns="http://www.w3.org/2000/svg" p-id="4230" xmlns:xlink="http://www.w3.org/1999/xlink" width="200" height="200"><path d="M725.333333 752.597333v21.632a160.170667 160.170667 0 0 1-41.557333 107.776 42.666667 42.666667 0 0 1-63.232-57.344A74.837333 74.837333 0 0 0 640 774.229333v-21.632a114.56 114.56 0 0 0-86.869333-111.701333 27.690667 27.690667 0 0 0-20.309334 2.474667 265.685333 265.685333 0 0 1-254.592 0 27.605333 27.605333 0 0 0-20.693333-2.688A114.56 114.56 0 0 0 170.666667 752.597333v21.632a74.922667 74.922667 0 0 0 19.456 50.432 42.666667 42.666667 0 1 1-63.232 57.344A160.170667 160.170667 0 0 1 85.333333 774.229333v-21.632a199.850667 199.850667 0 0 1 151.637334-194.56 114.901333 114.901333 0 0 1 82.688 10.922667 179.2 179.2 0 0 0 171.733333-0.213333 114.688 114.688 0 0 1 82.304-10.709334A199.850667 199.850667 0 0 1 725.333333 752.597333z m61.696-194.56a42.666667 42.666667 0 1 0-20.565333 82.858667A114.56 114.56 0 0 1 853.333333 752.597333v21.632a74.837333 74.837333 0 0 1-19.456 50.432 42.666667 42.666667 0 0 0 63.232 57.344A160.170667 160.170667 0 0 0 938.666667 774.229333v-21.632a199.850667 199.850667 0 0 0-151.637334-194.56zM192 341.333333a213.333333 213.333333 0 1 1 213.333333 213.333334 213.589333 213.589333 0 0 1-213.333333-213.333334z m85.333333 0a128 128 0 1 0 128-128 128 128 0 0 0-128 128z m554.666667 0a213.333333 213.333333 0 0 0-186.709333-211.669333 42.666667 42.666667 0 1 0-10.581334 84.650667 128 128 0 0 1 64 226.944 42.666667 42.666667 0 1 0 53.376 66.56A212.309333 212.309333 0 0 0 832 341.333333z" fill="#2c2c2c" p-id="4231"></path></svg>