<?xml version="1.0" standalone="no"?><!DOCTYPE svg PUBLIC "-//W3C//DTD SVG 1.1//EN" "http://www.w3.org/Graphics/SVG/1.1/DTD/svg11.dtd"><svg t="1706248584255" class="icon" viewBox="0 0 1024 1024" version="1.1" xmlns="http://www.w3.org/2000/svg" p-id="4085" xmlns:xlink="http://www.w3.org/1999/xlink" width="200" height="200"><path d="M392.20512867 275.692308h236.307692V216.615385h-236.307692V275.692308zM214.97435867 275.692308v590.76923h-14.76923a99.485538 99.485538 0 0 1-72.940308-30.444307A99.485538 99.485538 0 0 1 96.82051267 763.076923v-384c0-28.317538 10.161231-52.617846 30.444308-72.940308A99.485538 99.485538 0 0 1 200.20512867 275.692308H214.97435867z m546.461539 0v590.76923H259.28205167V275.692308H333.12820467V201.846154c0-12.327385 4.332308-22.764308 12.918154-31.389539 8.625231-8.625231 19.062154-12.918154 31.389539-12.918153h265.846154c12.327385 0 22.764308 4.332308 31.389538 12.918153 8.625231 8.625231 12.918154 19.062154 12.918154 31.389539V275.692308h73.846154zM923.89743567 379.076923v384c0 28.317538-10.161231 52.617846-30.444307 72.940308a99.485538 99.485538 0 0 1-72.940308 30.444307H805.74358967V275.692308h14.769231c28.317538 0 52.617846 10.161231 72.940308 30.444307 20.283077 20.322462 30.444308 44.622769 30.444307 72.940308z" fill="#2c2c2c" p-id="4086"></path></svg>