<?xml version="1.0" standalone="no"?><!DOCTYPE svg PUBLIC "-//W3C//DTD SVG 1.1//EN" "http://www.w3.org/Graphics/SVG/1.1/DTD/svg11.dtd"><svg t="1705997416976" class="icon" viewBox="0 0 1024 1024" version="1.1" xmlns="http://www.w3.org/2000/svg" p-id="3580" xmlns:xlink="http://www.w3.org/1999/xlink" width="200" height="200"><path d="M301.0625 195.59375h632.8125v105.46875H301.0625z" fill="#2c2c2c" p-id="3581"></path><path d="M301.0625 195.59375h632.8125v105.46875H301.0625z" fill="#2c2c2c" p-id="3582"></path><path d="M90.125 195.59375h105.46875v105.46875H90.125z" fill="#2c2c2c" p-id="3583"></path><path d="M90.125 195.59375h105.46875v105.46875H90.125z" fill="#2c2c2c" p-id="3584"></path><path d="M301.0625 459.265625h632.8125v105.46875H301.0625z" fill="#2c2c2c" p-id="3585"></path><path d="M301.0625 459.265625h632.8125v105.46875H301.0625z" fill="#2c2c2c" p-id="3586"></path><path d="M90.125 459.265625h105.46875v105.46875H90.125z" fill="#2c2c2c" p-id="3587"></path><path d="M90.125 459.265625h105.46875v105.46875H90.125z" fill="#2c2c2c" p-id="3588"></path><path d="M301.0625 722.9375h632.8125v105.46875H301.0625z" fill="#2c2c2c" p-id="3589"></path><path d="M301.0625 722.9375h632.8125v105.46875H301.0625z" fill="#2c2c2c" p-id="3590"></path><path d="M90.125 722.9375h105.46875v105.46875H90.125z" fill="#2c2c2c" p-id="3591"></path><path d="M90.125 722.9375h105.46875v105.46875H90.125z" fill="#2c2c2c" p-id="3592"></path></svg>