<?xml version="1.0" encoding="UTF-8"?>
<svg xmlns="http://www.w3.org/2000/svg" xmlns:xlink="http://www.w3.org/1999/xlink" width="18.75pt" height="18.75pt" viewBox="0 0 18.75 18.75" version="1.1">
<g id="surface4418">
<path style=" stroke:none;fill-rule:nonzero;fill:rgb(9.019608%,9.019608%,9.411765%);fill-opacity:1;" d="M 9 0.75 C 8.90625 0.75 8.816406 0.785156 8.742188 0.855469 L 6.46875 3.132812 C 6.238281 3.359375 6.402344 3.75 6.726562 3.75 L 8.25 3.75 L 8.25 16.5 C 8.246094 16.769531 8.386719 17.023438 8.621094 17.160156 C 8.855469 17.292969 9.144531 17.292969 9.378906 17.160156 C 9.613281 17.023438 9.753906 16.769531 9.75 16.5 L 9.75 3.75 L 11.273438 3.75 C 11.597656 3.75 11.761719 3.359375 11.53125 3.132812 L 9.257812 0.855469 C 9.183594 0.785156 9.09375 0.75 9 0.75 Z M 9 0.75 "/>
</g>
</svg>
