<?xml version="1.0" encoding="UTF-8"?>
<svg xmlns="http://www.w3.org/2000/svg" xmlns:xlink="http://www.w3.org/1999/xlink" width="18.75pt" height="18.75pt" viewBox="0 0 18.75 18.75" version="1.1">
<g id="surface4472">
<path style=" stroke:none;fill-rule:nonzero;fill:rgb(9.019608%,9.019608%,9.411765%);fill-opacity:1;" d="M 14.675781 6.367188 C 14.46875 6.332031 14.25 6.484375 14.25 6.726562 L 14.25 8.25 L 1.5 8.25 C 1.230469 8.246094 0.976562 8.386719 0.839844 8.621094 C 0.707031 8.855469 0.707031 9.144531 0.839844 9.378906 C 0.976562 9.613281 1.230469 9.753906 1.5 9.75 L 14.25 9.75 L 14.25 11.273438 C 14.25 11.597656 14.640625 11.761719 14.867188 11.53125 L 17.144531 9.257812 C 17.285156 9.113281 17.285156 8.886719 17.144531 8.742188 L 14.867188 6.46875 C 14.8125 6.410156 14.746094 6.378906 14.675781 6.367188 Z M 14.675781 6.367188 "/>
</g>
</svg>
