<?xml version="1.0" encoding="UTF-8"?>
<svg xmlns="http://www.w3.org/2000/svg" xmlns:xlink="http://www.w3.org/1999/xlink" width="18.75pt" height="18.75pt" viewBox="0 0 18.75 18.75" version="1.1">
<g id="surface4502">
<path style=" stroke:none;fill-rule:nonzero;fill:rgb(9.019608%,9.019608%,9.411765%);fill-opacity:1;" d="M 3.324219 6.367188 C 3.253906 6.378906 3.1875 6.410156 3.132812 6.46875 L 0.855469 8.742188 C 0.714844 8.886719 0.714844 9.113281 0.855469 9.257812 L 3.132812 11.53125 C 3.359375 11.761719 3.75 11.597656 3.75 11.273438 L 3.75 9.75 L 16.5 9.75 C 16.769531 9.753906 17.023438 9.613281 17.160156 9.378906 C 17.292969 9.144531 17.292969 8.855469 17.160156 8.621094 C 17.023438 8.386719 16.769531 8.246094 16.5 8.25 L 3.75 8.25 L 3.75 6.726562 C 3.75 6.484375 3.53125 6.332031 3.324219 6.367188 Z M 3.324219 6.367188 "/>
</g>
</svg>
