<?xml version="1.0" encoding="UTF-8"?>
<svg xmlns="http://www.w3.org/2000/svg" xmlns:xlink="http://www.w3.org/1999/xlink" width="18.75pt" height="18.75pt" viewBox="0 0 18.75 18.75" version="1.1">
<g id="surface4448">
<path style=" stroke:none;fill-rule:nonzero;fill:rgb(9.019608%,9.019608%,9.411765%);fill-opacity:1;" d="M 15.382812 1.597656 C 15.015625 1.585938 14.535156 1.59375 14.015625 1.648438 C 12.976562 1.757812 11.78125 2.003906 11.054688 2.730469 C 10.398438 3.386719 10.398438 4.464844 11.054688 5.121094 C 11.203125 5.269531 11.371094 5.355469 11.546875 5.421875 L 6.449219 10.5 L 3.75 10.5 C 3.480469 10.496094 3.226562 10.636719 3.089844 10.871094 C 2.957031 11.105469 2.957031 11.394531 3.089844 11.628906 C 3.226562 11.863281 3.480469 12.003906 3.75 12 L 4.945312 12 L 4.191406 12.75 L 2.25 12.75 C 1.980469 12.746094 1.726562 12.886719 1.589844 13.121094 C 1.457031 13.355469 1.457031 13.644531 1.589844 13.878906 C 1.726562 14.113281 1.980469 14.253906 2.25 14.25 L 3.75 14.25 L 3.75 15.75 C 3.746094 16.019531 3.886719 16.273438 4.121094 16.410156 C 4.355469 16.542969 4.644531 16.542969 4.878906 16.410156 C 5.113281 16.273438 5.253906 16.019531 5.25 15.75 L 5.25 13.8125 L 6 13.066406 L 6 14.25 C 5.996094 14.519531 6.136719 14.773438 6.371094 14.910156 C 6.605469 15.042969 6.894531 15.042969 7.128906 14.910156 C 7.363281 14.773438 7.503906 14.519531 7.5 14.25 L 7.5 11.570312 L 12.609375 6.480469 C 12.675781 6.660156 12.765625 6.832031 12.914062 6.980469 C 13.570312 7.636719 14.648438 7.636719 15.304688 6.980469 C 16.03125 6.253906 16.277344 5.058594 16.386719 4.019531 C 16.441406 3.5 16.449219 3.019531 16.441406 2.652344 C 16.433594 2.46875 16.421875 2.3125 16.40625 2.1875 C 16.398438 2.125 16.390625 2.074219 16.378906 2.019531 C 16.363281 1.964844 16.398438 1.925781 16.253906 1.78125 C 16.109375 1.640625 16.070312 1.671875 16.015625 1.65625 C 15.960938 1.644531 15.910156 1.636719 15.847656 1.628906 C 15.722656 1.613281 15.566406 1.601562 15.382812 1.597656 Z M 15.359375 2.34375 C 15.492188 2.347656 15.585938 2.359375 15.667969 2.367188 C 15.679688 2.453125 15.6875 2.542969 15.691406 2.675781 C 15.699219 3.007812 15.691406 3.460938 15.640625 3.945312 C 15.539062 4.90625 15.246094 5.980469 14.773438 6.449219 C 14.402344 6.820312 13.816406 6.820312 13.445312 6.449219 C 13.074219 6.078125 13.074219 5.492188 13.445312 5.121094 L 12.914062 4.589844 C 12.542969 4.960938 11.957031 4.960938 11.585938 4.589844 C 11.214844 4.21875 11.214844 3.632812 11.585938 3.261719 C 12.054688 2.789062 13.128906 2.496094 14.089844 2.398438 C 14.574219 2.347656 15.027344 2.335938 15.359375 2.34375 Z M 15.359375 2.34375 "/>
</g>
</svg>
