<?xml version="1.0" encoding="UTF-8"?>
<svg xmlns="http://www.w3.org/2000/svg" xmlns:xlink="http://www.w3.org/1999/xlink" width="18.75pt" height="18.75pt" viewBox="0 0 18.75 18.75" version="1.1">
<g id="surface4430">
<path style=" stroke:none;fill-rule:nonzero;fill:rgb(9.019608%,9.019608%,9.411765%);fill-opacity:1;" d="M 10.5 4.007812 C 10.308594 4.007812 10.117188 4.082031 9.96875 4.226562 L 9.90625 4.292969 C 9.613281 4.585938 9.613281 5.058594 9.90625 5.351562 L 12.800781 8.25 L 3 8.25 C 2.585938 8.25 2.25 8.585938 2.25 9 C 2.25 9.414062 2.585938 9.75 3 9.75 L 12.800781 9.75 L 9.90625 12.648438 C 9.613281 12.941406 9.613281 13.414062 9.90625 13.707031 L 9.96875 13.773438 C 10.261719 14.066406 10.738281 14.066406 11.03125 13.773438 L 15.273438 9.53125 C 15.566406 9.238281 15.566406 8.761719 15.273438 8.46875 L 11.03125 4.226562 C 10.882812 4.082031 10.691406 4.007812 10.5 4.007812 Z M 10.5 4.007812 "/>
</g>
</svg>
