<?xml version="1.0" encoding="UTF-8"?>
<svg xmlns="http://www.w3.org/2000/svg" xmlns:xlink="http://www.w3.org/1999/xlink" width="18.75pt" height="18.75pt" viewBox="0 0 18.75 18.75" version="1.1">
<g id="surface4394">
<path style=" stroke:none;fill-rule:nonzero;fill:rgb(9.019608%,9.019608%,9.411765%);fill-opacity:1;" d="M 7.5 4.007812 C 7.308594 4.007812 7.117188 4.082031 6.96875 4.226562 L 2.726562 8.46875 C 2.433594 8.761719 2.433594 9.238281 2.726562 9.53125 L 6.96875 13.773438 C 7.261719 14.066406 7.738281 14.066406 8.03125 13.773438 L 8.09375 13.707031 C 8.386719 13.414062 8.386719 12.941406 8.09375 12.648438 L 5.195312 9.75 L 15 9.75 C 15.414062 9.75 15.75 9.414062 15.75 9 C 15.75 8.585938 15.414062 8.25 15 8.25 L 5.195312 8.25 L 8.09375 5.351562 C 8.386719 5.058594 8.386719 4.585938 8.09375 4.292969 L 8.03125 4.226562 C 7.882812 4.082031 7.691406 4.007812 7.5 4.007812 Z M 7.5 4.007812 "/>
</g>
</svg>
