<?xml version="1.0" encoding="UTF-8"?>
<svg xmlns="http://www.w3.org/2000/svg" xmlns:xlink="http://www.w3.org/1999/xlink" width="18.75pt" height="18.75pt" viewBox="0 0 18.75 18.75" version="1.1">
<g id="surface4424">
<path style=" stroke:none;fill-rule:nonzero;fill:rgb(9.019608%,9.019608%,9.411765%);fill-opacity:1;" d="M 9 2.25 C 8.585938 2.25 8.25 2.585938 8.25 3 L 8.25 12.800781 L 5.351562 9.90625 C 5.058594 9.613281 4.585938 9.613281 4.292969 9.90625 L 4.226562 9.96875 C 3.933594 10.261719 3.933594 10.738281 4.226562 11.03125 L 8.46875 15.273438 C 8.761719 15.566406 9.238281 15.566406 9.53125 15.273438 L 13.773438 11.03125 C 14.066406 10.738281 14.066406 10.261719 13.773438 9.96875 L 13.707031 9.90625 C 13.414062 9.613281 12.941406 9.613281 12.648438 9.90625 L 9.75 12.800781 L 9.75 3 C 9.75 2.585938 9.414062 2.25 9 2.25 Z M 9 2.25 "/>
</g>
</svg>
