<?xml version="1.0" encoding="UTF-8"?>
<svg xmlns="http://www.w3.org/2000/svg" xmlns:xlink="http://www.w3.org/1999/xlink" width="18.75pt" height="18.75pt" viewBox="0 0 18.75 18.75" version="1.1">
<g id="surface4364">
<path style=" stroke:none;fill-rule:nonzero;fill:rgb(9.019608%,9.019608%,9.411765%);fill-opacity:1;" d="M 9 2.507812 C 8.808594 2.507812 8.617188 2.582031 8.46875 2.726562 L 4.226562 6.96875 C 3.933594 7.261719 3.933594 7.738281 4.226562 8.03125 L 4.292969 8.09375 C 4.585938 8.386719 5.058594 8.386719 5.351562 8.09375 L 8.25 5.195312 L 8.25 15 C 8.25 15.414062 8.585938 15.75 9 15.75 C 9.414062 15.75 9.75 15.414062 9.75 15 L 9.75 5.195312 L 12.648438 8.09375 C 12.941406 8.386719 13.414062 8.386719 13.707031 8.09375 L 13.773438 8.03125 C 14.066406 7.738281 14.066406 7.261719 13.773438 6.96875 L 9.53125 2.726562 C 9.382812 2.582031 9.191406 2.507812 9 2.507812 Z M 9 2.507812 "/>
</g>
</svg>
