<?xml version="1.0" encoding="UTF-8"?>
<svg xmlns="http://www.w3.org/2000/svg" xmlns:xlink="http://www.w3.org/1999/xlink" width="18.75pt" height="18.75pt" viewBox="0 0 18.75 18.75" version="1.1">
<g id="surface4478">
<path style=" stroke:none;fill-rule:nonzero;fill:rgb(9.019608%,9.019608%,9.411765%);fill-opacity:1;" d="M 6.375 3 C 6.265625 3 6.160156 3.046875 6.085938 3.132812 L 0.980469 8.460938 C 0.980469 8.460938 0.976562 8.460938 0.976562 8.460938 L 0.953125 8.488281 C 0.824219 8.625 0.75 8.808594 0.75 9 C 0.75 9.191406 0.824219 9.375 0.953125 9.511719 C 0.960938 9.519531 0.96875 9.527344 0.972656 9.535156 L 6.101562 14.882812 C 6.105469 14.886719 6.105469 14.886719 6.109375 14.890625 C 6.179688 14.960938 6.277344 15 6.375 15 C 6.582031 15 6.75 14.832031 6.75 14.625 L 6.75 11.25 L 15 11.25 C 15.828125 11.25 16.5 10.578125 16.5 9.75 L 16.5 8.25 C 16.5 7.421875 15.828125 6.75 15 6.75 L 6.75 6.75 L 6.75 3.375 C 6.75 3.167969 6.582031 3 6.375 3 Z M 6.375 3 "/>
</g>
</svg>
