<?xml version="1.0" encoding="UTF-8"?>
<svg xmlns="http://www.w3.org/2000/svg" xmlns:xlink="http://www.w3.org/1999/xlink" width="18.75pt" height="18.75pt" viewBox="0 0 18.75 18.75" version="1.1">
<g id="surface4412">
<path style=" stroke:none;fill-rule:nonzero;fill:rgb(9.019608%,9.019608%,9.411765%);fill-opacity:1;" d="M 11.625 3 C 11.417969 3 11.25 3.167969 11.25 3.375 L 11.25 6.75 L 3 6.75 C 2.171875 6.75 1.5 7.421875 1.5 8.25 L 1.5 9.75 C 1.5 10.578125 2.171875 11.25 3 11.25 L 11.25 11.25 L 11.25 14.625 C 11.25 14.832031 11.417969 15 11.625 15 C 11.722656 15 11.820312 14.960938 11.890625 14.890625 C 11.898438 14.882812 11.90625 14.875 11.910156 14.867188 L 17.019531 9.539062 L 17.023438 9.539062 C 17.03125 9.53125 17.039062 9.519531 17.046875 9.511719 C 17.175781 9.375 17.25 9.191406 17.25 9 C 17.25 8.808594 17.175781 8.625 17.046875 8.488281 L 17.039062 8.476562 C 17.035156 8.472656 17.03125 8.46875 17.027344 8.464844 L 11.894531 3.113281 C 11.824219 3.039062 11.726562 3 11.625 3 Z M 11.625 3 "/>
</g>
</svg>
