<?xml version="1.0" encoding="UTF-8"?>
<svg xmlns="http://www.w3.org/2000/svg" xmlns:xlink="http://www.w3.org/1999/xlink" width="18.75pt" height="18.75pt" viewBox="0 0 18.75 18.75" version="1.1">
<g id="surface4508">
<path style=" stroke:none;fill-rule:nonzero;fill:rgb(9.019608%,9.019608%,9.411765%);fill-opacity:1;" d="M 9 0.75 C 8.808594 0.75 8.625 0.824219 8.488281 0.953125 C 8.480469 0.960938 8.472656 0.96875 8.464844 0.972656 L 3.117188 6.101562 C 3.117188 6.105469 3.113281 6.105469 3.113281 6.105469 L 3.109375 6.109375 C 3.039062 6.179688 3 6.277344 3 6.375 C 3 6.582031 3.167969 6.75 3.375 6.75 L 6.75 6.75 L 6.75 15 C 6.75 15.828125 7.421875 16.5 8.25 16.5 L 9.75 16.5 C 10.578125 16.5 11.25 15.828125 11.25 15 L 11.25 6.75 L 14.625 6.75 C 14.832031 6.75 15 6.582031 15 6.375 C 15 6.277344 14.960938 6.179688 14.890625 6.109375 L 9.539062 0.976562 C 9.394531 0.832031 9.203125 0.75 9 0.75 Z M 9 0.75 "/>
</g>
</svg>
