<?xml version="1.0" encoding="UTF-8"?>
<svg xmlns="http://www.w3.org/2000/svg" xmlns:xlink="http://www.w3.org/1999/xlink" width="18.75pt" height="18.75pt" viewBox="0 0 18.75 18.75" version="1.1">
<g id="surface4466">
<path style=" stroke:none;fill-rule:nonzero;fill:rgb(9.019608%,9.019608%,9.411765%);fill-opacity:1;" d="M 8.25 1.5 C 7.421875 1.5 6.75 2.171875 6.75 3 L 6.75 11.25 L 3.375 11.25 C 3.167969 11.25 3 11.417969 3 11.625 C 3 11.722656 3.039062 11.820312 3.109375 11.890625 C 3.117188 11.898438 3.125 11.90625 3.132812 11.910156 L 8.460938 17.019531 C 8.460938 17.019531 8.460938 17.023438 8.460938 17.023438 L 8.488281 17.046875 C 8.625 17.175781 8.808594 17.25 9 17.25 C 9.191406 17.25 9.375 17.175781 9.511719 17.046875 L 9.523438 17.039062 C 9.527344 17.035156 9.53125 17.03125 9.535156 17.027344 L 14.886719 11.894531 C 14.960938 11.824219 15 11.726562 15 11.625 C 15 11.417969 14.832031 11.25 14.625 11.25 L 11.25 11.25 L 11.25 3 C 11.25 2.171875 10.578125 1.5 9.75 1.5 Z M 8.25 1.5 "/>
</g>
</svg>
