<?xml version="1.0" encoding="UTF-8"?>
<svg xmlns="http://www.w3.org/2000/svg" xmlns:xlink="http://www.w3.org/1999/xlink" width="18.75pt" height="18.75pt" viewBox="0 0 18.75 18.75" version="1.1">
<g id="surface4490">
<path style=" stroke:none;fill-rule:nonzero;fill:rgb(9.019608%,9.019608%,9.411765%);fill-opacity:1;" d="M 5.988281 2.25 C 5.828125 2.25 5.667969 2.3125 5.546875 2.433594 L 2.976562 5.203125 C 2.695312 5.507812 2.910156 6 3.324219 6 L 5.25 6 L 5.25 12 C 5.25 14.0625 6.9375 15.75 9 15.75 L 15 15.75 C 15.269531 15.753906 15.523438 15.613281 15.660156 15.378906 C 15.792969 15.144531 15.792969 14.855469 15.660156 14.621094 C 15.523438 14.386719 15.269531 14.246094 15 14.25 L 9 14.25 C 7.75 14.25 6.75 13.25 6.75 12 L 6.75 6 L 8.648438 6 C 9.0625 6 9.277344 5.507812 8.996094 5.203125 L 6.429688 2.433594 C 6.308594 2.3125 6.148438 2.25 5.988281 2.25 Z M 5.988281 2.25 "/>
</g>
</svg>
