<?xml version="1.0" encoding="UTF-8"?>
<svg xmlns="http://www.w3.org/2000/svg" xmlns:xlink="http://www.w3.org/1999/xlink" width="18.75pt" height="18.75pt" viewBox="0 0 18.75 18.75" version="1.1">
<g id="surface4376">
<path style=" stroke:none;fill-rule:nonzero;fill:rgb(9.019608%,9.019608%,9.411765%);fill-opacity:1;" d="M 14.988281 2.238281 C 14.574219 2.246094 14.246094 2.585938 14.25 3 L 14.25 9 C 14.25 10.25 13.25 11.25 12 11.25 L 6 11.25 L 6 9.351562 C 6 8.9375 5.507812 8.722656 5.203125 9.003906 L 2.433594 11.574219 C 2.1875 11.816406 2.1875 12.214844 2.433594 12.457031 L 5.203125 15.023438 C 5.507812 15.308594 6 15.09375 6 14.675781 L 6 12.75 L 12 12.75 C 14.0625 12.75 15.75 11.0625 15.75 9 L 15.75 3 C 15.753906 2.796875 15.671875 2.601562 15.53125 2.457031 C 15.386719 2.316406 15.191406 2.238281 14.988281 2.238281 Z M 14.988281 2.238281 "/>
</g>
</svg>
