<?xml version="1.0" encoding="UTF-8"?>
<svg xmlns="http://www.w3.org/2000/svg" xmlns:xlink="http://www.w3.org/1999/xlink" width="18.75pt" height="18.75pt" viewBox="0 0 18.75 18.75" version="1.1">
<g id="surface4388">
<path style=" stroke:none;fill-rule:nonzero;fill:rgb(9.019608%,9.019608%,9.411765%);fill-opacity:1;" d="M 9 2.25 C 6.9375 2.25 5.25 3.9375 5.25 6 L 5.25 12 L 3.320312 12 C 2.90625 12 2.691406 12.492188 2.976562 12.796875 L 5.542969 15.566406 C 5.785156 15.8125 6.183594 15.8125 6.425781 15.566406 L 8.996094 12.796875 C 9.277344 12.492188 9.0625 12 8.648438 12 L 6.75 12 L 6.75 6 C 6.75 4.75 7.75 3.75 9 3.75 L 15 3.75 C 15.269531 3.753906 15.523438 3.613281 15.660156 3.378906 C 15.792969 3.144531 15.792969 2.855469 15.660156 2.621094 C 15.523438 2.386719 15.269531 2.246094 15 2.25 Z M 9 2.25 "/>
</g>
</svg>
