<?xml version="1.0" encoding="UTF-8"?>
<svg xmlns="http://www.w3.org/2000/svg" xmlns:xlink="http://www.w3.org/1999/xlink" width="18.75pt" height="18.75pt" viewBox="0 0 18.75 18.75" version="1.1">
<g id="surface4406">
<path style=" stroke:none;fill-rule:nonzero;fill:rgb(9.019608%,9.019608%,9.411765%);fill-opacity:1;" d="M 12.011719 2.25 C 11.851562 2.25 11.695312 2.3125 11.574219 2.433594 L 9.003906 5.203125 C 8.722656 5.507812 8.9375 6 9.351562 6 L 11.25 6 L 11.25 12 C 11.25 13.25 10.25 14.25 9 14.25 L 3 14.25 C 2.730469 14.246094 2.476562 14.386719 2.339844 14.621094 C 2.207031 14.855469 2.207031 15.144531 2.339844 15.378906 C 2.476562 15.613281 2.730469 15.753906 3 15.75 L 9 15.75 C 11.0625 15.75 12.75 14.0625 12.75 12 L 12.75 6 L 14.675781 6 C 15.089844 6 15.304688 5.507812 15.023438 5.203125 L 12.457031 2.433594 C 12.332031 2.3125 12.171875 2.25 12.011719 2.25 Z M 12.011719 2.25 "/>
</g>
</svg>
