<?xml version="1.0" encoding="UTF-8"?>
<svg xmlns="http://www.w3.org/2000/svg" xmlns:xlink="http://www.w3.org/1999/xlink" width="18.75pt" height="18.75pt" viewBox="0 0 18.75 18.75" version="1.1">
<g id="surface4436">
<path style=" stroke:none;fill-rule:nonzero;fill:rgb(9.019608%,9.019608%,9.411765%);fill-opacity:1;" d="M 3 2.25 C 2.730469 2.246094 2.476562 2.386719 2.339844 2.621094 C 2.207031 2.855469 2.207031 3.144531 2.339844 3.378906 C 2.476562 3.613281 2.730469 3.753906 3 3.75 L 9 3.75 C 10.25 3.75 11.25 4.75 11.25 6 L 11.25 12 L 9.351562 12 C 8.9375 12 8.722656 12.492188 9.003906 12.796875 L 11.574219 15.566406 C 11.816406 15.8125 12.214844 15.8125 12.457031 15.566406 L 15.023438 12.796875 C 15.308594 12.492188 15.09375 12 14.675781 12 L 12.75 12 L 12.75 6 C 12.75 3.9375 11.0625 2.25 9 2.25 Z M 3 2.25 "/>
</g>
</svg>
