<?xml version="1.0" encoding="UTF-8"?>
<svg xmlns="http://www.w3.org/2000/svg" xmlns:xlink="http://www.w3.org/1999/xlink" width="18.75pt" height="18.75pt" viewBox="0 0 18.75 18.75" version="1.1">
<g id="surface4400">
<path style=" stroke:none;fill-rule:nonzero;fill:rgb(9.019608%,9.019608%,9.411765%);fill-opacity:1;" d="M 2.988281 2.238281 C 2.574219 2.246094 2.246094 2.585938 2.25 3 L 2.25 9 C 2.25 11.0625 3.9375 12.75 6 12.75 L 12 12.75 L 12 14.675781 C 12 15.09375 12.492188 15.308594 12.796875 15.023438 L 15.566406 12.457031 C 15.8125 12.214844 15.8125 11.816406 15.566406 11.574219 L 12.796875 9.003906 C 12.492188 8.722656 12 8.9375 12 9.351562 L 12 11.25 L 6 11.25 C 4.75 11.25 3.75 10.25 3.75 9 L 3.75 3 C 3.753906 2.796875 3.671875 2.601562 3.53125 2.457031 C 3.386719 2.316406 3.191406 2.238281 2.988281 2.238281 Z M 2.988281 2.238281 "/>
</g>
</svg>
