<?xml version="1.0" standalone="no"?><!DOCTYPE svg PUBLIC "-//W3C//DTD SVG 1.1//EN" "http://www.w3.org/Graphics/SVG/1.1/DTD/svg11.dtd"><svg t="1618205095126" class="icon" viewBox="0 0 1024 1024" version="1.1" xmlns="http://www.w3.org/2000/svg" p-id="2319" xmlns:xlink="http://www.w3.org/1999/xlink" width="128" height="128"><defs><style type="text/css"></style></defs><path d="M16 0v1024" fill="" p-id="2320"></path><path d="M32 0v1024" fill="" p-id="2321"></path><path d="M48 0v1024" fill="" p-id="2322"></path><path d="M64 0v1024" fill="" p-id="2323"></path><path d="M80 0v1024" fill="" p-id="2324"></path><path d="M96 0v1024" fill="" p-id="2325"></path><path d="M112 0v1024" fill="" p-id="2326"></path><path d="M128 0v1024" fill="" p-id="2327"></path><path d="M144 0v1024" fill="" p-id="2328"></path><path d="M160 0v1024" fill="" p-id="2329"></path><path d="M176 0v1024" fill="" p-id="2330"></path><path d="M192 0v1024" fill="" p-id="2331"></path><path d="M208 0v1024" fill="" p-id="2332"></path><path d="M224 0v1024" fill="" p-id="2333"></path><path d="M240 0v1024" fill="" p-id="2334"></path><path d="M256 0v1024" fill="" p-id="2335"></path><path d="M272 0v1024" fill="" p-id="2336"></path><path d="M288 0v1024" fill="" p-id="2337"></path><path d="M304 0v1024" fill="" p-id="2338"></path><path d="M320 0v1024" fill="" p-id="2339"></path><path d="M336 0v1024" fill="" p-id="2340"></path><path d="M352 0v1024" fill="" p-id="2341"></path><path d="M368 0v1024" fill="" p-id="2342"></path><path d="M384 0v1024" fill="" p-id="2343"></path><path d="M400 0v1024" fill="" p-id="2344"></path><path d="M416 0v1024" fill="" p-id="2345"></path><path d="M432 0v1024" fill="" p-id="2346"></path><path d="M448 0v1024" fill="" p-id="2347"></path><path d="M464 0v1024" fill="" p-id="2348"></path><path d="M480 0v1024" fill="" p-id="2349"></path><path d="M496 0v1024" fill="" p-id="2350"></path><path d="M512 0v1024" fill="" p-id="2351"></path><path d="M528 0v1024" fill="" p-id="2352"></path><path d="M544 0v1024" fill="" p-id="2353"></path><path d="M560 0v1024" fill="" p-id="2354"></path><path d="M576 0v1024" fill="" p-id="2355"></path><path d="M592 0v1024" fill="" p-id="2356"></path><path d="M608 0v1024" fill="" p-id="2357"></path><path d="M624 0v1024" fill="" p-id="2358"></path><path d="M640 0v1024" fill="" p-id="2359"></path><path d="M656 0v1024" fill="" p-id="2360"></path><path d="M672 0v1024" fill="" p-id="2361"></path><path d="M688 0v1024" fill="" p-id="2362"></path><path d="M704 0v1024" fill="" p-id="2363"></path><path d="M720 0v1024" fill="" p-id="2364"></path><path d="M736 0v1024" fill="" p-id="2365"></path><path d="M752 0v1024" fill="" p-id="2366"></path><path d="M768 0v1024" fill="" p-id="2367"></path><path d="M784 0v1024" fill="" p-id="2368"></path><path d="M800 0v1024" fill="" p-id="2369"></path><path d="M816 0v1024" fill="" p-id="2370"></path><path d="M832 0v1024" fill="" p-id="2371"></path><path d="M848 0v1024" fill="" p-id="2372"></path><path d="M864 0v1024" fill="" p-id="2373"></path><path d="M880 0v1024" fill="" p-id="2374"></path><path d="M896 0v1024" fill="" p-id="2375"></path><path d="M912 0v1024" fill="" p-id="2376"></path><path d="M928 0v1024" fill="" p-id="2377"></path><path d="M944 0v1024" fill="" p-id="2378"></path><path d="M960 0v1024" fill="" p-id="2379"></path><path d="M976 0v1024" fill="" p-id="2380"></path><path d="M992 0v1024" fill="" p-id="2381"></path><path d="M1008 0v1024M0 16h1024" fill="" p-id="2382"></path><path d="M0 32h1024" fill="" p-id="2383"></path><path d="M0 48h1024" fill="" p-id="2384"></path><path d="M0 64h1024" fill="" p-id="2385"></path><path d="M0 80h1024" fill="" p-id="2386"></path><path d="M0 96h1024" fill="" p-id="2387"></path><path d="M0 112h1024" fill="" p-id="2388"></path><path d="M0 128h1024" fill="" p-id="2389"></path><path d="M0 144h1024" fill="" p-id="2390"></path><path d="M0 160h1024" fill="" p-id="2391"></path><path d="M0 176h1024" fill="" p-id="2392"></path><path d="M0 192h1024" fill="" p-id="2393"></path><path d="M0 208h1024" fill="" p-id="2394"></path><path d="M0 224h1024" fill="" p-id="2395"></path><path d="M0 240h1024" fill="" p-id="2396"></path><path d="M0 256h1024" fill="" p-id="2397"></path><path d="M0 272h1024" fill="" p-id="2398"></path><path d="M0 288h1024" fill="" p-id="2399"></path><path d="M0 304h1024" fill="" p-id="2400"></path><path d="M0 320h1024" fill="" p-id="2401"></path><path d="M0 336h1024" fill="" p-id="2402"></path><path d="M0 352h1024" fill="" p-id="2403"></path><path d="M0 368h1024" fill="" p-id="2404"></path><path d="M0 384h1024" fill="" p-id="2405"></path><path d="M0 400h1024" fill="" p-id="2406"></path><path d="M0 416h1024" fill="" p-id="2407"></path><path d="M0 432h1024" fill="" p-id="2408"></path><path d="M0 448h1024" fill="" p-id="2409"></path><path d="M0 464h1024" fill="" p-id="2410"></path><path d="M0 480h1024" fill="" p-id="2411"></path><path d="M0 496h1024" fill="" p-id="2412"></path><path d="M0 512h1024" fill="" p-id="2413"></path><path d="M0 528h1024" fill="" p-id="2414"></path><path d="M0 544h1024" fill="" p-id="2415"></path><path d="M0 560h1024" fill="" p-id="2416"></path><path d="M0 576h1024" fill="" p-id="2417"></path><path d="M0 592h1024" fill="" p-id="2418"></path><path d="M0 608h1024" fill="" p-id="2419"></path><path d="M0 624h1024" fill="" p-id="2420"></path><path d="M0 640h1024" fill="" p-id="2421"></path><path d="M0 656h1024" fill="" p-id="2422"></path><path d="M0 672h1024" fill="" p-id="2423"></path><path d="M0 688h1024" fill="" p-id="2424"></path><path d="M0 704h1024" fill="" p-id="2425"></path><path d="M0 720h1024" fill="" p-id="2426"></path><path d="M0 736h1024" fill="" p-id="2427"></path><path d="M0 752h1024" fill="" p-id="2428"></path><path d="M0 768h1024" fill="" p-id="2429"></path><path d="M0 784h1024" fill="" p-id="2430"></path><path d="M0 800h1024" fill="" p-id="2431"></path><path d="M0 816h1024" fill="" p-id="2432"></path><path d="M0 832h1024" fill="" p-id="2433"></path><path d="M0 848h1024" fill="" p-id="2434"></path><path d="M0 864h1024" fill="" p-id="2435"></path><path d="M0 880h1024" fill="" p-id="2436"></path><path d="M0 896h1024" fill="" p-id="2437"></path><path d="M0 912h1024" fill="" p-id="2438"></path><path d="M0 928h1024" fill="" p-id="2439"></path><path d="M0 944h1024" fill="" p-id="2440"></path><path d="M0 960h1024" fill="" p-id="2441"></path><path d="M0 976h1024" fill="" p-id="2442"></path><path d="M0 992h1024" fill="" p-id="2443"></path><path d="M0 1008h1024" fill="" p-id="2444"></path><path d="M975.177 240.875H48.824c-18.076 0-33.893-15.817-33.893-33.893v-67.78c0-18.076 15.817-33.893 33.893-33.893h926.353c18.076 0 33.893 15.817 33.893 33.893v67.78c0 18.076-15.817 33.893-33.893 33.893z m0 336.646H48.824c-18.076 0-33.893-15.817-33.893-33.893v-67.78c0-15.817 15.817-31.633 33.893-31.633h926.353c18.076 0 33.893 15.817 33.893 33.893v67.78c0 15.817-15.817 31.633-33.893 31.633z m0 341.17H48.824c-18.076 0-33.893-15.817-33.893-33.893v-67.78c0-18.076 15.817-33.893 33.893-33.893h926.353c18.076 0 33.893 15.817 33.893 33.893v67.78c0 18.076-15.817 33.893-33.893 33.893z" fill="#666666" p-id="2445"></path></svg>