<?xml version="1.0" encoding="UTF-8"?>
<svg xmlns="http://www.w3.org/2000/svg" xmlns:xlink="http://www.w3.org/1999/xlink" width="18.75pt" height="18.75pt" viewBox="0 0 18.75 18.75" version="1.1">
<g id="surface4868">
<path style=" stroke:none;fill-rule:nonzero;fill:rgb(9.019608%,9.019608%,9.411765%);fill-opacity:1;" d="M 9 3.292969 C 8.710938 3.292969 8.421875 3.375 8.167969 3.542969 L 2.804688 7.117188 C 2.457031 7.347656 2.25 7.738281 2.25 8.15625 C 2.25 9.152344 3.363281 9.746094 4.191406 9.195312 L 9 5.988281 L 13.808594 9.195312 C 14.636719 9.746094 15.75 9.152344 15.75 8.15625 C 15.75 7.738281 15.542969 7.347656 15.195312 7.117188 L 9.832031 3.542969 C 9.578125 3.375 9.289062 3.292969 9 3.292969 Z M 9 8.039062 C 8.710938 8.039062 8.421875 8.125 8.167969 8.292969 L 2.804688 11.867188 C 2.457031 12.097656 2.25 12.488281 2.25 12.90625 C 2.25 13.902344 3.363281 14.496094 4.191406 13.945312 L 9 10.738281 L 13.808594 13.945312 C 14.636719 14.5 15.75 13.902344 15.75 12.90625 C 15.75 12.488281 15.542969 12.097656 15.195312 11.867188 L 9.832031 8.292969 C 9.578125 8.125 9.289062 8.039062 9 8.039062 Z M 9 8.039062 "/>
</g>
</svg>
