<?xml version="1.0" encoding="UTF-8"?>
<svg xmlns="http://www.w3.org/2000/svg" xmlns:xlink="http://www.w3.org/1999/xlink" width="18.75pt" height="18.75pt" viewBox="0 0 18.75 18.75" version="1.1">
<g id="surface4862">
<path style=" stroke:none;fill-rule:nonzero;fill:rgb(9.019608%,9.019608%,9.411765%);fill-opacity:1;" d="M 9 1.5 C 4.859375 1.5 1.5 4.859375 1.5 9 C 1.5 13.140625 4.859375 16.5 9 16.5 C 13.140625 16.5 16.5 13.140625 16.5 9 C 16.5 4.859375 13.140625 1.5 9 1.5 Z M 11.25 12.75 L 9.359375 12.75 C 9.132812 12.75 8.917969 12.648438 8.773438 12.46875 L 6.375 9.46875 C 6.15625 9.195312 6.15625 8.804688 6.375 8.53125 L 8.773438 5.53125 C 8.917969 5.351562 9.132812 5.25 9.359375 5.25 L 11.25 5.25 L 8.25 9 Z M 11.25 12.75 "/>
</g>
</svg>
