<?xml version="1.0" encoding="UTF-8"?>
<svg xmlns="http://www.w3.org/2000/svg" xmlns:xlink="http://www.w3.org/1999/xlink" width="18.75pt" height="18.75pt" viewBox="0 0 18.75 18.75" version="1.1">
<g id="surface4904">
<path style=" stroke:none;fill-rule:nonzero;fill:rgb(9.019608%,9.019608%,9.411765%);fill-opacity:1;" d="M 1.5 9 C 1.5 13.140625 4.859375 16.5 9 16.5 C 13.140625 16.5 16.5 13.140625 16.5 9 C 16.5 4.859375 13.140625 1.5 9 1.5 C 4.859375 1.5 1.5 4.859375 1.5 9 Z M 12.75 6.75 L 12.75 8.640625 C 12.75 8.867188 12.648438 9.082031 12.46875 9.226562 L 9.46875 11.625 C 9.195312 11.84375 8.804688 11.84375 8.53125 11.625 L 5.53125 9.226562 C 5.351562 9.082031 5.25 8.867188 5.25 8.640625 L 5.25 6.75 L 9 9.75 Z M 12.75 6.75 "/>
</g>
</svg>
