<?xml version="1.0" encoding="UTF-8"?>
<svg xmlns="http://www.w3.org/2000/svg" xmlns:xlink="http://www.w3.org/1999/xlink" width="18.75pt" height="18.75pt" viewBox="0 0 18.75 18.75" version="1.1">
<g id="surface4886">
<path style=" stroke:none;fill-rule:nonzero;fill:rgb(9.019608%,9.019608%,9.411765%);fill-opacity:1;" d="M 9 1.5 C 4.859375 1.5 1.5 4.859375 1.5 9 C 1.5 13.140625 4.859375 16.5 9 16.5 C 13.140625 16.5 16.5 13.140625 16.5 9 C 16.5 4.859375 13.140625 1.5 9 1.5 Z M 7.6875 12.242188 C 7.378906 11.929688 7.378906 11.425781 7.6875 11.117188 L 9.804688 9 L 7.6875 6.882812 C 7.378906 6.574219 7.378906 6.070312 7.6875 5.757812 C 7.996094 5.449219 8.503906 5.449219 8.8125 5.757812 L 11.523438 8.46875 C 11.816406 8.761719 11.816406 9.238281 11.523438 9.53125 L 8.8125 12.242188 C 8.503906 12.550781 7.996094 12.550781 7.6875 12.242188 Z M 7.6875 12.242188 "/>
</g>
</svg>
