<?xml version="1.0" encoding="UTF-8"?>
<svg xmlns="http://www.w3.org/2000/svg" xmlns:xlink="http://www.w3.org/1999/xlink" width="18.75pt" height="18.75pt" viewBox="0 0 18.75 18.75" version="1.1">
<g id="surface5192">
<path style=" stroke:none;fill-rule:nonzero;fill:rgb(9.019608%,9.019608%,9.411765%);fill-opacity:1;" d="M 2.222656 1.492188 C 2.011719 1.5 1.8125 1.59375 1.675781 1.753906 C 1.539062 1.914062 1.472656 2.125 1.5 2.335938 L 1.5 7.5 C 1.496094 7.769531 1.636719 8.023438 1.871094 8.160156 C 2.105469 8.292969 2.394531 8.292969 2.628906 8.160156 C 2.863281 8.023438 3.003906 7.769531 3 7.5 L 3 4.113281 C 3.808594 5 4.621094 5.933594 5.566406 6.761719 C 6.511719 7.589844 7.707031 8.167969 9.046875 8.554688 C 9.105469 10.476562 9.664062 12.390625 10.851562 13.875 C 12.105469 15.441406 14.042969 16.5 16.5 16.5 C 16.769531 16.503906 17.023438 16.363281 17.160156 16.128906 C 17.292969 15.894531 17.292969 15.605469 17.160156 15.371094 C 17.023438 15.136719 16.769531 14.996094 16.5 15 C 14.457031 15 13.019531 14.183594 12.023438 12.9375 C 11.148438 11.84375 10.707031 10.375 10.59375 8.867188 C 10.832031 8.886719 11 9 11.25 9 C 15.46875 9 17.25 6.4375 17.25 4.5 C 17.25 3.800781 17.007812 3.074219 16.503906 2.492188 C 16 1.910156 15.203125 1.5 14.25 1.5 C 12.4375 1.5 11.070312 2.65625 10.238281 4.015625 C 9.632812 4.996094 9.332031 6.070312 9.167969 7.09375 C 8.195312 6.769531 7.328125 6.308594 6.554688 5.632812 C 5.6875 4.875 4.886719 3.9375 4.023438 3 L 7.5 3 C 7.769531 3.003906 8.023438 2.863281 8.160156 2.628906 C 8.292969 2.394531 8.292969 2.105469 8.160156 1.871094 C 8.023438 1.636719 7.769531 1.496094 7.5 1.5 L 2.339844 1.5 C 2.300781 1.496094 2.261719 1.492188 2.222656 1.492188 Z M 14.25 3 C 14.796875 3 15.125 3.195312 15.371094 3.476562 C 15.617188 3.757812 15.75 4.160156 15.75 4.5 C 15.75 5.5625 14.898438 7.5 11.25 7.5 C 11.011719 7.5 10.855469 7.398438 10.632812 7.378906 C 10.765625 6.535156 11.019531 5.597656 11.511719 4.796875 C 12.179688 3.71875 13.0625 3 14.25 3 Z M 14.25 3 "/>
</g>
</svg>
