<?xml version="1.0" encoding="UTF-8"?>
<svg xmlns="http://www.w3.org/2000/svg" xmlns:xlink="http://www.w3.org/1999/xlink" width="18.75pt" height="18.75pt" viewBox="0 0 18.75 18.75" version="1.1">
<g id="surface5162">
<path style=" stroke:none;fill-rule:nonzero;fill:rgb(9.019608%,9.019608%,9.411765%);fill-opacity:1;" d="M 5.453125 2.851562 C 5.367188 2.863281 5.277344 2.90625 5.203125 2.976562 L 2.433594 5.542969 C 2.1875 5.785156 2.1875 6.183594 2.433594 6.425781 L 5.203125 8.996094 C 5.507812 9.277344 6 9.0625 6 8.648438 L 6 6.75 L 7.5 6.75 C 11.238281 6.75 14.25 9.761719 14.25 13.5 L 14.25 15 C 14.246094 15.269531 14.386719 15.523438 14.621094 15.660156 C 14.855469 15.792969 15.144531 15.792969 15.378906 15.660156 C 15.613281 15.523438 15.753906 15.269531 15.75 15 L 15.75 13.5 C 15.75 8.953125 12.046875 5.25 7.5 5.25 L 6 5.25 L 6 3.320312 C 6 3.011719 5.722656 2.8125 5.453125 2.851562 Z M 5.453125 2.851562 "/>
</g>
</svg>
