<?xml version="1.0" encoding="UTF-8"?>
<svg xmlns="http://www.w3.org/2000/svg" xmlns:xlink="http://www.w3.org/1999/xlink" width="18.75pt" height="18.75pt" viewBox="0 0 18.75 18.75" version="1.1">
<g id="surface5210">
<path style=" stroke:none;fill-rule:nonzero;fill:rgb(9.019608%,9.019608%,9.411765%);fill-opacity:1;" d="M 6.003906 2.25 C 5.84375 2.25 5.683594 2.3125 5.5625 2.433594 L 2.992188 5.203125 C 2.710938 5.507812 2.925781 6 3.339844 6 L 5.25 6 L 5.25 7.5 C 5.25 12.046875 8.953125 15.75 13.5 15.75 L 15 15.75 C 15.269531 15.753906 15.523438 15.613281 15.660156 15.378906 C 15.792969 15.144531 15.792969 14.855469 15.660156 14.621094 C 15.523438 14.386719 15.269531 14.246094 15 14.25 L 13.5 14.25 C 9.761719 14.25 6.75 11.238281 6.75 7.5 L 6.75 6 L 8.664062 6 C 9.078125 6 9.292969 5.507812 9.011719 5.203125 L 6.445312 2.433594 C 6.320312 2.3125 6.164062 2.25 6.003906 2.25 Z M 6.003906 2.25 "/>
</g>
</svg>
