<?xml version="1.0" encoding="UTF-8"?>
<svg xmlns="http://www.w3.org/2000/svg" xmlns:xlink="http://www.w3.org/1999/xlink" width="18.75pt" height="18.75pt" viewBox="0 0 18.75 18.75" version="1.1">
<g id="surface5156">
<path style=" stroke:none;fill-rule:nonzero;fill:rgb(9.019608%,9.019608%,9.411765%);fill-opacity:1;" d="M 13.5 2.25 C 8.953125 2.25 5.25 5.953125 5.25 10.5 L 5.25 12 L 3.339844 12 C 2.925781 12 2.710938 12.492188 2.992188 12.796875 L 5.5625 15.566406 C 5.804688 15.8125 6.199219 15.8125 6.445312 15.566406 L 9.011719 12.796875 C 9.292969 12.492188 9.078125 12 8.664062 12 L 6.75 12 L 6.75 10.5 C 6.75 6.761719 9.761719 3.75 13.5 3.75 L 15 3.75 C 15.269531 3.753906 15.523438 3.613281 15.660156 3.378906 C 15.792969 3.144531 15.792969 2.855469 15.660156 2.621094 C 15.523438 2.386719 15.269531 2.246094 15 2.25 Z M 13.5 2.25 "/>
</g>
</svg>
