<?xml version="1.0" encoding="UTF-8"?>
<svg xmlns="http://www.w3.org/2000/svg" xmlns:xlink="http://www.w3.org/1999/xlink" width="18.75pt" height="18.75pt" viewBox="0 0 18.75 18.75" version="1.1">
<g id="surface5174">
<path style=" stroke:none;fill-rule:nonzero;fill:rgb(9.019608%,9.019608%,9.411765%);fill-opacity:1;" d="M 3 2.25 C 2.730469 2.246094 2.476562 2.386719 2.339844 2.621094 C 2.207031 2.855469 2.207031 3.144531 2.339844 3.378906 C 2.476562 3.613281 2.730469 3.753906 3 3.75 L 4.5 3.75 C 8.238281 3.75 11.25 6.761719 11.25 10.5 L 11.25 12 L 9.339844 12 C 8.925781 12 8.710938 12.492188 8.992188 12.796875 L 11.558594 15.566406 C 11.804688 15.8125 12.199219 15.8125 12.445312 15.566406 L 15.011719 12.796875 C 15.292969 12.492188 15.078125 12 14.664062 12 L 12.75 12 L 12.75 10.5 C 12.75 5.953125 9.046875 2.25 4.5 2.25 Z M 3 2.25 "/>
</g>
</svg>
