<?xml version="1.0" encoding="UTF-8"?>
<svg xmlns="http://www.w3.org/2000/svg" xmlns:xlink="http://www.w3.org/1999/xlink" width="18.75pt" height="18.75pt" viewBox="0 0 18.75 18.75" version="1.1">
<g id="surface5204">
<path style=" stroke:none;fill-rule:nonzero;fill:rgb(9.019608%,9.019608%,9.411765%);fill-opacity:1;" d="M 12.003906 2.25 C 11.84375 2.25 11.683594 2.3125 11.558594 2.433594 L 8.992188 5.203125 C 8.710938 5.507812 8.925781 6 9.339844 6 L 11.25 6 L 11.25 7.5 C 11.25 11.238281 8.238281 14.25 4.5 14.25 L 3 14.25 C 2.730469 14.246094 2.476562 14.386719 2.339844 14.621094 C 2.207031 14.855469 2.207031 15.144531 2.339844 15.378906 C 2.476562 15.613281 2.730469 15.753906 3 15.75 L 4.5 15.75 C 9.046875 15.75 12.75 12.046875 12.75 7.5 L 12.75 6 L 14.664062 6 C 15.078125 6 15.292969 5.507812 15.011719 5.203125 L 12.445312 2.433594 C 12.320312 2.3125 12.164062 2.25 12.003906 2.25 Z M 12.003906 2.25 "/>
</g>
</svg>
