<?xml version="1.0" encoding="UTF-8"?>
<svg xmlns="http://www.w3.org/2000/svg" xmlns:xlink="http://www.w3.org/1999/xlink" width="18.75pt" height="18.75pt" viewBox="0 0 18.75 18.75" version="1.1">
<g id="surface5198">
<path style=" stroke:none;fill-rule:nonzero;fill:rgb(9.019608%,9.019608%,9.411765%);fill-opacity:1;" d="M 8.25 1.503906 C 6.601562 1.503906 5.25 2.855469 5.25 4.503906 C 5.25 5.8125 5.644531 7.328125 6.019531 8.910156 C 6.394531 10.492188 6.75 12.128906 6.75 13.503906 C 6.75 14.34375 6.085938 15.003906 5.25 15.003906 C 4.410156 15.003906 3.75 14.34375 3.75 13.503906 L 3.75 5.253906 C 3.753906 4.984375 3.609375 4.730469 3.375 4.597656 C 3.144531 4.460938 2.855469 4.460938 2.621094 4.597656 C 2.386719 4.730469 2.246094 4.984375 2.25 5.253906 L 2.25 13.503906 C 2.25 15.152344 3.601562 16.503906 5.25 16.503906 C 6.898438 16.503906 8.25 15.152344 8.25 13.503906 C 8.25 11.878906 7.855469 10.160156 7.476562 8.566406 C 7.101562 6.96875 6.75 5.484375 6.75 4.503906 C 6.75 3.667969 7.410156 3.003906 8.25 3.003906 C 9.085938 3.003906 9.75 3.667969 9.75 4.503906 C 9.75 6.757812 9.753906 7.507812 9.753906 9.753906 C 9.753906 11.441406 10.460938 12.5 11.214844 13.003906 C 11.96875 13.507812 12.757812 13.503906 12.753906 13.503906 L 13.511719 13.503906 L 13.511719 14.84375 C 13.511719 15.179688 13.941406 15.347656 14.1875 15.109375 L 16.382812 13.003906 C 16.539062 12.859375 16.535156 12.621094 16.382812 12.472656 L 14.183594 10.390625 C 13.9375 10.15625 13.511719 10.324219 13.511719 10.660156 L 13.511719 12.003906 L 12.753906 12.003906 C 12.753906 12.003906 12.417969 12.003906 12.046875 11.753906 C 11.675781 11.507812 11.253906 11.066406 11.253906 9.753906 C 11.253906 7.503906 11.25 6.753906 11.25 4.503906 C 11.25 2.855469 9.898438 1.503906 8.25 1.503906 Z M 8.25 1.503906 "/>
</g>
</svg>
