<?xml version="1.0" encoding="UTF-8"?>
<svg xmlns="http://www.w3.org/2000/svg" xmlns:xlink="http://www.w3.org/1999/xlink" width="18.75pt" height="18.75pt" viewBox="0 0 18.75 18.75" version="1.1">
<g id="surface5180">
<path style=" stroke:none;fill-rule:nonzero;fill:rgb(9.019608%,9.019608%,9.411765%);fill-opacity:1;" d="M 10.125 1.5 C 7.445312 1.5 5.25 3.695312 5.25 6.375 L 5.25 9 L 2.820312 9 C 2.324219 9 2.066406 9.59375 2.402344 9.957031 L 5.472656 13.28125 C 5.761719 13.574219 6.234375 13.574219 6.527344 13.28125 L 9.597656 9.957031 C 9.933594 9.59375 9.675781 9 9.183594 9 L 6.75 9 L 6.75 6.375 C 6.75 4.515625 8.265625 3 10.125 3 C 11.984375 3 13.5 4.515625 13.5 6.375 L 13.5 15.75 C 13.496094 16.019531 13.636719 16.273438 13.871094 16.410156 C 14.105469 16.542969 14.394531 16.542969 14.628906 16.410156 C 14.863281 16.273438 15.003906 16.019531 15 15.75 L 15 6.375 C 15 3.695312 12.804688 1.5 10.125 1.5 Z M 10.125 1.5 "/>
</g>
</svg>
