<?xml version="1.0" encoding="UTF-8"?>
<svg xmlns="http://www.w3.org/2000/svg" xmlns:xlink="http://www.w3.org/1999/xlink" width="18.75pt" height="18.75pt" viewBox="0 0 18.75 18.75" version="1.1">
<g id="surface5168">
<path style=" stroke:none;fill-rule:nonzero;fill:rgb(9.019608%,9.019608%,9.411765%);fill-opacity:1;" d="M 12.542969 2.851562 C 12.277344 2.8125 12 3.011719 12 3.320312 L 12 5.25 L 10.5 5.25 C 5.953125 5.25 2.25 8.953125 2.25 13.5 L 2.25 15 C 2.246094 15.269531 2.386719 15.523438 2.621094 15.660156 C 2.855469 15.792969 3.144531 15.792969 3.378906 15.660156 C 3.613281 15.523438 3.753906 15.269531 3.75 15 L 3.75 13.5 C 3.75 9.761719 6.761719 6.75 10.5 6.75 L 12 6.75 L 12 8.648438 C 12 9.0625 12.492188 9.277344 12.796875 8.996094 L 15.566406 6.425781 C 15.8125 6.183594 15.8125 5.785156 15.566406 5.542969 L 12.796875 2.976562 C 12.722656 2.90625 12.632812 2.863281 12.542969 2.851562 Z M 12.542969 2.851562 "/>
</g>
</svg>
