<?xml version="1.0" encoding="UTF-8"?>
<svg xmlns="http://www.w3.org/2000/svg" xmlns:xlink="http://www.w3.org/1999/xlink" width="18.75pt" height="18.75pt" viewBox="0 0 18.75 18.75" version="1.1">
<g id="surface5186">
<path style=" stroke:none;fill-rule:nonzero;fill:rgb(9.019608%,9.019608%,9.411765%);fill-opacity:1;" d="M 10.5 1.5 C 8.4375 1.5 6.75 3.1875 6.75 5.25 L 6.75 12.75 L 4.851562 12.75 C 4.4375 12.75 4.222656 13.242188 4.507812 13.546875 L 7.074219 16.316406 C 7.316406 16.5625 7.714844 16.5625 7.957031 16.316406 L 10.523438 13.546875 C 10.808594 13.242188 10.59375 12.75 10.175781 12.75 L 8.25 12.75 L 8.25 5.25 C 8.25 4 9.25 3 10.5 3 C 11.75 3 12.75 4 12.75 5.25 C 12.75 6.5 11.75 7.5 10.5 7.5 C 10.230469 7.496094 9.976562 7.636719 9.839844 7.871094 C 9.707031 8.105469 9.707031 8.394531 9.839844 8.628906 C 9.976562 8.863281 10.230469 9.003906 10.5 9 C 12.5625 9 14.25 7.3125 14.25 5.25 C 14.25 3.1875 12.5625 1.5 10.5 1.5 Z M 10.5 1.5 "/>
</g>
</svg>
