<?xml version="1.0" encoding="UTF-8"?>
<svg xmlns="http://www.w3.org/2000/svg" xmlns:xlink="http://www.w3.org/1999/xlink" width="18.75pt" height="18.75pt" viewBox="0 0 18.75 18.75" version="1.1">
<g id="surface4926">
<path style=" stroke:none;fill-rule:nonzero;fill:rgb(9.019608%,9.019608%,9.411765%);fill-opacity:1;" d="M 9 1.5 C 4.859375 1.5 1.5 4.859375 1.5 9 C 1.5 13.140625 4.859375 16.5 9 16.5 C 13.140625 16.5 16.5 13.140625 16.5 9 C 16.5 4.859375 13.140625 1.5 9 1.5 Z M 8.46875 12.53125 L 6 10.058594 C 5.707031 9.765625 5.707031 9.292969 6 9 C 6.292969 8.707031 6.769531 8.707031 7.058594 9 L 8.25 10.191406 L 8.25 6 C 8.25 5.585938 8.585938 5.25 9 5.25 C 9.414062 5.25 9.75 5.585938 9.75 6 L 9.75 10.191406 L 10.941406 9 C 11.230469 8.707031 11.707031 8.707031 12 9 C 12.292969 9.292969 12.292969 9.769531 12 10.058594 L 9.53125 12.53125 C 9.238281 12.824219 8.761719 12.824219 8.46875 12.53125 Z M 8.46875 12.53125 "/>
</g>
</svg>
