<?xml version="1.0" encoding="UTF-8"?>
<svg xmlns="http://www.w3.org/2000/svg" xmlns:xlink="http://www.w3.org/1999/xlink" width="18.75pt" height="18.75pt" viewBox="0 0 18.75 18.75" version="1.1">
<g id="surface4962">
<path style=" stroke:none;fill-rule:nonzero;fill:rgb(9.019608%,9.019608%,9.411765%);fill-opacity:1;" d="M 9 1.5 C 4.859375 1.5 1.5 4.859375 1.5 9 C 1.5 13.140625 4.859375 16.5 9 16.5 C 13.140625 16.5 16.5 13.140625 16.5 9 C 16.5 4.859375 13.140625 1.5 9 1.5 Z M 12 9.75 L 7.808594 9.75 L 9 10.941406 C 9.292969 11.230469 9.292969 11.707031 9 12 C 8.707031 12.292969 8.230469 12.292969 7.941406 12 L 5.46875 9.53125 C 5.175781 9.238281 5.175781 8.761719 5.46875 8.46875 L 7.941406 6 C 8.230469 5.707031 8.707031 5.707031 9 6 C 9.292969 6.292969 9.292969 6.769531 9 7.058594 L 7.808594 8.25 L 12 8.25 C 12.414062 8.25 12.75 8.585938 12.75 9 C 12.75 9.414062 12.414062 9.75 12 9.75 Z M 12 9.75 "/>
</g>
</svg>
