<?xml version="1.0" encoding="UTF-8"?>
<svg xmlns="http://www.w3.org/2000/svg" xmlns:xlink="http://www.w3.org/1999/xlink" width="18.75pt" height="18.75pt" viewBox="0 0 18.75 18.75" version="1.1">
<g id="surface4932">
<path style=" stroke:none;fill-rule:nonzero;fill:rgb(9.019608%,9.019608%,9.411765%);fill-opacity:1;" d="M 9 0.75 C 8.832031 0.75 8.664062 0.8125 8.535156 0.941406 L 6.511719 2.96875 C 6.222656 3.253906 6.425781 3.75 6.835938 3.75 L 8.25 3.75 L 8.25 8.25 C 8.25 8.664062 8.585938 9 9 9 C 9.414062 9 9.75 8.664062 9.75 8.25 L 9.75 3.75 L 11.164062 3.75 C 11.574219 3.75 11.777344 3.253906 11.488281 2.96875 L 9.464844 0.941406 C 9.335938 0.8125 9.167969 0.75 9 0.75 Z M 13.972656 3.742188 C 13.679688 3.753906 13.421875 3.933594 13.3125 4.207031 C 13.199219 4.476562 13.257812 4.785156 13.457031 5 C 14.414062 6.066406 15 7.457031 15 9 C 15 12.324219 12.324219 15 9 15 C 5.675781 15 3 12.324219 3 9 C 3 7.457031 3.585938 6.066406 4.542969 5 C 4.746094 4.785156 4.796875 4.46875 4.683594 4.199219 C 4.566406 3.925781 4.300781 3.746094 4.003906 3.742188 C 3.785156 3.738281 3.574219 3.832031 3.429688 4 C 2.238281 5.324219 1.5 7.074219 1.5 9 C 1.5 13.132812 4.867188 16.5 9 16.5 C 13.132812 16.5 16.5 13.132812 16.5 9 C 16.5 7.074219 15.761719 5.324219 14.574219 4 C 14.421875 3.828125 14.203125 3.730469 13.972656 3.742188 Z M 13.972656 3.742188 "/>
</g>
</svg>
