<?xml version="1.0" encoding="UTF-8"?>
<svg xmlns="http://www.w3.org/2000/svg" xmlns:xlink="http://www.w3.org/1999/xlink" width="18.75pt" height="18.75pt" viewBox="0 0 18.75 18.75" version="1.1">
<g id="surface4950">
<path style=" stroke:none;fill-rule:nonzero;fill:rgb(9.019608%,9.019608%,9.411765%);fill-opacity:1;" d="M 9 1.5 C 4.867188 1.5 1.5 4.867188 1.5 9 C 1.5 10.925781 2.238281 12.675781 3.429688 14 C 3.605469 14.207031 3.878906 14.296875 4.144531 14.242188 C 4.410156 14.191406 4.625 13.996094 4.707031 13.738281 C 4.792969 13.480469 4.726562 13.199219 4.542969 13 C 3.585938 11.933594 3 10.542969 3 9 C 3 5.675781 5.675781 3 9 3 C 12.324219 3 15 5.675781 15 9 C 15 10.542969 14.414062 11.933594 13.457031 13 C 13.273438 13.199219 13.207031 13.480469 13.292969 13.738281 C 13.375 13.996094 13.589844 14.191406 13.855469 14.242188 C 14.121094 14.296875 14.394531 14.207031 14.574219 14 C 15.761719 12.675781 16.5 10.925781 16.5 9 C 16.5 4.867188 13.132812 1.5 9 1.5 Z M 9 9 C 8.585938 9 8.25 9.335938 8.25 9.75 L 8.25 14.25 L 6.835938 14.25 C 6.425781 14.25 6.222656 14.746094 6.511719 15.03125 L 8.535156 17.058594 C 8.792969 17.3125 9.207031 17.3125 9.464844 17.058594 L 11.488281 15.03125 C 11.777344 14.746094 11.574219 14.25 11.164062 14.25 L 9.75 14.25 L 9.75 9.75 C 9.75 9.335938 9.414062 9 9 9 Z M 9 9 "/>
</g>
</svg>
