<?xml version="1.0" encoding="UTF-8"?>
<svg xmlns="http://www.w3.org/2000/svg" xmlns:xlink="http://www.w3.org/1999/xlink" width="18.75pt" height="18.75pt" viewBox="0 0 18.75 18.75" version="1.1">
<g id="surface4998">
<path style=" stroke:none;fill-rule:nonzero;fill:rgb(9.019608%,9.019608%,9.411765%);fill-opacity:1;" d="M 9 1.5 C 7.074219 1.5 5.324219 2.238281 4 3.429688 C 3.792969 3.605469 3.703125 3.878906 3.757812 4.144531 C 3.808594 4.410156 4.003906 4.625 4.261719 4.707031 C 4.519531 4.792969 4.800781 4.726562 5 4.542969 C 6.066406 3.585938 7.457031 3 9 3 C 12.324219 3 15 5.675781 15 9 C 15 12.324219 12.324219 15 9 15 C 7.457031 15 6.066406 14.414062 5 13.457031 C 4.800781 13.273438 4.519531 13.207031 4.261719 13.292969 C 4.003906 13.375 3.808594 13.589844 3.757812 13.855469 C 3.703125 14.121094 3.792969 14.394531 4 14.574219 C 5.324219 15.761719 7.074219 16.5 9 16.5 C 13.132812 16.5 16.5 13.132812 16.5 9 C 16.5 4.867188 13.132812 1.5 9 1.5 Z M 3.210938 6.382812 C 3.125 6.398438 3.039062 6.4375 2.96875 6.511719 L 0.941406 8.535156 C 0.6875 8.792969 0.6875 9.207031 0.941406 9.464844 L 2.96875 11.488281 C 3.253906 11.777344 3.75 11.574219 3.75 11.164062 L 3.75 9.75 L 8.25 9.75 C 8.664062 9.75 9 9.414062 9 9 C 9 8.585938 8.664062 8.25 8.25 8.25 L 3.75 8.25 L 3.75 6.835938 C 3.75 6.527344 3.472656 6.335938 3.210938 6.382812 Z M 3.210938 6.382812 "/>
</g>
</svg>
