<?xml version="1.0" encoding="UTF-8"?>
<svg xmlns="http://www.w3.org/2000/svg" xmlns:xlink="http://www.w3.org/1999/xlink" width="18.75pt" height="18.75pt" viewBox="0 0 18.75 18.75" version="1.1">
<g id="surface5004">
<path style=" stroke:none;fill-rule:nonzero;fill:rgb(9.019608%,9.019608%,9.411765%);fill-opacity:1;" d="M 9 1.5 C 4.867188 1.5 1.5 4.867188 1.5 9 C 1.5 13.132812 4.867188 16.5 9 16.5 C 10.925781 16.5 12.675781 15.761719 14 14.574219 C 14.207031 14.394531 14.296875 14.121094 14.242188 13.855469 C 14.191406 13.589844 13.996094 13.375 13.738281 13.292969 C 13.480469 13.207031 13.199219 13.273438 13 13.457031 C 11.933594 14.414062 10.542969 15 9 15 C 5.675781 15 3 12.324219 3 9 C 3 5.675781 5.675781 3 9 3 C 10.542969 3 11.933594 3.585938 13 4.542969 C 13.199219 4.726562 13.480469 4.792969 13.738281 4.707031 C 13.996094 4.625 14.191406 4.410156 14.242188 4.144531 C 14.296875 3.878906 14.207031 3.605469 14 3.429688 C 12.675781 2.238281 10.925781 1.5 9 1.5 Z M 14.789062 6.382812 C 14.527344 6.335938 14.25 6.527344 14.25 6.835938 L 14.25 8.25 L 9.75 8.25 C 9.335938 8.25 9 8.585938 9 9 C 9 9.414062 9.335938 9.75 9.75 9.75 L 14.25 9.75 L 14.25 11.164062 C 14.25 11.574219 14.746094 11.777344 15.03125 11.488281 L 17.058594 9.464844 C 17.3125 9.207031 17.3125 8.792969 17.058594 8.535156 L 15.03125 6.511719 C 14.960938 6.4375 14.875 6.398438 14.789062 6.382812 Z M 14.789062 6.382812 "/>
</g>
</svg>
