<?xml version="1.0" encoding="UTF-8"?>
<svg xmlns="http://www.w3.org/2000/svg" xmlns:xlink="http://www.w3.org/1999/xlink" width="18.75pt" height="18.75pt" viewBox="0 0 18.75 18.75" version="1.1">
<g id="surface5028">
<path style=" stroke:none;fill-rule:nonzero;fill:rgb(9.019608%,9.019608%,9.411765%);fill-opacity:1;" d="M 9 1.5 C 4.863281 1.5 1.5 4.863281 1.5 9 C 1.5 13.136719 4.863281 16.5 9 16.5 C 13.136719 16.5 16.5 13.136719 16.5 9 C 16.5 4.863281 13.136719 1.5 9 1.5 Z M 9.5625 11.4375 C 9.269531 11.144531 9.269531 10.667969 9.5625 10.378906 L 10.191406 9.75 L 6 9.75 C 5.585938 9.75 5.25 9.414062 5.25 9 C 5.25 8.585938 5.585938 8.25 6 8.25 L 10.191406 8.25 L 9.5625 7.621094 C 9.269531 7.332031 9.269531 6.855469 9.5625 6.5625 C 9.855469 6.269531 10.332031 6.269531 10.621094 6.5625 L 12.53125 8.46875 C 12.824219 8.761719 12.824219 9.238281 12.53125 9.53125 L 10.621094 11.4375 C 10.332031 11.730469 9.855469 11.730469 9.5625 11.4375 Z M 9.5625 11.4375 "/>
</g>
</svg>
