<?xml version="1.0" encoding="UTF-8"?>
<svg xmlns="http://www.w3.org/2000/svg" xmlns:xlink="http://www.w3.org/1999/xlink" width="18.75pt" height="18.75pt" viewBox="0 0 18.75 18.75" version="1.1">
<g id="surface4986">
<path style=" stroke:none;fill-rule:nonzero;fill:rgb(9.019608%,9.019608%,9.411765%);fill-opacity:1;" d="M 14.304688 3.695312 C 11.375 0.769531 6.625 0.769531 3.695312 3.695312 C 0.769531 6.625 0.769531 11.375 3.695312 14.304688 C 6.625 17.230469 11.375 17.230469 14.304688 14.304688 C 17.230469 11.375 17.230469 6.625 14.304688 3.695312 Z M 11.25 11.25 C 10.835938 11.25 10.5 10.914062 10.5 10.5 L 10.5 8.558594 L 7.589844 11.46875 C 7.296875 11.761719 6.824219 11.761719 6.53125 11.46875 C 6.238281 11.175781 6.238281 10.703125 6.53125 10.410156 L 9.441406 7.5 L 7.5 7.5 C 7.085938 7.5 6.75 7.164062 6.75 6.75 C 6.75 6.335938 7.085938 6 7.5 6 L 11.25 6 C 11.664062 6 12 6.335938 12 6.75 L 12 10.5 C 12 10.914062 11.664062 11.25 11.25 11.25 Z M 11.25 11.25 "/>
</g>
</svg>
