<?xml version="1.0" encoding="UTF-8"?>
<svg xmlns="http://www.w3.org/2000/svg" xmlns:xlink="http://www.w3.org/1999/xlink" width="18.75pt" height="18.75pt" viewBox="0 0 18.75 18.75" version="1.1">
<g id="surface4968">
<path style=" stroke:none;fill-rule:nonzero;fill:rgb(9.019608%,9.019608%,9.411765%);fill-opacity:1;" d="M 3.695312 14.304688 C 6.625 17.230469 11.375 17.230469 14.304688 14.304688 C 17.230469 11.375 17.230469 6.625 14.304688 3.695312 C 11.375 0.769531 6.625 0.769531 3.695312 3.695312 C 0.769531 6.625 0.769531 11.375 3.695312 14.304688 Z M 7.589844 6.53125 L 10.5 9.441406 L 10.5 7.5 C 10.5 7.085938 10.835938 6.75 11.25 6.75 C 11.664062 6.75 12 7.085938 12 7.5 L 12 11.25 C 12 11.664062 11.664062 12 11.25 12 L 7.5 12 C 7.085938 12 6.75 11.664062 6.75 11.25 C 6.75 10.835938 7.085938 10.5 7.5 10.5 L 9.441406 10.5 L 6.53125 7.589844 C 6.238281 7.296875 6.238281 6.824219 6.53125 6.53125 C 6.824219 6.238281 7.296875 6.238281 7.589844 6.53125 Z M 7.589844 6.53125 "/>
</g>
</svg>
