<?xml version="1.0" encoding="UTF-8"?>
<svg xmlns="http://www.w3.org/2000/svg" xmlns:xlink="http://www.w3.org/1999/xlink" width="18.75pt" height="18.75pt" viewBox="0 0 18.75 18.75" version="1.1">
<g id="surface5016">
<path style=" stroke:none;fill-rule:nonzero;fill:rgb(9.019608%,9.019608%,9.411765%);fill-opacity:1;" d="M 14.304688 3.695312 C 11.375 0.769531 6.625 0.769531 3.695312 3.695312 C 0.769531 6.625 0.769531 11.375 3.695312 14.304688 C 6.625 17.230469 11.375 17.230469 14.304688 14.304688 C 17.230469 11.375 17.230469 6.625 14.304688 3.695312 Z M 11.25 11.25 C 11.25 11.664062 10.914062 12 10.5 12 L 6.75 12 C 6.335938 12 6 11.664062 6 11.25 L 6 7.5 C 6 7.085938 6.335938 6.75 6.75 6.75 C 7.164062 6.75 7.5 7.085938 7.5 7.5 L 7.5 9.441406 L 10.410156 6.53125 C 10.703125 6.238281 11.175781 6.238281 11.46875 6.53125 C 11.761719 6.824219 11.761719 7.296875 11.46875 7.589844 L 8.558594 10.5 L 10.5 10.5 C 10.914062 10.5 11.25 10.835938 11.25 11.25 Z M 11.25 11.25 "/>
</g>
</svg>
