<?xml version="1.0" encoding="UTF-8"?>
<svg xmlns="http://www.w3.org/2000/svg" xmlns:xlink="http://www.w3.org/1999/xlink" width="18.75pt" height="18.75pt" viewBox="0 0 18.75 18.75" version="1.1">
<g id="surface4980">
<path style=" stroke:none;fill-rule:nonzero;fill:rgb(9.019608%,9.019608%,9.411765%);fill-opacity:1;" d="M 14.304688 3.695312 C 11.375 0.769531 6.625 0.769531 3.695312 3.695312 C 0.769531 6.625 0.769531 11.375 3.695312 14.304688 C 6.625 17.230469 11.375 17.230469 14.304688 14.304688 C 17.230469 11.375 17.230469 6.625 14.304688 3.695312 Z M 10.410156 11.46875 L 7.5 8.558594 L 7.5 10.5 C 7.5 10.914062 7.164062 11.25 6.75 11.25 C 6.335938 11.25 6 10.914062 6 10.5 L 6 6.75 C 6 6.335938 6.335938 6 6.75 6 L 10.5 6 C 10.914062 6 11.25 6.335938 11.25 6.75 C 11.25 7.164062 10.914062 7.5 10.5 7.5 L 8.558594 7.5 L 11.46875 10.410156 C 11.761719 10.703125 11.761719 11.175781 11.46875 11.46875 C 11.175781 11.761719 10.703125 11.761719 10.410156 11.46875 Z M 10.410156 11.46875 "/>
</g>
</svg>
