<?xml version="1.0" encoding="UTF-8"?>
<svg xmlns="http://www.w3.org/2000/svg" xmlns:xlink="http://www.w3.org/1999/xlink" width="18.75pt" height="18.75pt" viewBox="0 0 18.75 18.75" version="1.1">
<g id="surface4956">
<path style=" stroke:none;fill-rule:nonzero;fill:rgb(9.019608%,9.019608%,9.411765%);fill-opacity:1;" d="M 14.308594 14.300781 C 17.230469 11.375 17.230469 6.617188 14.308594 3.691406 C 11.382812 0.769531 6.625 0.769531 3.699219 3.691406 C 0.777344 6.617188 0.777344 11.375 3.699219 14.300781 C 6.625 17.222656 11.382812 17.222656 14.308594 14.300781 Z M 11.402344 11.996094 L 8.859375 11.996094 C 8.617188 11.996094 8.398438 11.851562 8.304688 11.625 C 8.210938 11.402344 8.261719 11.144531 8.433594 10.972656 L 9.175781 10.230469 L 6.523438 7.578125 C 6.234375 7.285156 6.234375 6.808594 6.523438 6.515625 C 6.816406 6.226562 7.292969 6.226562 7.585938 6.515625 L 10.238281 9.167969 L 10.980469 8.425781 C 11.152344 8.257812 11.410156 8.203125 11.632812 8.296875 C 11.707031 8.328125 11.773438 8.371094 11.828125 8.425781 C 11.9375 8.539062 12.003906 8.6875 12.003906 8.851562 L 12.003906 11.398438 C 12.003906 11.726562 11.734375 11.996094 11.402344 11.996094 Z M 11.402344 11.996094 "/>
</g>
</svg>
