<?xml version="1.0" encoding="UTF-8"?>
<svg xmlns="http://www.w3.org/2000/svg" xmlns:xlink="http://www.w3.org/1999/xlink" width="18.75pt" height="18.75pt" viewBox="0 0 18.75 18.75" version="1.1">
<g id="surface4920">
<path style=" stroke:none;fill-rule:nonzero;fill:rgb(9.019608%,9.019608%,9.411765%);fill-opacity:1;" d="M 9 1.5 C 4.863281 1.5 1.5 4.863281 1.5 9 C 1.5 13.136719 4.863281 16.5 9 16.5 C 13.136719 16.5 16.5 13.136719 16.5 9 C 16.5 4.863281 13.136719 1.5 9 1.5 Z M 12.574219 9.421875 L 10.773438 11.222656 C 10.660156 11.339844 10.507812 11.398438 10.351562 11.398438 C 10.273438 11.398438 10.195312 11.386719 10.121094 11.355469 C 9.894531 11.261719 9.75 11.042969 9.75 10.800781 L 9.75 9.75 L 6 9.75 C 5.585938 9.75 5.25 9.414062 5.25 9 C 5.25 8.585938 5.585938 8.25 6 8.25 L 9.75 8.25 L 9.75 7.199219 C 9.75 6.957031 9.894531 6.738281 10.121094 6.644531 C 10.34375 6.554688 10.601562 6.605469 10.773438 6.777344 L 12.574219 8.574219 C 12.808594 8.808594 12.808594 9.191406 12.574219 9.421875 Z M 12.574219 9.421875 "/>
</g>
</svg>
