<?xml version="1.0" encoding="UTF-8"?>
<svg xmlns="http://www.w3.org/2000/svg" xmlns:xlink="http://www.w3.org/1999/xlink" width="18.75pt" height="18.75pt" viewBox="0 0 18.75 18.75" version="1.1">
<g id="surface5022">
<path style=" stroke:none;fill-rule:nonzero;fill:rgb(9.019608%,9.019608%,9.411765%);fill-opacity:1;" d="M 9 1.5 C 4.863281 1.5 1.5 4.863281 1.5 9 C 1.5 13.136719 4.863281 16.5 9 16.5 C 13.136719 16.5 16.5 13.136719 16.5 9 C 16.5 4.863281 13.136719 1.5 9 1.5 Z M 9.425781 5.425781 L 11.222656 7.226562 C 11.394531 7.398438 11.445312 7.65625 11.355469 7.878906 C 11.261719 8.105469 11.042969 8.25 10.800781 8.25 L 9.75 8.25 L 9.75 12 C 9.75 12.414062 9.414062 12.75 9 12.75 C 8.585938 12.75 8.25 12.414062 8.25 12 L 8.25 8.25 L 7.199219 8.25 C 6.957031 8.25 6.738281 8.105469 6.644531 7.878906 C 6.613281 7.804688 6.601562 7.726562 6.601562 7.648438 C 6.601562 7.492188 6.660156 7.339844 6.777344 7.226562 L 8.578125 5.425781 C 8.808594 5.191406 9.191406 5.191406 9.425781 5.425781 Z M 9.425781 5.425781 "/>
</g>
</svg>
