<?xml version="1.0" encoding="UTF-8"?>
<svg xmlns="http://www.w3.org/2000/svg" xmlns:xlink="http://www.w3.org/1999/xlink" width="18.75pt" height="18.75pt" viewBox="0 0 18.75 18.75" version="1.1">
<g id="surface4938">
<path style=" stroke:none;fill-rule:nonzero;fill:rgb(9.019608%,9.019608%,9.411765%);fill-opacity:1;" d="M 1.5 9 C 1.5 13.136719 4.863281 16.5 9 16.5 C 13.136719 16.5 16.5 13.136719 16.5 9 C 16.5 4.863281 13.136719 1.5 9 1.5 C 4.863281 1.5 1.5 4.863281 1.5 9 Z M 5.425781 8.574219 L 7.226562 6.777344 C 7.398438 6.605469 7.65625 6.554688 7.878906 6.644531 C 8.105469 6.738281 8.25 6.957031 8.25 7.199219 L 8.25 8.25 L 12 8.25 C 12.414062 8.25 12.75 8.585938 12.75 9 C 12.75 9.414062 12.414062 9.75 12 9.75 L 8.25 9.75 L 8.25 10.800781 C 8.25 11.042969 8.105469 11.261719 7.878906 11.355469 C 7.804688 11.386719 7.726562 11.398438 7.648438 11.398438 C 7.492188 11.398438 7.339844 11.339844 7.226562 11.222656 L 5.425781 9.421875 C 5.191406 9.191406 5.191406 8.808594 5.425781 8.574219 Z M 5.425781 8.574219 "/>
</g>
</svg>
