<?xml version="1.0" encoding="UTF-8"?>
<svg xmlns="http://www.w3.org/2000/svg" xmlns:xlink="http://www.w3.org/1999/xlink" width="18.75pt" height="18.75pt" viewBox="0 0 18.75 18.75" version="1.1">
<g id="surface4992">
<path style=" stroke:none;fill-rule:nonzero;fill:rgb(9.019608%,9.019608%,9.411765%);fill-opacity:1;" d="M 3.695312 3.695312 C 0.773438 6.621094 0.773438 11.378906 3.695312 14.304688 C 6.621094 17.226562 11.378906 17.226562 14.304688 14.304688 C 17.226562 11.378906 17.226562 6.621094 14.304688 3.695312 C 11.378906 0.773438 6.621094 0.773438 3.695312 3.695312 Z M 6.601562 6 L 9.144531 6 C 9.386719 6 9.605469 6.144531 9.699219 6.371094 C 9.792969 6.59375 9.742188 6.851562 9.570312 7.023438 L 8.828125 7.765625 L 11.480469 10.417969 C 11.773438 10.710938 11.773438 11.1875 11.480469 11.480469 C 11.1875 11.773438 10.710938 11.773438 10.417969 11.480469 L 7.765625 8.828125 L 7.023438 9.570312 C 6.851562 9.742188 6.59375 9.792969 6.371094 9.699219 C 6.296875 9.667969 6.230469 9.625 6.175781 9.570312 C 6.066406 9.460938 6 9.308594 6 9.144531 L 6 6.601562 C 6 6.269531 6.269531 6 6.601562 6 Z M 6.601562 6 "/>
</g>
</svg>
