<?xml version="1.0" encoding="UTF-8"?>
<svg xmlns="http://www.w3.org/2000/svg" xmlns:xlink="http://www.w3.org/1999/xlink" width="18.75pt" height="18.75pt" viewBox="0 0 18.75 18.75" version="1.1">
<g id="surface4944">
<path style=" stroke:none;fill-rule:nonzero;fill:rgb(9.019608%,9.019608%,9.411765%);fill-opacity:1;" d="M 16.5 9 C 16.5 4.863281 13.136719 1.5 9 1.5 C 4.863281 1.5 1.5 4.863281 1.5 9 C 1.5 13.136719 4.863281 16.5 9 16.5 C 13.136719 16.5 16.5 13.136719 16.5 9 Z M 8.578125 12.574219 L 6.777344 10.773438 C 6.660156 10.660156 6.601562 10.507812 6.601562 10.351562 C 6.601562 10.273438 6.613281 10.195312 6.644531 10.121094 C 6.738281 9.894531 6.957031 9.75 7.199219 9.75 L 8.25 9.75 L 8.25 6 C 8.25 5.585938 8.585938 5.25 9 5.25 C 9.414062 5.25 9.75 5.585938 9.75 6 L 9.75 9.75 L 10.800781 9.75 C 11.042969 9.75 11.261719 9.894531 11.355469 10.121094 C 11.445312 10.34375 11.394531 10.601562 11.222656 10.773438 L 9.425781 12.574219 C 9.191406 12.808594 8.808594 12.808594 8.578125 12.574219 Z M 8.578125 12.574219 "/>
</g>
</svg>
