<?xml version="1.0" encoding="UTF-8"?>
<svg xmlns="http://www.w3.org/2000/svg" xmlns:xlink="http://www.w3.org/1999/xlink" width="18.75pt" height="18.75pt" viewBox="0 0 18.75 18.75" version="1.1">
<g id="surface4974">
<path style=" stroke:none;fill-rule:nonzero;fill:rgb(9.019608%,9.019608%,9.411765%);fill-opacity:1;" d="M 3.691406 14.308594 C 6.617188 17.230469 11.375 17.230469 14.300781 14.308594 C 17.222656 11.382812 17.222656 6.625 14.300781 3.699219 C 11.375 0.777344 6.617188 0.777344 3.691406 3.699219 C 0.769531 6.625 0.769531 11.382812 3.691406 14.308594 Z M 5.996094 11.402344 L 5.996094 8.859375 C 5.996094 8.617188 6.140625 8.398438 6.367188 8.304688 C 6.589844 8.210938 6.847656 8.261719 7.019531 8.433594 L 7.761719 9.175781 L 10.414062 6.523438 C 10.707031 6.234375 11.183594 6.234375 11.476562 6.523438 C 11.769531 6.816406 11.769531 7.292969 11.476562 7.585938 L 8.824219 10.238281 L 9.566406 10.980469 C 9.738281 11.152344 9.789062 11.410156 9.695312 11.632812 C 9.664062 11.707031 9.621094 11.773438 9.566406 11.828125 C 9.457031 11.9375 9.304688 12.003906 9.140625 12.003906 L 6.597656 12.003906 C 6.265625 12.003906 5.996094 11.734375 5.996094 11.402344 Z M 5.996094 11.402344 "/>
</g>
</svg>
