<?xml version="1.0" encoding="UTF-8"?>
<svg xmlns="http://www.w3.org/2000/svg" xmlns:xlink="http://www.w3.org/1999/xlink" width="18.75pt" height="18.75pt" viewBox="0 0 18.75 18.75" version="1.1">
<g id="surface5010">
<path style=" stroke:none;fill-rule:nonzero;fill:rgb(9.019608%,9.019608%,9.411765%);fill-opacity:1;" d="M 14.300781 3.691406 C 11.375 0.769531 6.617188 0.769531 3.691406 3.691406 C 0.769531 6.617188 0.769531 11.375 3.691406 14.300781 C 6.617188 17.222656 11.375 17.222656 14.300781 14.300781 C 17.222656 11.375 17.222656 6.617188 14.300781 3.691406 Z M 11.996094 6.597656 L 11.996094 9.140625 C 11.996094 9.382812 11.851562 9.601562 11.625 9.695312 C 11.402344 9.789062 11.144531 9.738281 10.972656 9.566406 L 10.230469 8.824219 L 7.578125 11.476562 C 7.285156 11.765625 6.808594 11.765625 6.515625 11.476562 C 6.226562 11.183594 6.226562 10.707031 6.515625 10.414062 L 9.167969 7.761719 L 8.425781 7.019531 C 8.257812 6.847656 8.203125 6.589844 8.296875 6.367188 C 8.328125 6.292969 8.371094 6.226562 8.425781 6.171875 C 8.539062 6.0625 8.6875 5.996094 8.851562 5.996094 L 11.398438 5.996094 C 11.726562 5.996094 11.996094 6.265625 11.996094 6.597656 Z M 11.996094 6.597656 "/>
</g>
</svg>
