<?xml version="1.0" encoding="UTF-8"?>
<svg xmlns="http://www.w3.org/2000/svg" xmlns:xlink="http://www.w3.org/1999/xlink" width="18.75pt" height="18.75pt" viewBox="0 0 18.75 18.75" version="1.1">
<g id="surface5034">
<path style=" stroke:none;fill-rule:nonzero;fill:rgb(9.019608%,9.019608%,9.411765%);fill-opacity:1;" d="M 16.5 9 C 16.5 4.859375 13.140625 1.5 9 1.5 C 4.859375 1.5 1.5 4.859375 1.5 9 C 1.5 13.140625 4.859375 16.5 9 16.5 C 13.140625 16.5 16.5 13.140625 16.5 9 Z M 8.25 12 L 8.25 7.808594 L 7.058594 9 C 6.769531 9.292969 6.292969 9.292969 6 9 C 5.707031 8.707031 5.707031 8.230469 6 7.941406 L 8.46875 5.46875 C 8.761719 5.175781 9.238281 5.175781 9.53125 5.46875 L 12 7.941406 C 12.292969 8.230469 12.292969 8.707031 12 9 C 11.707031 9.292969 11.230469 9.292969 10.941406 9 L 9.75 7.808594 L 9.75 12 C 9.75 12.414062 9.414062 12.75 9 12.75 C 8.585938 12.75 8.25 12.414062 8.25 12 Z M 8.25 12 "/>
</g>
</svg>
