<?xml version="1.0" encoding="UTF-8"?>
<svg xmlns="http://www.w3.org/2000/svg" xmlns:xlink="http://www.w3.org/1999/xlink" width="18.75pt" height="18.75pt" viewBox="0 0 18.75 18.75" version="1.1">
<g id="surface4264">
<path style=" stroke:none;fill-rule:nonzero;fill:rgb(9.019608%,9.019608%,9.411765%);fill-opacity:1;" d="M 13.992188 5.238281 C 13.730469 5.277344 13.5 5.492188 13.5 5.804688 L 13.5 8.25 L 9.75 8.25 C 9.480469 8.246094 9.226562 8.386719 9.089844 8.621094 C 8.957031 8.855469 8.957031 9.144531 9.089844 9.378906 C 9.226562 9.613281 9.480469 9.753906 9.75 9.75 L 13.5 9.75 L 13.5 12.195312 C 13.5 12.691406 14.09375 12.949219 14.457031 12.613281 L 17.78125 9.53125 C 18.074219 9.238281 18.074219 8.761719 17.78125 8.46875 L 14.457031 5.386719 C 14.320312 5.261719 14.152344 5.21875 13.992188 5.238281 Z M 0.75 8.25 C 0.335938 8.25 0 8.585938 0 9 C 0 9.414062 0.335938 9.75 0.75 9.75 C 1.164062 9.75 1.5 9.414062 1.5 9 C 1.5 8.585938 1.164062 8.25 0.75 8.25 Z M 3.75 8.25 C 3.335938 8.25 3 8.585938 3 9 C 3 9.414062 3.335938 9.75 3.75 9.75 C 4.164062 9.75 4.5 9.414062 4.5 9 C 4.5 8.585938 4.164062 8.25 3.75 8.25 Z M 6.75 8.25 C 6.335938 8.25 6 8.585938 6 9 C 6 9.414062 6.335938 9.75 6.75 9.75 C 7.164062 9.75 7.5 9.414062 7.5 9 C 7.5 8.585938 7.164062 8.25 6.75 8.25 Z M 6.75 8.25 "/>
</g>
</svg>
