<?xml version="1.0" encoding="UTF-8"?>
<svg xmlns="http://www.w3.org/2000/svg" xmlns:xlink="http://www.w3.org/1999/xlink" width="18.75pt" height="18.75pt" viewBox="0 0 18.75 18.75" version="1.1">
<g id="surface4288">
<path style=" stroke:none;fill-rule:nonzero;fill:rgb(9.019608%,9.019608%,9.411765%);fill-opacity:1;" d="M 9 1.5 C 4.867188 1.5 1.5 4.867188 1.5 9 C 1.5 13.132812 4.867188 16.5 9 16.5 C 13.132812 16.5 16.5 13.132812 16.5 9 L 16.5 8.980469 C 16.492188 8.566406 16.152344 8.234375 15.738281 8.238281 C 15.324219 8.246094 14.992188 8.585938 15 9 C 15 12.324219 12.324219 15 9 15 C 5.675781 15 3 12.324219 3 9 C 3 5.675781 5.675781 3 9 3 C 10.117188 3 11.160156 3.308594 12.050781 3.835938 L 11.378906 4.511719 C 11.105469 4.785156 11.296875 5.25 11.683594 5.25 L 14.570312 5.25 C 14.808594 5.25 15 5.058594 15 4.820312 L 15 1.933594 C 15 1.546875 14.535156 1.355469 14.261719 1.628906 L 13.136719 2.753906 C 11.949219 1.964844 10.527344 1.5 9 1.5 Z M 9 5.25 C 7.988281 5.25 7.046875 5.652344 6.351562 6.351562 L 5.890625 5.890625 C 5.652344 5.652344 5.25 5.820312 5.25 6.15625 L 5.25 7.875 C 5.25 8.082031 5.417969 8.25 5.625 8.25 L 7.34375 8.25 C 7.679688 8.25 7.847656 7.847656 7.609375 7.609375 L 7.414062 7.414062 C 7.832031 6.996094 8.394531 6.75 9 6.75 C 10.472656 6.75 11.617188 8.167969 11.140625 9.707031 C 10.929688 10.398438 10.359375 10.957031 9.664062 11.15625 C 8.839844 11.390625 8.019531 11.171875 7.457031 10.636719 C 7.199219 10.394531 6.824219 10.332031 6.523438 10.519531 C 6.101562 10.777344 6.046875 11.363281 6.402344 11.707031 C 7.246094 12.519531 8.433594 12.902344 9.664062 12.691406 C 11.144531 12.441406 12.359375 11.269531 12.667969 9.800781 C 13.167969 7.386719 11.328125 5.25 9 5.25 Z M 9 5.25 "/>
</g>
</svg>
