<?xml version="1.0" encoding="UTF-8"?>
<svg xmlns="http://www.w3.org/2000/svg" xmlns:xlink="http://www.w3.org/1999/xlink" width="18.75pt" height="18.75pt" viewBox="0 0 18.75 18.75" version="1.1">
<g id="surface4240">
<path style=" stroke:none;fill-rule:nonzero;fill:rgb(9.019608%,9.019608%,9.411765%);fill-opacity:1;" d="M 9 1.5 L 9 1.511719 C 8.261719 1.507812 7.519531 1.613281 6.796875 1.832031 C 6.332031 1.972656 6.121094 2.511719 6.363281 2.933594 C 6.535156 3.230469 6.886719 3.378906 7.214844 3.277344 C 7.800781 3.097656 8.402344 3.011719 9 3.011719 L 9 3 C 11.3125 3 13.304688 4.324219 14.304688 6.242188 L 13.699219 6.453125 C 13.382812 6.5625 13.359375 7 13.660156 7.144531 L 15.578125 8.074219 C 15.773438 8.171875 16.007812 8.082031 16.089844 7.878906 L 16.84375 6.015625 C 16.964844 5.71875 16.679688 5.414062 16.375 5.523438 L 15.75 5.738281 C 14.535156 3.234375 11.96875 1.5 9 1.5 Z M 4.484375 3.421875 L 2.496094 3.695312 C 2.175781 3.742188 2.058594 4.144531 2.300781 4.351562 L 2.800781 4.785156 C 1.238281 7.089844 1.019531 10.179688 2.503906 12.75 L 2.515625 12.746094 C 2.882812 13.386719 3.347656 13.984375 3.90625 14.503906 C 4.257812 14.828125 4.824219 14.734375 5.0625 14.320312 L 5.066406 14.316406 C 5.238281 14.019531 5.1875 13.640625 4.9375 13.40625 C 4.488281 12.992188 4.113281 12.511719 3.816406 11.992188 L 3.804688 12 C 2.648438 10 2.796875 7.613281 3.957031 5.785156 L 4.445312 6.203125 C 4.699219 6.421875 5.089844 6.226562 5.066406 5.894531 L 4.910156 3.765625 C 4.894531 3.550781 4.699219 3.390625 4.484375 3.421875 Z M 15.574219 9.75 C 15.230469 9.75 14.925781 9.980469 14.847656 10.316406 C 14.710938 10.914062 14.484375 11.476562 14.183594 11.992188 L 14.195312 12 C 13.039062 14 10.898438 15.066406 8.734375 14.976562 L 8.855469 14.34375 C 8.917969 14.015625 8.554688 13.773438 8.277344 13.960938 L 6.511719 15.160156 C 6.332031 15.28125 6.292969 15.527344 6.425781 15.699219 L 7.660156 17.285156 C 7.859375 17.539062 8.265625 17.441406 8.324219 17.125 L 8.449219 16.476562 C 11.226562 16.675781 14.011719 15.320312 15.496094 12.75 L 15.488281 12.746094 C 15.859375 12.101562 16.144531 11.402344 16.3125 10.660156 C 16.421875 10.191406 16.050781 9.75 15.574219 9.75 Z M 15.574219 9.75 "/>
</g>
</svg>
