<?xml version="1.0" encoding="UTF-8"?>
<svg xmlns="http://www.w3.org/2000/svg" xmlns:xlink="http://www.w3.org/1999/xlink" width="18.75pt" height="18.75pt" viewBox="0 0 18.75 18.75" version="1.1">
<g id="surface4318">
<path style=" stroke:none;fill-rule:nonzero;fill:rgb(9.019608%,9.019608%,9.411765%);fill-opacity:1;" d="M 11.992188 1.492188 C 11.6875 1.492188 11.414062 1.679688 11.296875 1.960938 C 11.183594 2.242188 11.25 2.566406 11.46875 2.78125 L 13.191406 4.5 L 6.75 4.5 C 4.273438 4.5 2.25 6.523438 2.25 9 L 2.25 15 C 2.246094 15.269531 2.386719 15.523438 2.621094 15.660156 C 2.855469 15.792969 3.144531 15.792969 3.378906 15.660156 C 3.613281 15.523438 3.753906 15.269531 3.75 15 L 3.75 9 C 3.75 7.335938 5.085938 6 6.75 6 L 13.191406 6 L 11.46875 7.71875 C 11.273438 7.90625 11.195312 8.1875 11.261719 8.449219 C 11.332031 8.710938 11.539062 8.917969 11.800781 8.988281 C 12.0625 9.054688 12.34375 8.976562 12.53125 8.78125 L 15.53125 5.78125 C 15.824219 5.488281 15.824219 5.011719 15.53125 4.71875 L 12.53125 1.71875 C 12.390625 1.574219 12.195312 1.492188 11.992188 1.492188 Z M 11.992188 1.492188 "/>
</g>
</svg>
