<?xml version="1.0" encoding="UTF-8"?>
<svg xmlns="http://www.w3.org/2000/svg" xmlns:xlink="http://www.w3.org/1999/xlink" width="18.75pt" height="18.75pt" viewBox="0 0 18.75 18.75" version="1.1">
<g id="surface4312">
<path style=" stroke:none;fill-rule:nonzero;fill:rgb(9.019608%,9.019608%,9.411765%);fill-opacity:1;" d="M 2.242188 1.492188 C 1.9375 1.492188 1.664062 1.679688 1.546875 1.960938 C 1.433594 2.242188 1.5 2.566406 1.71875 2.78125 L 3.199219 4.261719 C 2.140625 5.554688 1.5 7.199219 1.5 9 C 1.5 13.136719 4.863281 16.5 9 16.5 C 10.796875 16.5 12.445312 15.859375 13.738281 14.800781 L 15.21875 16.28125 C 15.40625 16.476562 15.6875 16.554688 15.949219 16.488281 C 16.210938 16.417969 16.417969 16.210938 16.488281 15.949219 C 16.554688 15.6875 16.476562 15.40625 16.28125 15.21875 L 14.800781 13.742188 C 14.808594 13.734375 14.8125 13.730469 14.820312 13.722656 L 13.75 12.652344 C 13.742188 12.660156 13.738281 12.664062 13.730469 12.671875 L 5.328125 4.265625 L 2.78125 1.71875 C 2.640625 1.574219 2.445312 1.492188 2.242188 1.492188 Z M 8.15625 1.546875 C 7.222656 1.652344 6.339844 1.933594 5.539062 2.351562 L 6.664062 3.476562 C 7.1875 3.25 7.75 3.101562 8.339844 3.035156 C 8.71875 2.996094 9 2.675781 9 2.296875 C 9 1.847656 8.605469 1.496094 8.15625 1.546875 Z M 13.179688 3 C 12.941406 3 12.75 3.191406 12.75 3.429688 L 12.75 6.316406 C 12.75 6.703125 13.214844 6.894531 13.488281 6.621094 L 14.160156 5.945312 C 14.707031 6.867188 15 7.914062 15 9 C 15 9.820312 14.835938 10.601562 14.535156 11.316406 L 15.65625 12.441406 C 16.191406 11.40625 16.5 10.238281 16.5 9 C 16.5 7.515625 16.058594 6.082031 15.246094 4.863281 L 16.371094 3.738281 C 16.644531 3.464844 16.453125 3 16.066406 3 Z M 4.269531 5.332031 L 12.667969 13.730469 C 11.652344 14.519531 10.382812 15 9 15 C 5.691406 15 3 12.304688 3 9 C 3 7.613281 3.476562 6.34375 4.269531 5.332031 Z M 4.269531 5.332031 "/>
</g>
</svg>
