<?xml version="1.0" encoding="UTF-8"?>
<svg xmlns="http://www.w3.org/2000/svg" xmlns:xlink="http://www.w3.org/1999/xlink" width="18.75pt" height="18.75pt" viewBox="0 0 18.75 18.75" version="1.1">
<g id="surface4282">
<path style=" stroke:none;fill-rule:nonzero;fill:rgb(9.019608%,9.019608%,9.411765%);fill-opacity:1;" d="M 8.625 6 C 5.441406 6 2.707031 7.890625 1.46875 10.609375 C 1.28125 11.015625 1.488281 11.496094 1.914062 11.636719 C 2.273438 11.757812 2.664062 11.589844 2.820312 11.246094 C 3.824219 9.035156 6.042969 7.5 8.625 7.5 C 10.257812 7.5 11.742188 8.121094 12.871094 9.132812 L 10.644531 11.359375 C 10.496094 11.507812 10.496094 11.742188 10.644531 11.890625 C 10.71875 11.960938 10.8125 12 10.910156 12 L 15.785156 12 C 16.199219 12 16.535156 11.664062 16.535156 11.25 L 16.535156 6.375 C 16.535156 6.277344 16.496094 6.183594 16.425781 6.109375 C 16.277344 5.964844 16.039062 5.964844 15.894531 6.109375 L 13.925781 8.078125 C 12.527344 6.792969 10.675781 6 8.625 6 Z M 8.625 6 "/>
</g>
</svg>
