<?xml version="1.0" encoding="UTF-8"?>
<svg xmlns="http://www.w3.org/2000/svg" xmlns:xlink="http://www.w3.org/1999/xlink" width="18.75pt" height="18.75pt" viewBox="0 0 18.75 18.75" version="1.1">
<g id="surface4234">
<path style=" stroke:none;fill-rule:nonzero;fill:rgb(9.019608%,9.019608%,9.411765%);fill-opacity:1;" d="M 5.984375 2.242188 C 5.789062 2.25 5.605469 2.328125 5.46875 2.46875 L 2.46875 5.46875 C 2.175781 5.761719 2.175781 6.238281 2.46875 6.53125 L 5.46875 9.53125 C 5.65625 9.726562 5.9375 9.804688 6.199219 9.738281 C 6.460938 9.667969 6.667969 9.460938 6.738281 9.199219 C 6.804688 8.9375 6.726562 8.65625 6.53125 8.46875 L 4.0625 6 L 6.53125 3.53125 C 6.753906 3.316406 6.820312 2.984375 6.699219 2.699219 C 6.578125 2.414062 6.292969 2.234375 5.984375 2.242188 Z M 9.734375 2.242188 C 9.539062 2.25 9.355469 2.328125 9.21875 2.46875 L 6.21875 5.46875 C 5.925781 5.761719 5.925781 6.238281 6.21875 6.53125 L 9.21875 9.53125 C 9.40625 9.726562 9.6875 9.804688 9.949219 9.738281 C 10.210938 9.667969 10.417969 9.460938 10.488281 9.199219 C 10.554688 8.9375 10.476562 8.65625 10.28125 8.46875 L 8.558594 6.75 L 11.25 6.75 C 12.914062 6.75 14.25 8.085938 14.25 9.75 L 14.25 15 C 14.246094 15.269531 14.386719 15.523438 14.621094 15.660156 C 14.855469 15.792969 15.144531 15.792969 15.378906 15.660156 C 15.613281 15.523438 15.753906 15.269531 15.75 15 L 15.75 9.75 C 15.75 7.273438 13.726562 5.25 11.25 5.25 L 8.558594 5.25 L 10.28125 3.53125 C 10.503906 3.316406 10.570312 2.984375 10.449219 2.699219 C 10.328125 2.414062 10.042969 2.234375 9.734375 2.242188 Z M 9.734375 2.242188 "/>
</g>
</svg>
