<?xml version="1.0" encoding="UTF-8"?>
<svg xmlns="http://www.w3.org/2000/svg" xmlns:xlink="http://www.w3.org/1999/xlink" width="18.75pt" height="18.75pt" viewBox="0 0 18.75 18.75" version="1.1">
<g id="surface4270">
<path style=" stroke:none;fill-rule:nonzero;fill:rgb(9.019608%,9.019608%,9.411765%);fill-opacity:1;" d="M 5.984375 1.492188 C 5.789062 1.5 5.605469 1.578125 5.46875 1.71875 L 2.46875 4.71875 C 2.175781 5.011719 2.175781 5.488281 2.46875 5.78125 L 5.46875 8.78125 C 5.65625 8.976562 5.9375 9.054688 6.199219 8.988281 C 6.460938 8.917969 6.667969 8.710938 6.738281 8.449219 C 6.804688 8.1875 6.726562 7.90625 6.53125 7.71875 L 4.8125 6 L 11.25 6 C 12.914062 6 14.25 7.335938 14.25 9 L 14.25 15 C 14.246094 15.269531 14.386719 15.523438 14.621094 15.660156 C 14.855469 15.792969 15.144531 15.792969 15.378906 15.660156 C 15.613281 15.523438 15.753906 15.269531 15.75 15 L 15.75 9 C 15.75 6.523438 13.726562 4.5 11.25 4.5 L 4.8125 4.5 L 6.53125 2.78125 C 6.753906 2.566406 6.820312 2.234375 6.699219 1.949219 C 6.578125 1.664062 6.292969 1.484375 5.984375 1.492188 Z M 5.984375 1.492188 "/>
</g>
</svg>
