<?xml version="1.0" encoding="UTF-8"?>
<svg xmlns="http://www.w3.org/2000/svg" xmlns:xlink="http://www.w3.org/1999/xlink" width="18.75pt" height="18.75pt" viewBox="0 0 18.75 18.75" version="1.1">
<g id="surface4258">
<path style=" stroke:none;fill-rule:nonzero;fill:rgb(9.019608%,9.019608%,9.411765%);fill-opacity:1;" d="M 4.597656 2.226562 C 4.488281 2.242188 4.382812 2.285156 4.292969 2.371094 L 0.96875 5.453125 C 0.675781 5.746094 0.675781 6.222656 0.96875 6.515625 L 4.292969 9.597656 C 4.65625 9.9375 5.25 9.675781 5.25 9.179688 L 5.25 6.75 L 12.375 6.75 C 14.234375 6.75 15.75 8.265625 15.75 10.125 C 15.75 11.984375 14.234375 13.5 12.375 13.5 L 12 13.5 C 11.730469 13.496094 11.476562 13.636719 11.339844 13.871094 C 11.207031 14.105469 11.207031 14.394531 11.339844 14.628906 C 11.476562 14.863281 11.730469 15.003906 12 15 L 12.375 15 C 15.054688 15 17.25 12.804688 17.25 10.125 C 17.25 7.445312 15.054688 5.25 12.375 5.25 L 5.25 5.25 L 5.25 2.789062 C 5.25 2.417969 4.917969 2.179688 4.597656 2.226562 Z M 3 13.5 C 2.585938 13.5 2.25 13.835938 2.25 14.25 C 2.25 14.664062 2.585938 15 3 15 C 3.414062 15 3.75 14.664062 3.75 14.25 C 3.75 13.835938 3.414062 13.5 3 13.5 Z M 6 13.5 C 5.585938 13.5 5.25 13.835938 5.25 14.25 C 5.25 14.664062 5.585938 15 6 15 C 6.414062 15 6.75 14.664062 6.75 14.25 C 6.75 13.835938 6.414062 13.5 6 13.5 Z M 9 13.5 C 8.585938 13.5 8.25 13.835938 8.25 14.25 C 8.25 14.664062 8.585938 15 9 15 C 9.414062 15 9.75 14.664062 9.75 14.25 C 9.75 13.835938 9.414062 13.5 9 13.5 Z M 9 13.5 "/>
</g>
</svg>
