<?xml version="1.0" encoding="UTF-8"?>
<svg xmlns="http://www.w3.org/2000/svg" xmlns:xlink="http://www.w3.org/1999/xlink" width="18.75pt" height="18.75pt" viewBox="0 0 18.75 18.75" version="1.1">
<g id="surface4246">
<path style=" stroke:none;fill-rule:nonzero;fill:rgb(9.019608%,9.019608%,9.411765%);fill-opacity:1;" d="M 9 1.5 C 4.867188 1.5 1.5 4.867188 1.5 9 C 1.5 13.132812 4.867188 16.5 9 16.5 C 9.28125 16.5 9.5625 16.484375 9.839844 16.453125 C 10.28125 16.402344 10.578125 15.980469 10.480469 15.550781 L 10.476562 15.527344 C 10.394531 15.148438 10.035156 14.90625 9.65625 14.953125 C 9.4375 14.984375 9.21875 15 9 15 C 5.679688 15 3 12.324219 3 9 C 3 5.675781 5.679688 3 9 3 C 10.121094 3 11.160156 3.308594 12.050781 3.835938 L 11.378906 4.511719 C 11.105469 4.785156 11.296875 5.25 11.683594 5.25 L 14.570312 5.25 C 14.808594 5.25 15 5.058594 15 4.820312 L 15 1.933594 C 15 1.546875 14.535156 1.355469 14.261719 1.628906 L 13.136719 2.753906 C 11.949219 1.964844 10.527344 1.5 9 1.5 Z M 15.6875 9 C 15.3125 9 15 9.277344 14.957031 9.652344 C 14.953125 9.664062 14.953125 9.675781 14.953125 9.691406 C 14.902344 10.0625 15.140625 10.414062 15.507812 10.503906 L 15.519531 10.507812 C 15.953125 10.613281 16.382812 10.320312 16.4375 9.878906 C 16.441406 9.863281 16.441406 9.847656 16.441406 9.832031 C 16.496094 9.390625 16.148438 9 15.703125 9 Z M 14.742188 11.84375 C 14.472656 11.820312 14.203125 11.945312 14.050781 12.1875 L 14.039062 12.207031 C 13.835938 12.519531 13.902344 12.933594 14.191406 13.171875 L 14.207031 13.1875 C 14.550781 13.46875 15.070312 13.390625 15.308594 13.015625 C 15.3125 13.007812 15.316406 13 15.324219 12.992188 C 15.558594 12.621094 15.417969 12.125 15.023438 11.929688 L 15.007812 11.917969 C 14.921875 11.875 14.832031 11.851562 14.742188 11.84375 Z M 12.6875 13.964844 C 12.511719 13.9375 12.324219 13.96875 12.164062 14.070312 L 12.152344 14.078125 C 11.835938 14.277344 11.714844 14.675781 11.875 15.019531 L 11.886719 15.042969 C 12.074219 15.449219 12.578125 15.597656 12.957031 15.359375 C 12.960938 15.355469 12.96875 15.355469 12.972656 15.351562 C 13.34375 15.117188 13.429688 14.609375 13.160156 14.261719 L 13.144531 14.238281 C 13.027344 14.089844 12.863281 13.996094 12.6875 13.964844 Z M 12.6875 13.964844 "/>
</g>
</svg>
