<?xml version="1.0" encoding="UTF-8"?>
<svg xmlns="http://www.w3.org/2000/svg" xmlns:xlink="http://www.w3.org/1999/xlink" width="18.75pt" height="18.75pt" viewBox="0 0 18.75 18.75" version="1.1">
<g id="surface4300">
<path style=" stroke:none;fill-rule:nonzero;fill:rgb(9.019608%,9.019608%,9.411765%);fill-opacity:1;" d="M 9 1.5 C 7.472656 1.5 6.050781 1.964844 4.863281 2.753906 L 3.738281 1.628906 C 3.464844 1.355469 3 1.546875 3 1.933594 L 3 4.820312 C 3 5.058594 3.191406 5.25 3.429688 5.25 L 6.316406 5.25 C 6.703125 5.25 6.894531 4.785156 6.621094 4.511719 L 5.945312 3.835938 C 6.839844 3.308594 7.882812 3 9 3 C 12.324219 3 15 5.675781 15 9 C 15 12.324219 12.324219 15 9 15 C 8.78125 15 8.5625 14.984375 8.34375 14.953125 C 7.960938 14.90625 7.605469 15.148438 7.523438 15.527344 L 7.519531 15.550781 C 7.421875 15.980469 7.71875 16.402344 8.160156 16.453125 C 8.4375 16.484375 8.71875 16.5 9 16.5 C 13.132812 16.5 16.5 13.132812 16.5 9 C 16.5 4.867188 13.132812 1.5 9 1.5 Z M 2.300781 9 C 1.855469 9 1.503906 9.390625 1.558594 9.832031 C 1.558594 9.847656 1.5625 9.863281 1.5625 9.875 C 1.617188 10.316406 2.046875 10.613281 2.480469 10.503906 L 2.496094 10.503906 C 2.859375 10.414062 3.097656 10.0625 3.050781 9.691406 C 3.046875 9.675781 3.046875 9.664062 3.046875 9.652344 C 3 9.277344 2.6875 9 2.3125 9 Z M 3.257812 11.84375 C 3.167969 11.851562 3.078125 11.875 2.992188 11.917969 L 2.976562 11.929688 C 2.582031 12.125 2.441406 12.621094 2.679688 12.992188 C 2.683594 13 2.6875 13.007812 2.691406 13.015625 C 2.933594 13.390625 3.449219 13.46875 3.796875 13.1875 L 3.808594 13.171875 C 4.097656 12.933594 4.164062 12.519531 3.960938 12.207031 L 3.949219 12.1875 C 3.796875 11.945312 3.527344 11.820312 3.257812 11.84375 Z M 5.3125 13.964844 C 5.140625 13.996094 4.972656 14.085938 4.859375 14.238281 L 4.839844 14.261719 C 4.570312 14.605469 4.65625 15.113281 5.027344 15.347656 C 5.035156 15.351562 5.039062 15.355469 5.046875 15.359375 C 5.421875 15.597656 5.925781 15.445312 6.113281 15.042969 L 6.128906 15.015625 C 6.289062 14.675781 6.167969 14.273438 5.847656 14.074219 L 5.835938 14.070312 C 5.675781 13.96875 5.488281 13.933594 5.3125 13.964844 Z M 5.3125 13.964844 "/>
</g>
</svg>
