<?xml version="1.0" encoding="UTF-8"?>
<svg xmlns="http://www.w3.org/2000/svg" xmlns:xlink="http://www.w3.org/1999/xlink" width="18.75pt" height="18.75pt" viewBox="0 0 18.75 18.75" version="1.1">
<g id="surface4276">
<path style=" stroke:none;fill-rule:nonzero;fill:rgb(9.019608%,9.019608%,9.411765%);fill-opacity:1;" d="M 9 1.5 C 7.472656 1.5 6.050781 1.964844 4.863281 2.753906 L 3.738281 1.628906 C 3.464844 1.355469 3 1.546875 3 1.933594 L 3 4.820312 C 3 5.058594 3.191406 5.25 3.429688 5.25 L 6.316406 5.25 C 6.703125 5.25 6.894531 4.785156 6.621094 4.511719 L 5.945312 3.835938 C 6.839844 3.308594 7.882812 3 9 3 C 12.324219 3 15 5.675781 15 9 C 15 12.324219 12.324219 15 9 15 C 5.675781 15 3 12.324219 3 9 C 3.003906 8.730469 2.863281 8.476562 2.628906 8.339844 C 2.394531 8.207031 2.105469 8.207031 1.871094 8.339844 C 1.636719 8.476562 1.496094 8.730469 1.5 9 C 1.5 13.132812 4.867188 16.5 9 16.5 C 13.132812 16.5 16.5 13.132812 16.5 9 C 16.5 4.867188 13.132812 1.5 9 1.5 Z M 9 1.5 "/>
</g>
</svg>
