<?xml version="1.0" encoding="UTF-8"?>
<svg xmlns="http://www.w3.org/2000/svg" xmlns:xlink="http://www.w3.org/1999/xlink" width="18.75pt" height="18.75pt" viewBox="0 0 18.75 18.75" version="1.1">
<g id="surface4252">
<path style=" stroke:none;fill-rule:nonzero;fill:rgb(9.019608%,9.019608%,9.411765%);fill-opacity:1;" d="M 4.5 2.25 C 4.328125 2.25 4.15625 2.324219 4.039062 2.472656 L 2.316406 4.628906 C 2.113281 4.878906 2.292969 5.25 2.613281 5.25 L 3.75 5.25 L 3.75 12 C 3.75 13.648438 5.101562 15 6.75 15 C 8.398438 15 9.75 13.648438 9.75 12 L 9.75 6 C 9.75 5.164062 10.414062 4.5 11.25 4.5 C 12.085938 4.5 12.75 5.164062 12.75 6 L 12.75 12.75 L 11.632812 12.75 C 11.3125 12.75 11.132812 13.121094 11.335938 13.371094 L 13.058594 15.527344 C 13.296875 15.824219 13.746094 15.824219 13.980469 15.527344 L 15.703125 13.371094 C 15.90625 13.121094 15.726562 12.75 15.40625 12.75 L 14.25 12.75 L 14.25 6 C 14.25 4.351562 12.898438 3 11.25 3 C 9.601562 3 8.25 4.351562 8.25 6 L 8.25 12 C 8.25 12.835938 7.585938 13.5 6.75 13.5 C 5.914062 13.5 5.25 12.835938 5.25 12 L 5.25 5.25 L 6.386719 5.25 C 6.707031 5.25 6.886719 4.878906 6.6875 4.628906 L 4.960938 2.472656 C 4.84375 2.324219 4.671875 2.25 4.5 2.25 Z M 4.5 2.25 "/>
</g>
</svg>
