<?xml version="1.0" encoding="UTF-8"?>
<svg xmlns="http://www.w3.org/2000/svg" xmlns:xlink="http://www.w3.org/1999/xlink" width="18.75pt" height="18.75pt" viewBox="0 0 18.75 18.75" version="1.1">
<g id="surface4294">
<path style=" stroke:none;fill-rule:nonzero;fill:rgb(9.019608%,9.019608%,9.411765%);fill-opacity:1;" d="M 13.191406 2.785156 C 12.976562 2.746094 12.75 2.90625 12.75 3.15625 L 12.75 4.5 L 7.5 4.5 C 4.609375 4.5 2.25 6.859375 2.25 9.75 C 2.25 12.640625 4.609375 15 7.5 15 L 14.25 15 C 14.519531 15.003906 14.773438 14.863281 14.910156 14.628906 C 15.042969 14.394531 15.042969 14.105469 14.910156 13.871094 C 14.773438 13.636719 14.519531 13.496094 14.25 13.5 L 7.5 13.5 C 5.417969 13.5 3.75 11.832031 3.75 9.75 C 3.75 7.667969 5.417969 6 7.5 6 L 12.75 6 L 12.75 7.34375 C 12.75 7.679688 13.152344 7.84375 13.390625 7.609375 L 15.484375 5.515625 C 15.632812 5.367188 15.632812 5.132812 15.484375 4.984375 L 13.390625 2.890625 C 13.332031 2.832031 13.261719 2.796875 13.191406 2.785156 Z M 13.191406 2.785156 "/>
</g>
</svg>
