<?xml version="1.0" encoding="UTF-8"?>
<svg xmlns="http://www.w3.org/2000/svg" xmlns:xlink="http://www.w3.org/1999/xlink" width="18.75pt" height="18.75pt" viewBox="0 0 18.75 18.75" version="1.1">
<g id="surface4228">
<path style=" stroke:none;fill-rule:nonzero;fill:rgb(9.019608%,9.019608%,9.411765%);fill-opacity:1;" d="M 4.722656 2.890625 C 4.636719 2.90625 4.550781 2.949219 4.480469 3.019531 L 2.566406 4.933594 C 2.390625 5.109375 2.390625 5.390625 2.566406 5.566406 L 4.484375 7.484375 C 4.765625 7.765625 5.25 7.566406 5.25 7.164062 L 5.25 6 L 10.5 6 C 12.582031 6 14.25 7.667969 14.25 9.75 C 14.25 11.832031 12.582031 13.5 10.5 13.5 L 3.75 13.5 C 3.480469 13.496094 3.226562 13.636719 3.089844 13.871094 C 2.957031 14.105469 2.957031 14.394531 3.089844 14.628906 C 3.226562 14.863281 3.480469 15.003906 3.75 15 L 10.5 15 C 13.390625 15 15.75 12.640625 15.75 9.75 C 15.75 6.859375 13.390625 4.5 10.5 4.5 L 5.25 4.5 L 5.25 3.335938 C 5.25 3.035156 4.976562 2.847656 4.722656 2.890625 Z M 4.722656 2.890625 "/>
</g>
</svg>
