<?xml version="1.0" encoding="UTF-8"?>
<svg xmlns="http://www.w3.org/2000/svg" xmlns:xlink="http://www.w3.org/1999/xlink" width="18.75pt" height="18.75pt" viewBox="0 0 18.75 18.75" version="1.1">
<g id="surface4306">
<path style=" stroke:none;fill-rule:nonzero;fill:rgb(9.019608%,9.019608%,9.411765%);fill-opacity:1;" d="M 1.875 6 C 1.777344 6 1.683594 6.035156 1.609375 6.109375 C 1.535156 6.183594 1.5 6.277344 1.5 6.375 L 1.5 11.25 C 1.5 11.664062 1.835938 12 2.25 12 L 7.125 12 C 7.222656 12 7.316406 11.960938 7.390625 11.890625 C 7.535156 11.742188 7.535156 11.507812 7.390625 11.359375 L 5.414062 9.386719 C 6.472656 8.449219 7.851562 7.875 9.375 7.875 C 11.738281 7.875 13.777344 9.242188 14.753906 11.226562 C 14.960938 11.648438 15.441406 11.851562 15.886719 11.703125 C 16.417969 11.527344 16.6875 10.917969 16.441406 10.417969 C 15.160156 7.804688 12.480469 6 9.375 6 C 7.335938 6 5.488281 6.789062 4.09375 8.0625 L 2.140625 6.109375 C 2.066406 6.035156 1.972656 6 1.875 6 Z M 1.875 6 "/>
</g>
</svg>
